  0
SECTION
  2
HEADER
  9
$ACADVER
  1
AC1009
  9
$LIMMIN
 10
0.5456833333333335
 20
0.3703000000000001
  9
$LIMMAX
 10
3.173083333333334
 20
2.351475000000001
  9
$GRIDMODE
 70
94
  9
$GRIDUNIT
 10
  0
 20
  0
  9
$SNAPMODE
 70
1
  9
$SNAPSTYLE
 70
0
  9
$SNAPUNIT
 10
0.0003916666666666668
 20
0.0003916666666666668
  9
$FILLMODE
 70
1
  9
$CECOLOR
 62
256
  0
ENDSEC
  0
SECTION
  2
ENTITIES
 0
SOLID
  8
AST
 10
2.3360
 20
1.4520
 11
2.3740
 21
1.4520
 12
2.3360
 22
1.4840
 13
2.3740
 23
1.4840
 0
SOLID
  8
AST
 10
2.3360
 20
1.5080
 11
2.3740
 21
1.5080
 12
2.3360
 22
1.5400
 13
2.3740
 23
1.5400
 0
SOLID
  8
AST
 10
2.3340
 20
1.1610
 11
2.3720
 21
1.1610
 12
2.3340
 22
1.1930
 13
2.3720
 23
1.1930
 0
SOLID
  8
AST
 10
2.3340
 20
1.1050
 11
2.3720
 21
1.1050
 12
2.3340
 22
1.1370
 13
2.3720
 23
1.1370
 0
SOLID
  8
AST
 10
1.9810
 20
1.1970
 11
2.0190
 21
1.1970
 12
1.9810
 22
1.2290
 13
2.0190
 23
1.2290
 0
SOLID
  8
AST
 10
1.9810
 20
1.1410
 11
2.0190
 21
1.1410
 12
1.9810
 22
1.1730
 13
2.0190
 23
1.1730
 0
SOLID
  8
AST
 10
2.0250
 20
1.4120
 11
2.0630
 21
1.4120
 12
2.0250
 22
1.4440
 13
2.0630
 23
1.4440
 0
SOLID
  8
AST
 10
2.0250
 20
1.4680
 11
2.0630
 21
1.4680
 12
2.0250
 22
1.5000
 13
2.0630
 23
1.5000
 0
SOLID
  8
AST
 10
2.3850
 20
0.9050
 11
2.4710
 21
0.9050
 12
2.3850
 22
0.9750
 13
2.4710
 23
0.9750
 0
SOLID
  8
AST
 10
2.2590
 20
0.9050
 11
2.3450
 21
0.9050
 12
2.2590
 22
0.9750
 13
2.3450
 23
0.9750
 0
SOLID
  8
AST
 10
1.4380
 20
1.1890
 11
1.4760
 21
1.1890
 12
1.4380
 22
1.2210
 13
1.4760
 23
1.2210
 0
SOLID
  8
AST
 10
1.4380
 20
1.2450
 11
1.4760
 21
1.2450
 12
1.4380
 22
1.2770
 13
1.4760
 23
1.2770
 0
SOLID
  8
AST
 10
1.9560
 20
1.6410
 11
1.9940
 21
1.6410
 12
1.9560
 22
1.6730
 13
1.9940
 23
1.6730
 0
SOLID
  8
AST
 10
1.9560
 20
1.6970
 11
1.9940
 21
1.6970
 12
1.9560
 22
1.7290
 13
1.9940
 23
1.7290
 0
SOLID
  8
AST
 10
1.8780
 20
1.1020
 11
1.9160
 21
1.1020
 12
1.8780
 22
1.1340
 13
1.9160
 23
1.1340
 0
SOLID
  8
AST
 10
1.8780
 20
1.0460
 11
1.9160
 21
1.0460
 12
1.8780
 22
1.0780
 13
1.9160
 23
1.0780
 0
SOLID
  8
AST
 10
1.5640
 20
1.6450
 11
1.6020
 21
1.6450
 12
1.5640
 22
1.6770
 13
1.6020
 23
1.6770
 0
SOLID
  8
AST
 10
1.5640
 20
1.7010
 11
1.6020
 21
1.7010
 12
1.5640
 22
1.7330
 13
1.6020
 23
1.7330
 0
SOLID
  8
AST
 10
0.7970
 20
0.4970
 11
0.8350
 21
0.4970
 12
0.7970
 22
0.5290
 13
0.8350
 23
0.5290
 0
SOLID
  8
AST
 10
0.7970
 20
0.5530
 11
0.8350
 21
0.5530
 12
0.7970
 22
0.5850
 13
0.8350
 23
0.5850
 0
SOLID
  8
AST
 10
0.6220
 20
0.4150
 11
0.6540
 21
0.4150
 12
0.6220
 22
0.4530
 13
0.6540
 23
0.4530
 0
SOLID
  8
AST
 10
0.5660
 20
0.4150
 11
0.5980
 21
0.4150
 12
0.5660
 22
0.4530
 13
0.5980
 23
0.4530
 0
SOLID
  8
AST
 10
0.7970
 20
0.6380
 11
0.8350
 21
0.6380
 12
0.7970
 22
0.6700
 13
0.8350
 23
0.6700
 0
SOLID
  8
AST
 10
0.7970
 20
0.6940
 11
0.8350
 21
0.6940
 12
0.7970
 22
0.7260
 13
0.8350
 23
0.7260
 0
SOLID
  8
AST
 10
0.3960
 20
0.4930
 11
0.4340
 21
0.4930
 12
0.3960
 22
0.5250
 13
0.4340
 23
0.5250
 0
SOLID
  8
AST
 10
0.3960
 20
0.5490
 11
0.4340
 21
0.5490
 12
0.3960
 22
0.5810
 13
0.4340
 23
0.5810
 0
SOLID
  8
AST
 10
0.8210
 20
0.7610
 11
0.8590
 21
0.7610
 12
0.8210
 22
0.7930
 13
0.8590
 23
0.7930
 0
SOLID
  8
AST
 10
0.8210
 20
0.8170
 11
0.8590
 21
0.8170
 12
0.8210
 22
0.8490
 13
0.8590
 23
0.8490
 0
SOLID
  8
AST
 10
2.0330
 20
0.5280
 11
2.0650
 21
0.5280
 12
2.0330
 22
0.5660
 13
2.0650
 23
0.5660
 0
SOLID
  8
AST
 10
1.9770
 20
0.5280
 11
2.0090
 21
0.5280
 12
1.9770
 22
0.5660
 13
2.0090
 23
0.5660
 0
SOLID
  8
AST
 10
1.8970
 20
0.8310
 11
1.9350
 21
0.8310
 12
1.8970
 22
0.8630
 13
1.9350
 23
0.8630
 0
SOLID
  8
AST
 10
1.8970
 20
0.8870
 11
1.9350
 21
0.8870
 12
1.8970
 22
0.9190
 13
1.9350
 23
0.9190
 0
SOLID
  8
AST
 10
1.7170
 20
0.5100
 11
1.7550
 21
0.5100
 12
1.7170
 22
0.5420
 13
1.7550
 23
0.5420
 0
SOLID
  8
AST
 10
1.7170
 20
0.5660
 11
1.7550
 21
0.5660
 12
1.7170
 22
0.5980
 13
1.7550
 23
0.5980
 0
SOLID
  8
AST
 10
1.8710
 20
0.3900
 11
1.9030
 21
0.3900
 12
1.8710
 22
0.4280
 13
1.9030
 23
0.4280
 0
SOLID
  8
AST
 10
1.8150
 20
0.3900
 11
1.8470
 21
0.3900
 12
1.8150
 22
0.4280
 13
1.8470
 23
0.4280
 0
SOLID
  8
AST
 10
1.5200
 20
0.5390
 11
1.5520
 21
0.5390
 12
1.5200
 22
0.5770
 13
1.5520
 23
0.5770
 0
SOLID
  8
AST
 10
1.4640
 20
0.5390
 11
1.4960
 21
0.5390
 12
1.4640
 22
0.5770
 13
1.4960
 23
0.5770
 0
SOLID
  8
AST
 10
0.8840
 20
1.3680
 11
0.9540
 21
1.3680
 12
0.8840
 22
1.4540
 13
0.9540
 23
1.4540
 0
SOLID
  8
AST
 10
0.8840
 20
1.2420
 11
0.9540
 21
1.2420
 12
0.8840
 22
1.3280
 13
0.9540
 23
1.3280
 0
SOLID
  8
AST
 10
0.5520
 20
1.4880
 11
0.5840
 21
1.4880
 12
0.5520
 22
1.5260
 13
0.5840
 23
1.5260
 0
SOLID
  8
AST
 10
0.4960
 20
1.4880
 11
0.5280
 21
1.4880
 12
0.4960
 22
1.5260
 13
0.5280
 23
1.5260
 0
SOLID
  8
AST
 10
1.0270
 20
1.2690
 11
1.0650
 21
1.2690
 12
1.0270
 22
1.3010
 13
1.0650
 23
1.3010
 0
SOLID
  8
AST
 10
1.0270
 20
1.2130
 11
1.0650
 21
1.2130
 12
1.0270
 22
1.2450
 13
1.0650
 23
1.2450
 0
SOLID
  8
AST
 10
0.5520
 20
1.5630
 11
0.5840
 21
1.5630
 12
0.5520
 22
1.6010
 13
0.5840
 23
1.6010
 0
SOLID
  8
AST
 10
0.4960
 20
1.5630
 11
0.5280
 21
1.5630
 12
0.4960
 22
1.6010
 13
0.5280
 23
1.6010
 0
SOLID
  8
AST
 10
0.3580
 20
1.6280
 11
0.3920
 21
1.6280
 12
0.3580
 22
1.6780
 13
0.3920
 23
1.6780
 0
SOLID
  8
AST
 10
0.3210
 20
1.7120
 11
0.3550
 21
1.7120
 12
0.3210
 22
1.7520
 13
0.3550
 23
1.7520
 0
SOLID
  8
AST
 10
0.3950
 20
1.7120
 11
0.4290
 21
1.7120
 12
0.3950
 22
1.7520
 13
0.4290
 23
1.7520
 0
SOLID
  8
AST
 10
2.2760
 20
0.7220
 11
2.3060
 21
0.7220
 12
2.2760
 22
0.7340
 13
2.3060
 23
0.7340
 0
SOLID
  8
AST
 10
2.2760
 20
0.7850
 11
2.3060
 21
0.7850
 12
2.2760
 22
0.7970
 13
2.3060
 23
0.7970
 0
SOLID
  8
AST
 10
0.5080
 20
1.6280
 11
0.5420
 21
1.6280
 12
0.5080
 22
1.6780
 13
0.5420
 23
1.6780
 0
SOLID
  8
AST
 10
0.4710
 20
1.7120
 11
0.5050
 21
1.7120
 12
0.4710
 22
1.7520
 13
0.5050
 23
1.7520
 0
SOLID
  8
AST
 10
0.5450
 20
1.7120
 11
0.5790
 21
1.7120
 12
0.5450
 22
1.7520
 13
0.5790
 23
1.7520
 0
SOLID
  8
AST
 10
2.3470
 20
0.7220
 11
2.3770
 21
0.7220
 12
2.3470
 22
0.7340
 13
2.3770
 23
0.7340
 0
SOLID
  8
AST
 10
2.3470
 20
0.7850
 11
2.3770
 21
0.7850
 12
2.3470
 22
0.7970
 13
2.3770
 23
0.7970
 0
SOLID
  8
AST
 10
1.8400
 20
1.1810
 11
1.8520
 21
1.1810
 12
1.8400
 22
1.2510
 13
1.8520
 23
1.2510
 0
SOLID
  8
AST
 10
1.8210
 20
1.1810
 11
1.8330
 21
1.1810
 12
1.8210
 22
1.2510
 13
1.8330
 23
1.2510
 0
SOLID
  8
AST
 10
1.8010
 20
1.1810
 11
1.8130
 21
1.1810
 12
1.8010
 22
1.2510
 13
1.8130
 23
1.2510
 0
SOLID
  8
AST
 10
1.7810
 20
1.1810
 11
1.7930
 21
1.1810
 12
1.7810
 22
1.2510
 13
1.7930
 23
1.2510
 0
SOLID
  8
AST
 10
1.7610
 20
1.1810
 11
1.7730
 21
1.1810
 12
1.7610
 22
1.2510
 13
1.7730
 23
1.2510
 0
SOLID
  8
AST
 10
1.7420
 20
1.1810
 11
1.7540
 21
1.1810
 12
1.7420
 22
1.2510
 13
1.7540
 23
1.2510
 0
SOLID
  8
AST
 10
1.7220
 20
1.1810
 11
1.7340
 21
1.1810
 12
1.7220
 22
1.2510
 13
1.7340
 23
1.2510
 0
SOLID
  8
AST
 10
1.7020
 20
1.1810
 11
1.7140
 21
1.1810
 12
1.7020
 22
1.2510
 13
1.7140
 23
1.2510
 0
SOLID
  8
AST
 10
1.6830
 20
1.1810
 11
1.6950
 21
1.1810
 12
1.6830
 22
1.2510
 13
1.6950
 23
1.2510
 0
SOLID
  8
AST
 10
1.6630
 20
1.1810
 11
1.6750
 21
1.1810
 12
1.6630
 22
1.2510
 13
1.6750
 23
1.2510
 0
SOLID
  8
AST
 10
1.6430
 20
1.1810
 11
1.6550
 21
1.1810
 12
1.6430
 22
1.2510
 13
1.6550
 23
1.2510
 0
SOLID
  8
AST
 10
1.6240
 20
1.1810
 11
1.6360
 21
1.1810
 12
1.6240
 22
1.2510
 13
1.6360
 23
1.2510
 0
SOLID
  8
AST
 10
1.5360
 20
1.2690
 11
1.6060
 21
1.2690
 12
1.5360
 22
1.2810
 13
1.6060
 23
1.2810
 0
SOLID
  8
AST
 10
1.5360
 20
1.2890
 11
1.6060
 21
1.2890
 12
1.5360
 22
1.3010
 13
1.6060
 23
1.3010
 0
SOLID
  8
AST
 10
1.5360
 20
1.3090
 11
1.6060
 21
1.3090
 12
1.5360
 22
1.3210
 13
1.6060
 23
1.3210
 0
SOLID
  8
AST
 10
1.5360
 20
1.3290
 11
1.6060
 21
1.3290
 12
1.5360
 22
1.3410
 13
1.6060
 23
1.3410
 0
SOLID
  8
AST
 10
1.5360
 20
1.3480
 11
1.6060
 21
1.3480
 12
1.5360
 22
1.3600
 13
1.6060
 23
1.3600
 0
SOLID
  8
AST
 10
1.5360
 20
1.3680
 11
1.6060
 21
1.3680
 12
1.5360
 22
1.3800
 13
1.6060
 23
1.3800
 0
SOLID
  8
AST
 10
1.5360
 20
1.3880
 11
1.6060
 21
1.3880
 12
1.5360
 22
1.4000
 13
1.6060
 23
1.4000
 0
SOLID
  8
AST
 10
1.5360
 20
1.4070
 11
1.6060
 21
1.4070
 12
1.5360
 22
1.4190
 13
1.6060
 23
1.4190
 0
SOLID
  8
AST
 10
1.5360
 20
1.4270
 11
1.6060
 21
1.4270
 12
1.5360
 22
1.4390
 13
1.6060
 23
1.4390
 0
SOLID
  8
AST
 10
1.5360
 20
1.4470
 11
1.6060
 21
1.4470
 12
1.5360
 22
1.4590
 13
1.6060
 23
1.4590
 0
SOLID
  8
AST
 10
1.5360
 20
1.4660
 11
1.6060
 21
1.4660
 12
1.5360
 22
1.4780
 13
1.6060
 23
1.4780
 0
SOLID
  8
AST
 10
1.5360
 20
1.4860
 11
1.6060
 21
1.4860
 12
1.5360
 22
1.4980
 13
1.6060
 23
1.4980
 0
SOLID
  8
AST
 10
1.6240
 20
1.5160
 11
1.6360
 21
1.5160
 12
1.6240
 22
1.5860
 13
1.6360
 23
1.5860
 0
SOLID
  8
AST
 10
1.6430
 20
1.5160
 11
1.6550
 21
1.5160
 12
1.6430
 22
1.5860
 13
1.6550
 23
1.5860
 0
SOLID
  8
AST
 10
1.6630
 20
1.5160
 11
1.6750
 21
1.5160
 12
1.6630
 22
1.5860
 13
1.6750
 23
1.5860
 0
SOLID
  8
AST
 10
1.6830
 20
1.5160
 11
1.6950
 21
1.5160
 12
1.6830
 22
1.5860
 13
1.6950
 23
1.5860
 0
SOLID
  8
AST
 10
1.7020
 20
1.5160
 11
1.7140
 21
1.5160
 12
1.7020
 22
1.5860
 13
1.7140
 23
1.5860
 0
SOLID
  8
AST
 10
1.7220
 20
1.5160
 11
1.7340
 21
1.5160
 12
1.7220
 22
1.5860
 13
1.7340
 23
1.5860
 0
SOLID
  8
AST
 10
1.7420
 20
1.5160
 11
1.7540
 21
1.5160
 12
1.7420
 22
1.5860
 13
1.7540
 23
1.5860
 0
SOLID
  8
AST
 10
1.7610
 20
1.5160
 11
1.7730
 21
1.5160
 12
1.7610
 22
1.5860
 13
1.7730
 23
1.5860
 0
SOLID
  8
AST
 10
1.7810
 20
1.5160
 11
1.7930
 21
1.5160
 12
1.7810
 22
1.5860
 13
1.7930
 23
1.5860
 0
SOLID
  8
AST
 10
1.8010
 20
1.5160
 11
1.8130
 21
1.5160
 12
1.8010
 22
1.5860
 13
1.8130
 23
1.5860
 0
SOLID
  8
AST
 10
1.8210
 20
1.5160
 11
1.8330
 21
1.5160
 12
1.8210
 22
1.5860
 13
1.8330
 23
1.5860
 0
SOLID
  8
AST
 10
1.8400
 20
1.5160
 11
1.8520
 21
1.5160
 12
1.8400
 22
1.5860
 13
1.8520
 23
1.5860
 0
SOLID
  8
AST
 10
1.8700
 20
1.4860
 11
1.9400
 21
1.4860
 12
1.8700
 22
1.4980
 13
1.9400
 23
1.4980
 0
SOLID
  8
AST
 10
1.8700
 20
1.4660
 11
1.9400
 21
1.4660
 12
1.8700
 22
1.4780
 13
1.9400
 23
1.4780
 0
SOLID
  8
AST
 10
1.8700
 20
1.4470
 11
1.9400
 21
1.4470
 12
1.8700
 22
1.4590
 13
1.9400
 23
1.4590
 0
SOLID
  8
AST
 10
1.8700
 20
1.4270
 11
1.9400
 21
1.4270
 12
1.8700
 22
1.4390
 13
1.9400
 23
1.4390
 0
SOLID
  8
AST
 10
1.8700
 20
1.4070
 11
1.9400
 21
1.4070
 12
1.8700
 22
1.4190
 13
1.9400
 23
1.4190
 0
SOLID
  8
AST
 10
1.8700
 20
1.3880
 11
1.9400
 21
1.3880
 12
1.8700
 22
1.4000
 13
1.9400
 23
1.4000
 0
SOLID
  8
AST
 10
1.8700
 20
1.3680
 11
1.9400
 21
1.3680
 12
1.8700
 22
1.3800
 13
1.9400
 23
1.3800
 0
SOLID
  8
AST
 10
1.8700
 20
1.3480
 11
1.9400
 21
1.3480
 12
1.8700
 22
1.3600
 13
1.9400
 23
1.3600
 0
SOLID
  8
AST
 10
1.8700
 20
1.3290
 11
1.9400
 21
1.3290
 12
1.8700
 22
1.3410
 13
1.9400
 23
1.3410
 0
SOLID
  8
AST
 10
1.8700
 20
1.3090
 11
1.9400
 21
1.3090
 12
1.8700
 22
1.3210
 13
1.9400
 23
1.3210
 0
SOLID
  8
AST
 10
1.8700
 20
1.2890
 11
1.9400
 21
1.2890
 12
1.8700
 22
1.3010
 13
1.9400
 23
1.3010
 0
SOLID
  8
AST
 10
1.8700
 20
1.2690
 11
1.9400
 21
1.2690
 12
1.8700
 22
1.2810
 13
1.9400
 23
1.2810
 0
SOLID
  8
AST
 10
2.0490
 20
0.3500
 11
2.1350
 21
0.3500
 12
2.0490
 22
0.4680
 13
2.1350
 23
0.4680
 0
SOLID
  8
AST
 10
1.9490
 20
0.3500
 11
2.0350
 21
0.3500
 12
1.9490
 22
0.4680
 13
2.0350
 23
0.4680
 0
SOLID
  8
AST
 10
1.2350
 20
1.4000
 11
1.3530
 21
1.4000
 12
1.2350
 22
1.4860
 13
1.3530
 23
1.4860
 0
SOLID
  8
AST
 10
1.2350
 20
1.3000
 11
1.3530
 21
1.3000
 12
1.2350
 22
1.3860
 13
1.3530
 23
1.3860
 0
SOLID
  8
AST
 10
1.2350
 20
1.2000
 11
1.3530
 21
1.2000
 12
1.2350
 22
1.2860
 13
1.3530
 23
1.2860
 0
SOLID
  8
AST
 10
0.9190
 20
1.7730
 11
1.0050
 21
1.7730
 12
0.9190
 22
1.8910
 13
1.0050
 23
1.8910
 0
SOLID
  8
AST
 10
0.8190
 20
1.7730
 11
0.9050
 21
1.7730
 12
0.8190
 22
1.8910
 13
0.9050
 23
1.8910
 0
SOLID
  8
AST
 10
0.7190
 20
1.7730
 11
0.8050
 21
1.7730
 12
0.7190
 22
1.8910
 13
0.8050
 23
1.8910
 0
SOLID
  8
AST
 10
0.6190
 20
1.7730
 11
0.7050
 21
1.7730
 12
0.6190
 22
1.8910
 13
0.7050
 23
1.8910
 0
SOLID
  8
AST
 10
0.5190
 20
1.7730
 11
0.6050
 21
1.7730
 12
0.5190
 22
1.8910
 13
0.6050
 23
1.8910
 0
SOLID
  8
AST
 10
0.4190
 20
1.7730
 11
0.5050
 21
1.7730
 12
0.4190
 22
1.8910
 13
0.5050
 23
1.8910
 0
SOLID
  8
AST
 10
0.6440
 20
1.7220
 11
0.6820
 21
1.7220
 12
0.6440
 22
1.7540
 13
0.6820
 23
1.7540
 0
SOLID
  8
AST
 10
0.6440
 20
1.6660
 11
0.6820
 21
1.6660
 12
0.6440
 22
1.6980
 13
0.6820
 23
1.6980
 0
SOLID
  8
AST
 10
0.7430
 20
1.7220
 11
0.7810
 21
1.7220
 12
0.7430
 22
1.7540
 13
0.7810
 23
1.7540
 0
SOLID
  8
AST
 10
0.7430
 20
1.6660
 11
0.7810
 21
1.6660
 12
0.7430
 22
1.6980
 13
0.7810
 23
1.6980
 0
SOLID
  8
AST
 10
0.8440
 20
1.7210
 11
0.8820
 21
1.7210
 12
0.8440
 22
1.7530
 13
0.8820
 23
1.7530
 0
SOLID
  8
AST
 10
0.8440
 20
1.6650
 11
0.8820
 21
1.6650
 12
0.8440
 22
1.6970
 13
0.8820
 23
1.6970
 0
SOLID
  8
AST
 10
0.9430
 20
1.7210
 11
0.9810
 21
1.7210
 12
0.9430
 22
1.7530
 13
0.9810
 23
1.7530
 0
SOLID
  8
AST
 10
0.9430
 20
1.6650
 11
0.9810
 21
1.6650
 12
0.9430
 22
1.6970
 13
0.9810
 23
1.6970
 0
SOLID
  8
AST
 10
1.9770
 20
0.8270
 11
2.0090
 21
0.8270
 12
1.9770
 22
0.8650
 13
2.0090
 23
0.8650
 0
SOLID
  8
AST
 10
2.0330
 20
0.8270
 11
2.0650
 21
0.8270
 12
2.0330
 22
0.8650
 13
2.0650
 23
0.8650
 0
SOLID
  8
AST
 10
0.4150
 20
1.5630
 11
0.4470
 21
1.5630
 12
0.4150
 22
1.6010
 13
0.4470
 23
1.6010
 0
SOLID
  8
AST
 10
0.3590
 20
1.5630
 11
0.3910
 21
1.5630
 12
0.3590
 22
1.6010
 13
0.3910
 23
1.6010
 0
SOLID
  8
AST
 10
2.2720
 20
0.6340
 11
2.3100
 21
0.6340
 12
2.2720
 22
0.6660
 13
2.3100
 23
0.6660
 0
SOLID
  8
AST
 10
2.2720
 20
0.5780
 11
2.3100
 21
0.5780
 12
2.2720
 22
0.6100
 13
2.3100
 23
0.6100
 0
SOLID
  8
AST
 10
2.3430
 20
0.6340
 11
2.3810
 21
0.6340
 12
2.3430
 22
0.6660
 13
2.3810
 23
0.6660
 0
SOLID
  8
AST
 10
2.3430
 20
0.5780
 11
2.3810
 21
0.5780
 12
2.3430
 22
0.6100
 13
2.3810
 23
0.6100
  0
POLYLINE
  8
AST
 66
      1
 70
1
 40
0.0590
 41
0.0590
  0
VERTEX
  8
AST
 10
0.2180
 20
1.1650
 30
 0.0
 42
1.0
  0
VERTEX
  8
AST
 10
0.2760
 20
1.1650
 30
 0.0
 42
1.0
  0
SEQEND
  8
AST
  0
POLYLINE
  8
AST
 66
      1
 70
1
 40
0.0590
 41
0.0590
  0
VERTEX
  8
AST
 10
0.2180
 20
0.9680
 30
 0.0
 42
1.0
  0
VERTEX
  8
AST
 10
0.2760
 20
0.9680
 30
 0.0
 42
1.0
  0
SEQEND
  8
AST
 0
SOLID
  8
AST
 10
0.4670
 20
0.4980
 11
0.5610
 21
0.4980
 12
0.4670
 22
0.5220
 13
0.5610
 23
0.5220
 0
SOLID
  8
AST
 10
0.4670
 20
0.5480
 11
0.5610
 21
0.5480
 12
0.4670
 22
0.5720
 13
0.5610
 23
0.5720
 0
SOLID
  8
AST
 10
0.4670
 20
0.5980
 11
0.5610
 21
0.5980
 12
0.4670
 22
0.6220
 13
0.5610
 23
0.6220
 0
SOLID
  8
AST
 10
0.4670
 20
0.6480
 11
0.5610
 21
0.6480
 12
0.4670
 22
0.6720
 13
0.5610
 23
0.6720
 0
SOLID
  8
AST
 10
0.4670
 20
0.6980
 11
0.5610
 21
0.6980
 12
0.4670
 22
0.7220
 13
0.5610
 23
0.7220
 0
SOLID
  8
AST
 10
0.4670
 20
0.7480
 11
0.5610
 21
0.7480
 12
0.4670
 22
0.7720
 13
0.5610
 23
0.7720
 0
SOLID
  8
AST
 10
0.4670
 20
0.7980
 11
0.5610
 21
0.7980
 12
0.4670
 22
0.8220
 13
0.5610
 23
0.8220
 0
SOLID
  8
AST
 10
0.4670
 20
0.8480
 11
0.5610
 21
0.8480
 12
0.4670
 22
0.8720
 13
0.5610
 23
0.8720
 0
SOLID
  8
AST
 10
0.6630
 20
0.8480
 11
0.7570
 21
0.8480
 12
0.6630
 22
0.8720
 13
0.7570
 23
0.8720
 0
SOLID
  8
AST
 10
0.6630
 20
0.7980
 11
0.7570
 21
0.7980
 12
0.6630
 22
0.8220
 13
0.7570
 23
0.8220
 0
SOLID
  8
AST
 10
0.6630
 20
0.7480
 11
0.7570
 21
0.7480
 12
0.6630
 22
0.7720
 13
0.7570
 23
0.7720
 0
SOLID
  8
AST
 10
0.6630
 20
0.6980
 11
0.7570
 21
0.6980
 12
0.6630
 22
0.7220
 13
0.7570
 23
0.7220
 0
SOLID
  8
AST
 10
0.6630
 20
0.6480
 11
0.7570
 21
0.6480
 12
0.6630
 22
0.6720
 13
0.7570
 23
0.6720
 0
SOLID
  8
AST
 10
0.6630
 20
0.5980
 11
0.7570
 21
0.5980
 12
0.6630
 22
0.6220
 13
0.7570
 23
0.6220
 0
SOLID
  8
AST
 10
0.6630
 20
0.5480
 11
0.7570
 21
0.5480
 12
0.6630
 22
0.5720
 13
0.7570
 23
0.5720
 0
SOLID
  8
AST
 10
0.6630
 20
0.4980
 11
0.7570
 21
0.4980
 12
0.6630
 22
0.5220
 13
0.7570
 23
0.5220
 0
SOLID
  8
AST
 10
1.7950
 20
0.8080
 11
1.8110
 21
0.8080
 12
1.7950
 22
0.8580
 13
1.8110
 23
0.8580
 0
SOLID
  8
AST
 10
1.7690
 20
0.8080
 11
1.7850
 21
0.8080
 12
1.7690
 22
0.8580
 13
1.7850
 23
0.8580
 0
SOLID
  8
AST
 10
1.7440
 20
0.8080
 11
1.7600
 21
0.8080
 12
1.7440
 22
0.8580
 13
1.7600
 23
0.8580
 0
SOLID
  8
AST
 10
1.7180
 20
0.8080
 11
1.7340
 21
0.8080
 12
1.7180
 22
0.8580
 13
1.7340
 23
0.8580
 0
SOLID
  8
AST
 10
1.6920
 20
0.8080
 11
1.7080
 21
0.8080
 12
1.6920
 22
0.8580
 13
1.7080
 23
0.8580
 0
SOLID
  8
AST
 10
1.6670
 20
0.8080
 11
1.6830
 21
0.8080
 12
1.6670
 22
0.8580
 13
1.6830
 23
0.8580
 0
SOLID
  8
AST
 10
1.6410
 20
0.8080
 11
1.6570
 21
0.8080
 12
1.6410
 22
0.8580
 13
1.6570
 23
0.8580
 0
SOLID
  8
AST
 10
1.6160
 20
0.8080
 11
1.6320
 21
0.8080
 12
1.6160
 22
0.8580
 13
1.6320
 23
0.8580
 0
SOLID
  8
AST
 10
1.6160
 20
1.0220
 11
1.6320
 21
1.0220
 12
1.6160
 22
1.0720
 13
1.6320
 23
1.0720
 0
SOLID
  8
AST
 10
1.6410
 20
1.0220
 11
1.6570
 21
1.0220
 12
1.6410
 22
1.0720
 13
1.6570
 23
1.0720
 0
SOLID
  8
AST
 10
1.6670
 20
1.0220
 11
1.6830
 21
1.0220
 12
1.6670
 22
1.0720
 13
1.6830
 23
1.0720
 0
SOLID
  8
AST
 10
1.6920
 20
1.0220
 11
1.7080
 21
1.0220
 12
1.6920
 22
1.0720
 13
1.7080
 23
1.0720
 0
SOLID
  8
AST
 10
1.7180
 20
1.0220
 11
1.7340
 21
1.0220
 12
1.7180
 22
1.0720
 13
1.7340
 23
1.0720
 0
SOLID
  8
AST
 10
1.7440
 20
1.0220
 11
1.7600
 21
1.0220
 12
1.7440
 22
1.0720
 13
1.7600
 23
1.0720
 0
SOLID
  8
AST
 10
1.7690
 20
1.0220
 11
1.7850
 21
1.0220
 12
1.7690
 22
1.0720
 13
1.7850
 23
1.0720
 0
SOLID
  8
AST
 10
1.7950
 20
1.0220
 11
1.8110
 21
1.0220
 12
1.7950
 22
1.0720
 13
1.8110
 23
1.0720
 0
SOLID
  8
AST
 10
0.7380
 20
1.2130
 11
0.8260
 21
1.2130
 12
0.7380
 22
1.3550
 13
0.8260
 23
1.3550
 0
SOLID
  8
AST
 10
0.4940
 20
1.1700
 11
0.5820
 21
1.1700
 12
0.4940
 22
1.2180
 13
0.5820
 23
1.2180
 0
SOLID
  8
AST
 10
0.4940
 20
1.2600
 11
0.5820
 21
1.2600
 12
0.4940
 22
1.3080
 13
0.5820
 23
1.3080
 0
SOLID
  8
AST
 10
0.4940
 20
1.3500
 11
0.5820
 21
1.3500
 12
0.4940
 22
1.3980
 13
0.5820
 23
1.3980
  0
POLYLINE
  8
AST
 66
      1
 70
0
 40
0.0080
 41
0.0080
  0
VERTEX
  8
AST
 10
1.8130
 20
1.0170
 30
 0.0
  0
VERTEX
  8
AST
 10
1.8130
 20
0.8670
 30
 0.0
  0
SEQEND
  8
AST
  0
POLYLINE
  8
AST
 66
      1
 70
1
 40
0.0040
 41
0.0040
  0
VERTEX
  8
AST
 10
1.8110
 20
1.0170
 30
 0.0
 42
1.0
  0
VERTEX
  8
AST
 10
1.8150
 20
1.0170
 30
 0.0
 42
1.0
  0
SEQEND
  8
AST
  0
POLYLINE
  8
AST
 66
      1
 70
1
 40
0.0040
 41
0.0040
  0
VERTEX
  8
AST
 10
1.8110
 20
0.8670
 30
 0.0
 42
1.0
  0
VERTEX
  8
AST
 10
1.8150
 20
0.8670
 30
 0.0
 42
1.0
  0
SEQEND
  8
AST
  0
POLYLINE
  8
AST
 66
      1
 70
1
 40
0.0080
 41
0.0080
  0
VERTEX
  8
AST
 10
1.5880
 20
0.8670
 30
 0.0
  0
VERTEX
  8
AST
 10
1.5880
 20
1.0170
 30
 0.0
  0
VERTEX
  8
AST
 10
1.5880
 20
1.0170
 30
 0.0
  0
VERTEX
  8
AST
 10
1.8380
 20
1.0170
 30
 0.0
  0
VERTEX
  8
AST
 10
1.8380
 20
0.8670
 30
 0.0
  0
VERTEX
  8
AST
 10
1.5880
 20
0.8670
 30
 0.0
  0
SEQEND
  8
AST
  0
POLYLINE
  8
AST
 66
      1
 70
1
 40
0.0040
 41
0.0040
  0
VERTEX
  8
AST
 10
1.5860
 20
0.8670
 30
 0.0
 42
1.0
  0
VERTEX
  8
AST
 10
1.5900
 20
0.8670
 30
 0.0
 42
1.0
  0
SEQEND
  8
AST
  0
POLYLINE
  8
AST
 66
      1
 70
1
 40
0.0040
 41
0.0040
  0
VERTEX
  8
AST
 10
1.5860
 20
1.0170
 30
 0.0
 42
1.0
  0
VERTEX
  8
AST
 10
1.5900
 20
1.0170
 30
 0.0
 42
1.0
  0
SEQEND
  8
AST
  0
POLYLINE
  8
AST
 66
      1
 70
1
 40
0.0040
 41
0.0040
  0
VERTEX
  8
AST
 10
1.5860
 20
1.0170
 30
 0.0
 42
1.0
  0
VERTEX
  8
AST
 10
1.5900
 20
1.0170
 30
 0.0
 42
1.0
  0
SEQEND
  8
AST
  0
POLYLINE
  8
AST
 66
      1
 70
1
 40
0.0040
 41
0.0040
  0
VERTEX
  8
AST
 10
1.8360
 20
1.0170
 30
 0.0
 42
1.0
  0
VERTEX
  8
AST
 10
1.8400
 20
1.0170
 30
 0.0
 42
1.0
  0
SEQEND
  8
AST
  0
POLYLINE
  8
AST
 66
      1
 70
1
 40
0.0040
 41
0.0040
  0
VERTEX
  8
AST
 10
1.8360
 20
0.8670
 30
 0.0
 42
1.0
  0
VERTEX
  8
AST
 10
1.8400
 20
0.8670
 30
 0.0
 42
1.0
  0
SEQEND
  8
AST
  0
POLYLINE
  8
AST
 66
      1
 70
1
 40
0.0040
 41
0.0040
  0
VERTEX
  8
AST
 10
1.5860
 20
0.8670
 30
 0.0
 42
1.0
  0
VERTEX
  8
AST
 10
1.5900
 20
0.8670
 30
 0.0
 42
1.0
  0
SEQEND
  8
AST
  0
POLYLINE
  8
AST
 66
      1
 70
0
 40
0.0040
 41
0.0040
  0
VERTEX
  8
AST
 10
2.5860
 20
0.3330
 30
 0.0
  0
VERTEX
  8
AST
 10
2.5860
 20
1.8300
 30
 0.0
  0
SEQEND
  8
AST
  0
POLYLINE
  8
AST
 66
      1
 70
1
 40
0.0020
 41
0.0020
  0
VERTEX
  8
AST
 10
2.5850
 20
0.3330
 30
 0.0
 42
1.0
  0
VERTEX
  8
AST
 10
2.5870
 20
0.3330
 30
 0.0
 42
1.0
  0
SEQEND
  8
AST
  0
POLYLINE
  8
AST
 66
      1
 70
1
 40
0.0020
 41
0.0020
  0
VERTEX
  8
AST
 10
2.5850
 20
1.8300
 30
 0.0
 42
1.0
  0
VERTEX
  8
AST
 10
2.5870
 20
1.8300
 30
 0.0
 42
1.0
  0
SEQEND
  8
AST
  0
POLYLINE
  8
AST
 66
      1
 70
0
 40
0.0040
 41
0.0040
  0
VERTEX
  8
AST
 10
0.0080
 20
1.8290
 30
 0.0
  0
VERTEX
  8
AST
 10
0.0080
 20
1.8400
 30
 0.0
  0
VERTEX
  8
AST
 10
0.0090
 20
1.8490
 30
 0.0
  0
VERTEX
  8
AST
 10
0.0110
 20
1.8590
 30
 0.0
  0
VERTEX
  8
AST
 10
0.0120
 20
1.8650
 30
 0.0
  0
VERTEX
  8
AST
 10
0.0140
 20
1.8720
 30
 0.0
  0
VERTEX
  8
AST
 10
0.0160
 20
1.8790
 30
 0.0
  0
VERTEX
  8
AST
 10
0.0200
 20
1.8880
 30
 0.0
  0
VERTEX
  8
AST
 10
0.0220
 20
1.8920
 30
 0.0
  0
VERTEX
  8
AST
 10
0.0250
 20
1.8990
 30
 0.0
  0
VERTEX
  8
AST
 10
0.0280
 20
1.9040
 30
 0.0
  0
VERTEX
  8
AST
 10
0.0320
 20
1.9110
 30
 0.0
  0
VERTEX
  8
AST
 10
0.0360
 20
1.9160
 30
 0.0
  0
VERTEX
  8
AST
 10
0.0410
 20
1.9230
 30
 0.0
  0
VERTEX
  8
AST
 10
0.0460
 20
1.9290
 30
 0.0
  0
VERTEX
  8
AST
 10
0.0520
 20
1.9350
 30
 0.0
  0
VERTEX
  8
AST
 10
0.0590
 20
1.9420
 30
 0.0
  0
VERTEX
  8
AST
 10
0.0700
 20
1.9500
 30
 0.0
  0
VERTEX
  8
AST
 10
0.0810
 20
1.9570
 30
 0.0
  0
VERTEX
  8
AST
 10
0.0900
 20
1.9620
 30
 0.0
  0
VERTEX
  8
AST
 10
0.1040
 20
1.9680
 30
 0.0
  0
VERTEX
  8
AST
 10
0.1180
 20
1.9720
 30
 0.0
  0
VERTEX
  8
AST
 10
0.1320
 20
1.9750
 30
 0.0
  0
VERTEX
  8
AST
 10
0.1430
 20
1.9760
 30
 0.0
  0
VERTEX
  8
AST
 10
0.1550
 20
1.9770
 30
 0.0
 42
-2.178846316433124
  0
SEQEND
  8
AST
  0
POLYLINE
  8
AST
 66
      1
 70
1
 40
0.0020
 41
0.0020
  0
VERTEX
  8
AST
 10
0.0070
 20
1.8290
 30
 0.0
 42
1.0
  0
VERTEX
  8
AST
 10
0.0090
 20
1.8290
 30
 0.0
 42
1.0
  0
SEQEND
  8
AST
  0
POLYLINE
  8
AST
 66
      1
 70
1
 40
0.0020
 41
0.0020
  0
VERTEX
  8
AST
 10
0.0070
 20
1.8400
 30
 0.0
 42
1.0
  0
VERTEX
  8
AST
 10
0.0090
 20
1.8400
 30
 0.0
 42
1.0
  0
SEQEND
  8
AST
  0
POLYLINE
  8
AST
 66
      1
 70
1
 40
0.0020
 41
0.0020
  0
VERTEX
  8
AST
 10
0.0080
 20
1.8490
 30
 0.0
 42
1.0
  0
VERTEX
  8
AST
 10
0.0100
 20
1.8490
 30
 0.0
 42
1.0
  0
SEQEND
  8
AST
  0
POLYLINE
  8
AST
 66
      1
 70
1
 40
0.0020
 41
0.0020
  0
VERTEX
  8
AST
 10
0.0100
 20
1.8590
 30
 0.0
 42
1.0
  0
VERTEX
  8
AST
 10
0.0120
 20
1.8590
 30
 0.0
 42
1.0
  0
SEQEND
  8
AST
  0
POLYLINE
  8
AST
 66
      1
 70
1
 40
0.0020
 41
0.0020
  0
VERTEX
  8
AST
 10
0.0110
 20
1.8650
 30
 0.0
 42
1.0
  0
VERTEX
  8
AST
 10
0.0130
 20
1.8650
 30
 0.0
 42
1.0
  0
SEQEND
  8
AST
  0
POLYLINE
  8
AST
 66
      1
 70
1
 40
0.0020
 41
0.0020
  0
VERTEX
  8
AST
 10
0.0130
 20
1.8720
 30
 0.0
 42
1.0
  0
VERTEX
  8
AST
 10
0.0150
 20
1.8720
 30
 0.0
 42
1.0
  0
SEQEND
  8
AST
  0
POLYLINE
  8
AST
 66
      1
 70
1
 40
0.0020
 41
0.0020
  0
VERTEX
  8
AST
 10
0.0150
 20
1.8790
 30
 0.0
 42
1.0
  0
VERTEX
  8
AST
 10
0.0170
 20
1.8790
 30
 0.0
 42
1.0
  0
SEQEND
  8
AST
  0
POLYLINE
  8
AST
 66
      1
 70
1
 40
0.0020
 41
0.0020
  0
VERTEX
  8
AST
 10
0.0190
 20
1.8880
 30
 0.0
 42
1.0
  0
VERTEX
  8
AST
 10
0.0210
 20
1.8880
 30
 0.0
 42
1.0
  0
SEQEND
  8
AST
  0
POLYLINE
  8
AST
 66
      1
 70
1
 40
0.0020
 41
0.0020
  0
VERTEX
  8
AST
 10
0.0210
 20
1.8920
 30
 0.0
 42
1.0
  0
VERTEX
  8
AST
 10
0.0230
 20
1.8920
 30
 0.0
 42
1.0
  0
SEQEND
  8
AST
  0
POLYLINE
  8
AST
 66
      1
 70
1
 40
0.0020
 41
0.0020
  0
VERTEX
  8
AST
 10
0.0240
 20
1.8990
 30
 0.0
 42
1.0
  0
VERTEX
  8
AST
 10
0.0260
 20
1.8990
 30
 0.0
 42
1.0
  0
SEQEND
  8
AST
  0
POLYLINE
  8
AST
 66
      1
 70
1
 40
0.0020
 41
0.0020
  0
VERTEX
  8
AST
 10
0.0270
 20
1.9040
 30
 0.0
 42
1.0
  0
VERTEX
  8
AST
 10
0.0290
 20
1.9040
 30
 0.0
 42
1.0
  0
SEQEND
  8
AST
  0
POLYLINE
  8
AST
 66
      1
 70
1
 40
0.0020
 41
0.0020
  0
VERTEX
  8
AST
 10
0.0310
 20
1.9110
 30
 0.0
 42
1.0
  0
VERTEX
  8
AST
 10
0.0330
 20
1.9110
 30
 0.0
 42
1.0
  0
SEQEND
  8
AST
  0
POLYLINE
  8
AST
 66
      1
 70
1
 40
0.0020
 41
0.0020
  0
VERTEX
  8
AST
 10
0.0350
 20
1.9160
 30
 0.0
 42
1.0
  0
VERTEX
  8
AST
 10
0.0370
 20
1.9160
 30
 0.0
 42
1.0
  0
SEQEND
  8
AST
  0
POLYLINE
  8
AST
 66
      1
 70
1
 40
0.0020
 41
0.0020
  0
VERTEX
  8
AST
 10
0.0400
 20
1.9230
 30
 0.0
 42
1.0
  0
VERTEX
  8
AST
 10
0.0420
 20
1.9230
 30
 0.0
 42
1.0
  0
SEQEND
  8
AST
  0
POLYLINE
  8
AST
 66
      1
 70
1
 40
0.0020
 41
0.0020
  0
VERTEX
  8
AST
 10
0.0450
 20
1.9290
 30
 0.0
 42
1.0
  0
VERTEX
  8
AST
 10
0.0470
 20
1.9290
 30
 0.0
 42
1.0
  0
SEQEND
  8
AST
  0
POLYLINE
  8
AST
 66
      1
 70
1
 40
0.0020
 41
0.0020
  0
VERTEX
  8
AST
 10
0.0510
 20
1.9350
 30
 0.0
 42
1.0
  0
VERTEX
  8
AST
 10
0.0530
 20
1.9350
 30
 0.0
 42
1.0
  0
SEQEND
  8
AST
  0
POLYLINE
  8
AST
 66
      1
 70
1
 40
0.0020
 41
0.0020
  0
VERTEX
  8
AST
 10
0.0580
 20
1.9420
 30
 0.0
 42
1.0
  0
VERTEX
  8
AST
 10
0.0600
 20
1.9420
 30
 0.0
 42
1.0
  0
SEQEND
  8
AST
  0
POLYLINE
  8
AST
 66
      1
 70
1
 40
0.0020
 41
0.0020
  0
VERTEX
  8
AST
 10
0.0690
 20
1.9500
 30
 0.0
 42
1.0
  0
VERTEX
  8
AST
 10
0.0710
 20
1.9500
 30
 0.0
 42
1.0
  0
SEQEND
  8
AST
  0
POLYLINE
  8
AST
 66
      1
 70
1
 40
0.0020
 41
0.0020
  0
VERTEX
  8
AST
 10
0.0800
 20
1.9570
 30
 0.0
 42
1.0
  0
VERTEX
  8
AST
 10
0.0820
 20
1.9570
 30
 0.0
 42
1.0
  0
SEQEND
  8
AST
  0
POLYLINE
  8
AST
 66
      1
 70
1
 40
0.0020
 41
0.0020
  0
VERTEX
  8
AST
 10
0.0890
 20
1.9620
 30
 0.0
 42
1.0
  0
VERTEX
  8
AST
 10
0.0910
 20
1.9620
 30
 0.0
 42
1.0
  0
SEQEND
  8
AST
  0
POLYLINE
  8
AST
 66
      1
 70
1
 40
0.0020
 41
0.0020
  0
VERTEX
  8
AST
 10
0.1030
 20
1.9680
 30
 0.0
 42
1.0
  0
VERTEX
  8
AST
 10
0.1050
 20
1.9680
 30
 0.0
 42
1.0
  0
SEQEND
  8
AST
  0
POLYLINE
  8
AST
 66
      1
 70
1
 40
0.0020
 41
0.0020
  0
VERTEX
  8
AST
 10
0.1170
 20
1.9720
 30
 0.0
 42
1.0
  0
VERTEX
  8
AST
 10
0.1190
 20
1.9720
 30
 0.0
 42
1.0
  0
SEQEND
  8
AST
  0
POLYLINE
  8
AST
 66
      1
 70
1
 40
0.0020
 41
0.0020
  0
VERTEX
  8
AST
 10
0.1310
 20
1.9750
 30
 0.0
 42
1.0
  0
VERTEX
  8
AST
 10
0.1330
 20
1.9750
 30
 0.0
 42
1.0
  0
SEQEND
  8
AST
  0
POLYLINE
  8
AST
 66
      1
 70
1
 40
0.0020
 41
0.0020
  0
VERTEX
  8
AST
 10
0.1420
 20
1.9760
 30
 0.0
 42
1.0
  0
VERTEX
  8
AST
 10
0.1440
 20
1.9760
 30
 0.0
 42
1.0
  0
SEQEND
  8
AST
  0
POLYLINE
  8
AST
 66
      1
 70
1
 40
0.0020
 41
0.0020
  0
VERTEX
  8
AST
 10
0.1540
 20
1.9770
 30
 0.0
 42
1.0
  0
VERTEX
  8
AST
 10
0.1560
 20
1.9770
 30
 0.0
 42
1.0
  0
SEQEND
  8
AST
  0
POLYLINE
  8
AST
 66
      1
 70
0
 40
0.0040
 41
0.0040
  0
VERTEX
  8
AST
 10
0.0070
 20
0.3330
 30
 0.0
  0
VERTEX
  8
AST
 10
0.0070
 20
1.8290
 30
 0.0
  0
SEQEND
  8
AST
  0
POLYLINE
  8
AST
 66
      1
 70
1
 40
0.0020
 41
0.0020
  0
VERTEX
  8
AST
 10
0.0060
 20
0.3330
 30
 0.0
 42
1.0
  0
VERTEX
  8
AST
 10
0.0080
 20
0.3330
 30
 0.0
 42
1.0
  0
SEQEND
  8
AST
  0
POLYLINE
  8
AST
 66
      1
 70
1
 40
0.0020
 41
0.0020
  0
VERTEX
  8
AST
 10
0.0060
 20
1.8290
 30
 0.0
 42
1.0
  0
VERTEX
  8
AST
 10
0.0080
 20
1.8290
 30
 0.0
 42
1.0
  0
SEQEND
  8
AST
  0
POLYLINE
  8
AST
 66
      1
 70
1
 40
0.0060
 41
0.0060
  0
VERTEX
  8
AST
 10
0.3830
 20
0.5940
 30
 0.0
  0
VERTEX
  8
AST
 10
0.4470
 20
0.5940
 30
 0.0
  0
VERTEX
  8
AST
 10
0.4470
 20
0.4790
 30
 0.0
  0
VERTEX
  8
AST
 10
0.3830
 20
0.4790
 30
 0.0
  0
VERTEX
  8
AST
 10
0.3830
 20
0.5940
 30
 0.0
  0
SEQEND
  8
AST
  0
POLYLINE
  8
AST
 66
      1
 70
1
 40
0.0030
 41
0.0030
  0
VERTEX
  8
AST
 10
0.3815
 20
0.5940
 30
 0.0
 42
1.0
  0
VERTEX
  8
AST
 10
0.3845
 20
0.5940
 30
 0.0
 42
1.0
  0
SEQEND
  8
AST
  0
POLYLINE
  8
AST
 66
      1
 70
1
 40
0.0030
 41
0.0030
  0
VERTEX
  8
AST
 10
0.4455
 20
0.5940
 30
 0.0
 42
1.0
  0
VERTEX
  8
AST
 10
0.4485
 20
0.5940
 30
 0.0
 42
1.0
  0
SEQEND
  8
AST
  0
POLYLINE
  8
AST
 66
      1
 70
1
 40
0.0030
 41
0.0030
  0
VERTEX
  8
AST
 10
0.4455
 20
0.4790
 30
 0.0
 42
1.0
  0
VERTEX
  8
AST
 10
0.4485
 20
0.4790
 30
 0.0
 42
1.0
  0
SEQEND
  8
AST
  0
POLYLINE
  8
AST
 66
      1
 70
1
 40
0.0030
 41
0.0030
  0
VERTEX
  8
AST
 10
0.3815
 20
0.4790
 30
 0.0
 42
1.0
  0
VERTEX
  8
AST
 10
0.3845
 20
0.4790
 30
 0.0
 42
1.0
  0
SEQEND
  8
AST
  0
POLYLINE
  8
AST
 66
      1
 70
1
 40
0.0030
 41
0.0030
  0
VERTEX
  8
AST
 10
0.3815
 20
0.5940
 30
 0.0
 42
1.0
  0
VERTEX
  8
AST
 10
0.3845
 20
0.5940
 30
 0.0
 42
1.0
  0
SEQEND
  8
AST
  0
POLYLINE
  8
AST
 66
      1
 70
1
 40
0.0060
 41
0.0060
  0
VERTEX
  8
AST
 10
2.3950
 20
0.5640
 30
 0.0
  0
VERTEX
  8
AST
 10
2.3300
 20
0.5640
 30
 0.0
  0
VERTEX
  8
AST
 10
2.3300
 20
0.6790
 30
 0.0
  0
VERTEX
  8
AST
 10
2.3950
 20
0.6790
 30
 0.0
  0
VERTEX
  8
AST
 10
2.3950
 20
0.5640
 30
 0.0
  0
SEQEND
  8
AST
  0
POLYLINE
  8
AST
 66
      1
 70
1
 40
0.0030
 41
0.0030
  0
VERTEX
  8
AST
 10
2.3935
 20
0.5640
 30
 0.0
 42
1.0
  0
VERTEX
  8
AST
 10
2.3965
 20
0.5640
 30
 0.0
 42
1.0
  0
SEQEND
  8
AST
  0
POLYLINE
  8
AST
 66
      1
 70
1
 40
0.0030
 41
0.0030
  0
VERTEX
  8
AST
 10
2.3285
 20
0.5640
 30
 0.0
 42
1.0
  0
VERTEX
  8
AST
 10
2.3315
 20
0.5640
 30
 0.0
 42
1.0
  0
SEQEND
  8
AST
  0
POLYLINE
  8
AST
 66
      1
 70
1
 40
0.0030
 41
0.0030
  0
VERTEX
  8
AST
 10
2.3285
 20
0.6790
 30
 0.0
 42
1.0
  0
VERTEX
  8
AST
 10
2.3315
 20
0.6790
 30
 0.0
 42
1.0
  0
SEQEND
  8
AST
  0
POLYLINE
  8
AST
 66
      1
 70
1
 40
0.0030
 41
0.0030
  0
VERTEX
  8
AST
 10
2.3935
 20
0.6790
 30
 0.0
 42
1.0
  0
VERTEX
  8
AST
 10
2.3965
 20
0.6790
 30
 0.0
 42
1.0
  0
SEQEND
  8
AST
  0
POLYLINE
  8
AST
 66
      1
 70
1
 40
0.0030
 41
0.0030
  0
VERTEX
  8
AST
 10
2.3935
 20
0.5640
 30
 0.0
 42
1.0
  0
VERTEX
  8
AST
 10
2.3965
 20
0.5640
 30
 0.0
 42
1.0
  0
SEQEND
  8
AST
  0
POLYLINE
  8
AST
 66
      1
 70
1
 40
0.0060
 41
0.0060
  0
VERTEX
  8
AST
 10
2.3850
 20
1.0910
 30
 0.0
  0
VERTEX
  8
AST
 10
2.3210
 20
1.0910
 30
 0.0
  0
VERTEX
  8
AST
 10
2.3210
 20
1.2060
 30
 0.0
  0
VERTEX
  8
AST
 10
2.3850
 20
1.2060
 30
 0.0
  0
VERTEX
  8
AST
 10
2.3850
 20
1.0910
 30
 0.0
  0
SEQEND
  8
AST
  0
POLYLINE
  8
AST
 66
      1
 70
1
 40
0.0030
 41
0.0030
  0
VERTEX
  8
AST
 10
2.3835
 20
1.0910
 30
 0.0
 42
1.0
  0
VERTEX
  8
AST
 10
2.3865
 20
1.0910
 30
 0.0
 42
1.0
  0
SEQEND
  8
AST
  0
POLYLINE
  8
AST
 66
      1
 70
1
 40
0.0030
 41
0.0030
  0
VERTEX
  8
AST
 10
2.3195
 20
1.0910
 30
 0.0
 42
1.0
  0
VERTEX
  8
AST
 10
2.3225
 20
1.0910
 30
 0.0
 42
1.0
  0
SEQEND
  8
AST
  0
POLYLINE
  8
AST
 66
      1
 70
1
 40
0.0030
 41
0.0030
  0
VERTEX
  8
AST
 10
2.3195
 20
1.2060
 30
 0.0
 42
1.0
  0
VERTEX
  8
AST
 10
2.3225
 20
1.2060
 30
 0.0
 42
1.0
  0
SEQEND
  8
AST
  0
POLYLINE
  8
AST
 66
      1
 70
1
 40
0.0030
 41
0.0030
  0
VERTEX
  8
AST
 10
2.3835
 20
1.2060
 30
 0.0
 42
1.0
  0
VERTEX
  8
AST
 10
2.3865
 20
1.2060
 30
 0.0
 42
1.0
  0
SEQEND
  8
AST
  0
POLYLINE
  8
AST
 66
      1
 70
1
 40
0.0030
 41
0.0030
  0
VERTEX
  8
AST
 10
2.3835
 20
1.0910
 30
 0.0
 42
1.0
  0
VERTEX
  8
AST
 10
2.3865
 20
1.0910
 30
 0.0
 42
1.0
  0
SEQEND
  8
AST
  0
POLYLINE
  8
AST
 66
      1
 70
1
 40
0.0060
 41
0.0060
  0
VERTEX
  8
AST
 10
0.4830
 20
1.5500
 30
 0.0
  0
VERTEX
  8
AST
 10
0.4830
 20
1.6140
 30
 0.0
  0
VERTEX
  8
AST
 10
0.5980
 20
1.6140
 30
 0.0
  0
VERTEX
  8
AST
 10
0.5980
 20
1.5500
 30
 0.0
  0
VERTEX
  8
AST
 10
0.4830
 20
1.5500
 30
 0.0
  0
SEQEND
  8
AST
  0
POLYLINE
  8
AST
 66
      1
 70
1
 40
0.0030
 41
0.0030
  0
VERTEX
  8
AST
 10
0.4815
 20
1.5500
 30
 0.0
 42
1.0
  0
VERTEX
  8
AST
 10
0.4845
 20
1.5500
 30
 0.0
 42
1.0
  0
SEQEND
  8
AST
  0
POLYLINE
  8
AST
 66
      1
 70
1
 40
0.0030
 41
0.0030
  0
VERTEX
  8
AST
 10
0.4815
 20
1.6140
 30
 0.0
 42
1.0
  0
VERTEX
  8
AST
 10
0.4845
 20
1.6140
 30
 0.0
 42
1.0
  0
SEQEND
  8
AST
  0
POLYLINE
  8
AST
 66
      1
 70
1
 40
0.0030
 41
0.0030
  0
VERTEX
  8
AST
 10
0.5965
 20
1.6140
 30
 0.0
 42
1.0
  0
VERTEX
  8
AST
 10
0.5995
 20
1.6140
 30
 0.0
 42
1.0
  0
SEQEND
  8
AST
  0
POLYLINE
  8
AST
 66
      1
 70
1
 40
0.0030
 41
0.0030
  0
VERTEX
  8
AST
 10
0.5965
 20
1.5500
 30
 0.0
 42
1.0
  0
VERTEX
  8
AST
 10
0.5995
 20
1.5500
 30
 0.0
 42
1.0
  0
SEQEND
  8
AST
  0
POLYLINE
  8
AST
 66
      1
 70
1
 40
0.0030
 41
0.0030
  0
VERTEX
  8
AST
 10
0.4815
 20
1.5500
 30
 0.0
 42
1.0
  0
VERTEX
  8
AST
 10
0.4845
 20
1.5500
 30
 0.0
 42
1.0
  0
SEQEND
  8
AST
  0
POLYLINE
  8
AST
 66
      1
 70
1
 40
0.0060
 41
0.0060
  0
VERTEX
  8
AST
 10
1.9300
 20
1.0330
 30
 0.0
  0
VERTEX
  8
AST
 10
1.8650
 20
1.0330
 30
 0.0
  0
VERTEX
  8
AST
 10
1.8650
 20
1.1480
 30
 0.0
  0
VERTEX
  8
AST
 10
1.9300
 20
1.1480
 30
 0.0
  0
VERTEX
  8
AST
 10
1.9300
 20
1.0330
 30
 0.0
  0
SEQEND
  8
AST
  0
POLYLINE
  8
AST
 66
      1
 70
1
 40
0.0030
 41
0.0030
  0
VERTEX
  8
AST
 10
1.9285
 20
1.0330
 30
 0.0
 42
1.0
  0
VERTEX
  8
AST
 10
1.9315
 20
1.0330
 30
 0.0
 42
1.0
  0
SEQEND
  8
AST
  0
POLYLINE
  8
AST
 66
      1
 70
1
 40
0.0030
 41
0.0030
  0
VERTEX
  8
AST
 10
1.8635
 20
1.0330
 30
 0.0
 42
1.0
  0
VERTEX
  8
AST
 10
1.8665
 20
1.0330
 30
 0.0
 42
1.0
  0
SEQEND
  8
AST
  0
POLYLINE
  8
AST
 66
      1
 70
1
 40
0.0030
 41
0.0030
  0
VERTEX
  8
AST
 10
1.8635
 20
1.1480
 30
 0.0
 42
1.0
  0
VERTEX
  8
AST
 10
1.8665
 20
1.1480
 30
 0.0
 42
1.0
  0
SEQEND
  8
AST
  0
POLYLINE
  8
AST
 66
      1
 70
1
 40
0.0030
 41
0.0030
  0
VERTEX
  8
AST
 10
1.9285
 20
1.1480
 30
 0.0
 42
1.0
  0
VERTEX
  8
AST
 10
1.9315
 20
1.1480
 30
 0.0
 42
1.0
  0
SEQEND
  8
AST
  0
POLYLINE
  8
AST
 66
      1
 70
1
 40
0.0030
 41
0.0030
  0
VERTEX
  8
AST
 10
1.9285
 20
1.0330
 30
 0.0
 42
1.0
  0
VERTEX
  8
AST
 10
1.9315
 20
1.0330
 30
 0.0
 42
1.0
  0
SEQEND
  8
AST
  0
POLYLINE
  8
AST
 66
      1
 70
1
 40
0.0080
 41
0.0080
  0
VERTEX
  8
AST
 10
1.2140
 20
0.5470
 30
 0.0
  0
VERTEX
  8
AST
 10
1.2530
 20
0.5470
 30
 0.0
  0
VERTEX
  8
AST
 10
1.2540
 20
0.5080
 30
 0.0
  0
VERTEX
  8
AST
 10
1.3090
 20
0.5080
 30
 0.0
  0
VERTEX
  8
AST
 10
1.3090
 20
0.5160
 30
 0.0
  0
VERTEX
  8
AST
 10
1.3090
 20
0.5310
 30
 0.0
  0
VERTEX
  8
AST
 10
1.3090
 20
0.5470
 30
 0.0
  0
VERTEX
  8
AST
 10
1.3480
 20
0.5470
 30
 0.0
  0
VERTEX
  8
AST
 10
1.3480
 20
0.9960
 30
 0.0
  0
VERTEX
  8
AST
 10
1.3090
 20
0.9960
 30
 0.0
  0
VERTEX
  8
AST
 10
1.3090
 20
1.0350
 30
 0.0
  0
VERTEX
  8
AST
 10
1.2540
 20
1.0350
 30
 0.0
  0
VERTEX
  8
AST
 10
1.2530
 20
0.9960
 30
 0.0
  0
VERTEX
  8
AST
 10
1.2140
 20
0.9960
 30
 0.0
  0
VERTEX
  8
AST
 10
1.2140
 20
0.5470
 30
 0.0
  0
SEQEND
  8
AST
  0
POLYLINE
  8
AST
 66
      1
 70
1
 40
0.0040
 41
0.0040
  0
VERTEX
  8
AST
 10
1.2120
 20
0.5470
 30
 0.0
 42
1.0
  0
VERTEX
  8
AST
 10
1.2160
 20
0.5470
 30
 0.0
 42
1.0
  0
SEQEND
  8
AST
  0
POLYLINE
  8
AST
 66
      1
 70
1
 40
0.0040
 41
0.0040
  0
VERTEX
  8
AST
 10
1.2510
 20
0.5470
 30
 0.0
 42
1.0
  0
VERTEX
  8
AST
 10
1.2550
 20
0.5470
 30
 0.0
 42
1.0
  0
SEQEND
  8
AST
  0
POLYLINE
  8
AST
 66
      1
 70
1
 40
0.0040
 41
0.0040
  0
VERTEX
  8
AST
 10
1.2520
 20
0.5080
 30
 0.0
 42
1.0
  0
VERTEX
  8
AST
 10
1.2560
 20
0.5080
 30
 0.0
 42
1.0
  0
SEQEND
  8
AST
  0
POLYLINE
  8
AST
 66
      1
 70
1
 40
0.0040
 41
0.0040
  0
VERTEX
  8
AST
 10
1.3070
 20
0.5080
 30
 0.0
 42
1.0
  0
VERTEX
  8
AST
 10
1.3110
 20
0.5080
 30
 0.0
 42
1.0
  0
SEQEND
  8
AST
  0
POLYLINE
  8
AST
 66
      1
 70
1
 40
0.0040
 41
0.0040
  0
VERTEX
  8
AST
 10
1.3070
 20
0.5160
 30
 0.0
 42
1.0
  0
VERTEX
  8
AST
 10
1.3110
 20
0.5160
 30
 0.0
 42
1.0
  0
SEQEND
  8
AST
  0
POLYLINE
  8
AST
 66
      1
 70
1
 40
0.0040
 41
0.0040
  0
VERTEX
  8
AST
 10
1.3070
 20
0.5310
 30
 0.0
 42
1.0
  0
VERTEX
  8
AST
 10
1.3110
 20
0.5310
 30
 0.0
 42
1.0
  0
SEQEND
  8
AST
  0
POLYLINE
  8
AST
 66
      1
 70
1
 40
0.0040
 41
0.0040
  0
VERTEX
  8
AST
 10
1.3070
 20
0.5470
 30
 0.0
 42
1.0
  0
VERTEX
  8
AST
 10
1.3110
 20
0.5470
 30
 0.0
 42
1.0
  0
SEQEND
  8
AST
  0
POLYLINE
  8
AST
 66
      1
 70
1
 40
0.0040
 41
0.0040
  0
VERTEX
  8
AST
 10
1.3460
 20
0.5470
 30
 0.0
 42
1.0
  0
VERTEX
  8
AST
 10
1.3500
 20
0.5470
 30
 0.0
 42
1.0
  0
SEQEND
  8
AST
  0
POLYLINE
  8
AST
 66
      1
 70
1
 40
0.0040
 41
0.0040
  0
VERTEX
  8
AST
 10
1.3460
 20
0.9960
 30
 0.0
 42
1.0
  0
VERTEX
  8
AST
 10
1.3500
 20
0.9960
 30
 0.0
 42
1.0
  0
SEQEND
  8
AST
  0
POLYLINE
  8
AST
 66
      1
 70
1
 40
0.0040
 41
0.0040
  0
VERTEX
  8
AST
 10
1.3070
 20
0.9960
 30
 0.0
 42
1.0
  0
VERTEX
  8
AST
 10
1.3110
 20
0.9960
 30
 0.0
 42
1.0
  0
SEQEND
  8
AST
  0
POLYLINE
  8
AST
 66
      1
 70
1
 40
0.0040
 41
0.0040
  0
VERTEX
  8
AST
 10
1.3070
 20
1.0350
 30
 0.0
 42
1.0
  0
VERTEX
  8
AST
 10
1.3110
 20
1.0350
 30
 0.0
 42
1.0
  0
SEQEND
  8
AST
  0
POLYLINE
  8
AST
 66
      1
 70
1
 40
0.0040
 41
0.0040
  0
VERTEX
  8
AST
 10
1.2520
 20
1.0350
 30
 0.0
 42
1.0
  0
VERTEX
  8
AST
 10
1.2560
 20
1.0350
 30
 0.0
 42
1.0
  0
SEQEND
  8
AST
  0
POLYLINE
  8
AST
 66
      1
 70
1
 40
0.0040
 41
0.0040
  0
VERTEX
  8
AST
 10
1.2510
 20
0.9960
 30
 0.0
 42
1.0
  0
VERTEX
  8
AST
 10
1.2550
 20
0.9960
 30
 0.0
 42
1.0
  0
SEQEND
  8
AST
  0
POLYLINE
  8
AST
 66
      1
 70
1
 40
0.0040
 41
0.0040
  0
VERTEX
  8
AST
 10
1.2120
 20
0.9960
 30
 0.0
 42
1.0
  0
VERTEX
  8
AST
 10
1.2160
 20
0.9960
 30
 0.0
 42
1.0
  0
SEQEND
  8
AST
  0
POLYLINE
  8
AST
 66
      1
 70
1
 40
0.0040
 41
0.0040
  0
VERTEX
  8
AST
 10
1.2120
 20
0.5470
 30
 0.0
 42
1.0
  0
VERTEX
  8
AST
 10
1.2160
 20
0.5470
 30
 0.0
 42
1.0
  0
SEQEND
  8
AST
  0
POLYLINE
  8
AST
 66
      1
 70
1
 40
0.0060
 41
0.0060
  0
VERTEX
  8
AST
 10
0.3450
 20
1.5500
 30
 0.0
  0
VERTEX
  8
AST
 10
0.3450
 20
1.6140
 30
 0.0
  0
VERTEX
  8
AST
 10
0.4600
 20
1.6140
 30
 0.0
  0
VERTEX
  8
AST
 10
0.4600
 20
1.5500
 30
 0.0
  0
VERTEX
  8
AST
 10
0.3450
 20
1.5500
 30
 0.0
  0
SEQEND
  8
AST
  0
POLYLINE
  8
AST
 66
      1
 70
1
 40
0.0030
 41
0.0030
  0
VERTEX
  8
AST
 10
0.3435
 20
1.5500
 30
 0.0
 42
1.0
  0
VERTEX
  8
AST
 10
0.3465
 20
1.5500
 30
 0.0
 42
1.0
  0
SEQEND
  8
AST
  0
POLYLINE
  8
AST
 66
      1
 70
1
 40
0.0030
 41
0.0030
  0
VERTEX
  8
AST
 10
0.3435
 20
1.6140
 30
 0.0
 42
1.0
  0
VERTEX
  8
AST
 10
0.3465
 20
1.6140
 30
 0.0
 42
1.0
  0
SEQEND
  8
AST
  0
POLYLINE
  8
AST
 66
      1
 70
1
 40
0.0030
 41
0.0030
  0
VERTEX
  8
AST
 10
0.4585
 20
1.6140
 30
 0.0
 42
1.0
  0
VERTEX
  8
AST
 10
0.4615
 20
1.6140
 30
 0.0
 42
1.0
  0
SEQEND
  8
AST
  0
POLYLINE
  8
AST
 66
      1
 70
1
 40
0.0030
 41
0.0030
  0
VERTEX
  8
AST
 10
0.4585
 20
1.5500
 30
 0.0
 42
1.0
  0
VERTEX
  8
AST
 10
0.4615
 20
1.5500
 30
 0.0
 42
1.0
  0
SEQEND
  8
AST
  0
POLYLINE
  8
AST
 66
      1
 70
1
 40
0.0030
 41
0.0030
  0
VERTEX
  8
AST
 10
0.3435
 20
1.5500
 30
 0.0
 42
1.0
  0
VERTEX
  8
AST
 10
0.3465
 20
1.5500
 30
 0.0
 42
1.0
  0
SEQEND
  8
AST
  0
POLYLINE
  8
AST
 66
      1
 70
1
 40
0.0060
 41
0.0060
  0
VERTEX
  8
AST
 10
2.0120
 20
1.5130
 30
 0.0
  0
VERTEX
  8
AST
 10
2.0760
 20
1.5130
 30
 0.0
  0
VERTEX
  8
AST
 10
2.0760
 20
1.3980
 30
 0.0
  0
VERTEX
  8
AST
 10
2.0120
 20
1.3980
 30
 0.0
  0
VERTEX
  8
AST
 10
2.0120
 20
1.5130
 30
 0.0
  0
SEQEND
  8
AST
  0
POLYLINE
  8
AST
 66
      1
 70
1
 40
0.0030
 41
0.0030
  0
VERTEX
  8
AST
 10
2.0105
 20
1.5130
 30
 0.0
 42
1.0
  0
VERTEX
  8
AST
 10
2.0135
 20
1.5130
 30
 0.0
 42
1.0
  0
SEQEND
  8
AST
  0
POLYLINE
  8
AST
 66
      1
 70
1
 40
0.0030
 41
0.0030
  0
VERTEX
  8
AST
 10
2.0745
 20
1.5130
 30
 0.0
 42
1.0
  0
VERTEX
  8
AST
 10
2.0775
 20
1.5130
 30
 0.0
 42
1.0
  0
SEQEND
  8
AST
  0
POLYLINE
  8
AST
 66
      1
 70
1
 40
0.0030
 41
0.0030
  0
VERTEX
  8
AST
 10
2.0745
 20
1.3980
 30
 0.0
 42
1.0
  0
VERTEX
  8
AST
 10
2.0775
 20
1.3980
 30
 0.0
 42
1.0
  0
SEQEND
  8
AST
  0
POLYLINE
  8
AST
 66
      1
 70
1
 40
0.0030
 41
0.0030
  0
VERTEX
  8
AST
 10
2.0105
 20
1.3980
 30
 0.0
 42
1.0
  0
VERTEX
  8
AST
 10
2.0135
 20
1.3980
 30
 0.0
 42
1.0
  0
SEQEND
  8
AST
  0
POLYLINE
  8
AST
 66
      1
 70
1
 40
0.0030
 41
0.0030
  0
VERTEX
  8
AST
 10
2.0105
 20
1.5130
 30
 0.0
 42
1.0
  0
VERTEX
  8
AST
 10
2.0135
 20
1.5130
 30
 0.0
 42
1.0
  0
SEQEND
  8
AST
  0
POLYLINE
  8
AST
 66
      1
 70
1
 40
0.0060
 41
0.0060
  0
VERTEX
  8
AST
 10
1.5510
 20
1.7470
 30
 0.0
  0
VERTEX
  8
AST
 10
1.6150
 20
1.7470
 30
 0.0
  0
VERTEX
  8
AST
 10
1.6150
 20
1.6320
 30
 0.0
  0
VERTEX
  8
AST
 10
1.5510
 20
1.6320
 30
 0.0
  0
VERTEX
  8
AST
 10
1.5510
 20
1.7470
 30
 0.0
  0
SEQEND
  8
AST
  0
POLYLINE
  8
AST
 66
      1
 70
1
 40
0.0030
 41
0.0030
  0
VERTEX
  8
AST
 10
1.5495
 20
1.7470
 30
 0.0
 42
1.0
  0
VERTEX
  8
AST
 10
1.5525
 20
1.7470
 30
 0.0
 42
1.0
  0
SEQEND
  8
AST
  0
POLYLINE
  8
AST
 66
      1
 70
1
 40
0.0030
 41
0.0030
  0
VERTEX
  8
AST
 10
1.6135
 20
1.7470
 30
 0.0
 42
1.0
  0
VERTEX
  8
AST
 10
1.6165
 20
1.7470
 30
 0.0
 42
1.0
  0
SEQEND
  8
AST
  0
POLYLINE
  8
AST
 66
      1
 70
1
 40
0.0030
 41
0.0030
  0
VERTEX
  8
AST
 10
1.6135
 20
1.6320
 30
 0.0
 42
1.0
  0
VERTEX
  8
AST
 10
1.6165
 20
1.6320
 30
 0.0
 42
1.0
  0
SEQEND
  8
AST
  0
POLYLINE
  8
AST
 66
      1
 70
1
 40
0.0030
 41
0.0030
  0
VERTEX
  8
AST
 10
1.5495
 20
1.6320
 30
 0.0
 42
1.0
  0
VERTEX
  8
AST
 10
1.5525
 20
1.6320
 30
 0.0
 42
1.0
  0
SEQEND
  8
AST
  0
POLYLINE
  8
AST
 66
      1
 70
1
 40
0.0030
 41
0.0030
  0
VERTEX
  8
AST
 10
1.5495
 20
1.7470
 30
 0.0
 42
1.0
  0
VERTEX
  8
AST
 10
1.5525
 20
1.7470
 30
 0.0
 42
1.0
  0
SEQEND
  8
AST
  0
POLYLINE
  8
AST
 66
      1
 70
1
 40
0.0060
 41
0.0060
  0
VERTEX
  8
AST
 10
2.0320
 20
1.1280
 30
 0.0
  0
VERTEX
  8
AST
 10
1.9680
 20
1.1280
 30
 0.0
  0
VERTEX
  8
AST
 10
1.9680
 20
1.2430
 30
 0.0
  0
VERTEX
  8
AST
 10
2.0320
 20
1.2430
 30
 0.0
  0
VERTEX
  8
AST
 10
2.0320
 20
1.1280
 30
 0.0
  0
SEQEND
  8
AST
  0
POLYLINE
  8
AST
 66
      1
 70
1
 40
0.0030
 41
0.0030
  0
VERTEX
  8
AST
 10
2.0305
 20
1.1280
 30
 0.0
 42
1.0
  0
VERTEX
  8
AST
 10
2.0335
 20
1.1280
 30
 0.0
 42
1.0
  0
SEQEND
  8
AST
  0
POLYLINE
  8
AST
 66
      1
 70
1
 40
0.0030
 41
0.0030
  0
VERTEX
  8
AST
 10
1.9665
 20
1.1280
 30
 0.0
 42
1.0
  0
VERTEX
  8
AST
 10
1.9695
 20
1.1280
 30
 0.0
 42
1.0
  0
SEQEND
  8
AST
  0
POLYLINE
  8
AST
 66
      1
 70
1
 40
0.0030
 41
0.0030
  0
VERTEX
  8
AST
 10
1.9665
 20
1.2430
 30
 0.0
 42
1.0
  0
VERTEX
  8
AST
 10
1.9695
 20
1.2430
 30
 0.0
 42
1.0
  0
SEQEND
  8
AST
  0
POLYLINE
  8
AST
 66
      1
 70
1
 40
0.0030
 41
0.0030
  0
VERTEX
  8
AST
 10
2.0305
 20
1.2430
 30
 0.0
 42
1.0
  0
VERTEX
  8
AST
 10
2.0335
 20
1.2430
 30
 0.0
 42
1.0
  0
SEQEND
  8
AST
  0
POLYLINE
  8
AST
 66
      1
 70
1
 40
0.0030
 41
0.0030
  0
VERTEX
  8
AST
 10
2.0305
 20
1.1280
 30
 0.0
 42
1.0
  0
VERTEX
  8
AST
 10
2.0335
 20
1.1280
 30
 0.0
 42
1.0
  0
SEQEND
  8
AST
  0
POLYLINE
  8
AST
 66
      1
 70
1
 40
0.0060
 41
0.0060
  0
VERTEX
  8
AST
 10
2.2430
 20
0.9280
 30
 0.0
  0
VERTEX
  8
AST
 10
2.2300
 20
0.9400
 30
 0.0
  0
VERTEX
  8
AST
 10
2.2430
 20
0.9530
 30
 0.0
  0
VERTEX
  8
AST
 10
2.2430
 20
0.9800
 30
 0.0
  0
VERTEX
  8
AST
 10
2.4880
 20
0.9800
 30
 0.0
  0
VERTEX
  8
AST
 10
2.4880
 20
0.9000
 30
 0.0
  0
VERTEX
  8
AST
 10
2.2430
 20
0.9000
 30
 0.0
  0
VERTEX
  8
AST
 10
2.2430
 20
0.9280
 30
 0.0
  0
SEQEND
  8
AST
  0
POLYLINE
  8
AST
 66
      1
 70
1
 40
0.0030
 41
0.0030
  0
VERTEX
  8
AST
 10
2.2415
 20
0.9280
 30
 0.0
 42
1.0
  0
VERTEX
  8
AST
 10
2.2445
 20
0.9280
 30
 0.0
 42
1.0
  0
SEQEND
  8
AST
  0
POLYLINE
  8
AST
 66
      1
 70
1
 40
0.0030
 41
0.0030
  0
VERTEX
  8
AST
 10
2.2285
 20
0.9400
 30
 0.0
 42
1.0
  0
VERTEX
  8
AST
 10
2.2315
 20
0.9400
 30
 0.0
 42
1.0
  0
SEQEND
  8
AST
  0
POLYLINE
  8
AST
 66
      1
 70
1
 40
0.0030
 41
0.0030
  0
VERTEX
  8
AST
 10
2.2415
 20
0.9530
 30
 0.0
 42
1.0
  0
VERTEX
  8
AST
 10
2.2445
 20
0.9530
 30
 0.0
 42
1.0
  0
SEQEND
  8
AST
  0
POLYLINE
  8
AST
 66
      1
 70
1
 40
0.0030
 41
0.0030
  0
VERTEX
  8
AST
 10
2.2415
 20
0.9800
 30
 0.0
 42
1.0
  0
VERTEX
  8
AST
 10
2.2445
 20
0.9800
 30
 0.0
 42
1.0
  0
SEQEND
  8
AST
  0
POLYLINE
  8
AST
 66
      1
 70
1
 40
0.0030
 41
0.0030
  0
VERTEX
  8
AST
 10
2.4865
 20
0.9800
 30
 0.0
 42
1.0
  0
VERTEX
  8
AST
 10
2.4895
 20
0.9800
 30
 0.0
 42
1.0
  0
SEQEND
  8
AST
  0
POLYLINE
  8
AST
 66
      1
 70
1
 40
0.0030
 41
0.0030
  0
VERTEX
  8
AST
 10
2.4865
 20
0.9000
 30
 0.0
 42
1.0
  0
VERTEX
  8
AST
 10
2.4895
 20
0.9000
 30
 0.0
 42
1.0
  0
SEQEND
  8
AST
  0
POLYLINE
  8
AST
 66
      1
 70
1
 40
0.0030
 41
0.0030
  0
VERTEX
  8
AST
 10
2.2415
 20
0.9000
 30
 0.0
 42
1.0
  0
VERTEX
  8
AST
 10
2.2445
 20
0.9000
 30
 0.0
 42
1.0
  0
SEQEND
  8
AST
  0
POLYLINE
  8
AST
 66
      1
 70
1
 40
0.0030
 41
0.0030
  0
VERTEX
  8
AST
 10
2.2415
 20
0.9280
 30
 0.0
 42
1.0
  0
VERTEX
  8
AST
 10
2.2445
 20
0.9280
 30
 0.0
 42
1.0
  0
SEQEND
  8
AST
  0
POLYLINE
  8
AST
 66
      1
 70
1
 40
0.0060
 41
0.0060
  0
VERTEX
  8
AST
 10
0.7840
 20
0.5980
 30
 0.0
  0
VERTEX
  8
AST
 10
0.8480
 20
0.5980
 30
 0.0
  0
VERTEX
  8
AST
 10
0.8480
 20
0.4830
 30
 0.0
  0
VERTEX
  8
AST
 10
0.7840
 20
0.4830
 30
 0.0
  0
VERTEX
  8
AST
 10
0.7840
 20
0.5980
 30
 0.0
  0
SEQEND
  8
AST
  0
POLYLINE
  8
AST
 66
      1
 70
1
 40
0.0030
 41
0.0030
  0
VERTEX
  8
AST
 10
0.7825
 20
0.5980
 30
 0.0
 42
1.0
  0
VERTEX
  8
AST
 10
0.7855
 20
0.5980
 30
 0.0
 42
1.0
  0
SEQEND
  8
AST
  0
POLYLINE
  8
AST
 66
      1
 70
1
 40
0.0030
 41
0.0030
  0
VERTEX
  8
AST
 10
0.8465
 20
0.5980
 30
 0.0
 42
1.0
  0
VERTEX
  8
AST
 10
0.8495
 20
0.5980
 30
 0.0
 42
1.0
  0
SEQEND
  8
AST
  0
POLYLINE
  8
AST
 66
      1
 70
1
 40
0.0030
 41
0.0030
  0
VERTEX
  8
AST
 10
0.8465
 20
0.4830
 30
 0.0
 42
1.0
  0
VERTEX
  8
AST
 10
0.8495
 20
0.4830
 30
 0.0
 42
1.0
  0
SEQEND
  8
AST
  0
POLYLINE
  8
AST
 66
      1
 70
1
 40
0.0030
 41
0.0030
  0
VERTEX
  8
AST
 10
0.7825
 20
0.4830
 30
 0.0
 42
1.0
  0
VERTEX
  8
AST
 10
0.7855
 20
0.4830
 30
 0.0
 42
1.0
  0
SEQEND
  8
AST
  0
POLYLINE
  8
AST
 66
      1
 70
1
 40
0.0030
 41
0.0030
  0
VERTEX
  8
AST
 10
0.7825
 20
0.5980
 30
 0.0
 42
1.0
  0
VERTEX
  8
AST
 10
0.7855
 20
0.5980
 30
 0.0
 42
1.0
  0
SEQEND
  8
AST
  0
POLYLINE
  8
AST
 66
      1
 70
1
 40
0.0060
 41
0.0060
  0
VERTEX
  8
AST
 10
0.4830
 20
1.4750
 30
 0.0
  0
VERTEX
  8
AST
 10
0.4830
 20
1.5390
 30
 0.0
  0
VERTEX
  8
AST
 10
0.5980
 20
1.5390
 30
 0.0
  0
VERTEX
  8
AST
 10
0.5980
 20
1.4750
 30
 0.0
  0
VERTEX
  8
AST
 10
0.4830
 20
1.4750
 30
 0.0
  0
SEQEND
  8
AST
  0
POLYLINE
  8
AST
 66
      1
 70
1
 40
0.0030
 41
0.0030
  0
VERTEX
  8
AST
 10
0.4815
 20
1.4750
 30
 0.0
 42
1.0
  0
VERTEX
  8
AST
 10
0.4845
 20
1.4750
 30
 0.0
 42
1.0
  0
SEQEND
  8
AST
  0
POLYLINE
  8
AST
 66
      1
 70
1
 40
0.0030
 41
0.0030
  0
VERTEX
  8
AST
 10
0.4815
 20
1.5390
 30
 0.0
 42
1.0
  0
VERTEX
  8
AST
 10
0.4845
 20
1.5390
 30
 0.0
 42
1.0
  0
SEQEND
  8
AST
  0
POLYLINE
  8
AST
 66
      1
 70
1
 40
0.0030
 41
0.0030
  0
VERTEX
  8
AST
 10
0.5965
 20
1.5390
 30
 0.0
 42
1.0
  0
VERTEX
  8
AST
 10
0.5995
 20
1.5390
 30
 0.0
 42
1.0
  0
SEQEND
  8
AST
  0
POLYLINE
  8
AST
 66
      1
 70
1
 40
0.0030
 41
0.0030
  0
VERTEX
  8
AST
 10
0.5965
 20
1.4750
 30
 0.0
 42
1.0
  0
VERTEX
  8
AST
 10
0.5995
 20
1.4750
 30
 0.0
 42
1.0
  0
SEQEND
  8
AST
  0
POLYLINE
  8
AST
 66
      1
 70
1
 40
0.0030
 41
0.0030
  0
VERTEX
  8
AST
 10
0.4815
 20
1.4750
 30
 0.0
 42
1.0
  0
VERTEX
  8
AST
 10
0.4845
 20
1.4750
 30
 0.0
 42
1.0
  0
SEQEND
  8
AST
  0
POLYLINE
  8
AST
 66
      1
 70
0
 40
0.0080
 41
0.0080
  0
VERTEX
  8
AST
 10
0.4070
 20
1.7770
 30
 0.0
  0
VERTEX
  8
AST
 10
0.4120
 20
1.7820
 30
 0.0
  0
VERTEX
  8
AST
 10
0.4120
 20
1.8820
 30
 0.0
  0
VERTEX
  8
AST
 10
1.0120
 20
1.8820
 30
 0.0
  0
VERTEX
  8
AST
 10
1.0120
 20
1.7820
 30
 0.0
  0
VERTEX
  8
AST
 10
0.4120
 20
1.7820
 30
 0.0
  0
SEQEND
  8
AST
  0
POLYLINE
  8
AST
 66
      1
 70
1
 40
0.0040
 41
0.0040
  0
VERTEX
  8
AST
 10
0.4050
 20
1.7770
 30
 0.0
 42
1.0
  0
VERTEX
  8
AST
 10
0.4090
 20
1.7770
 30
 0.0
 42
1.0
  0
SEQEND
  8
AST
  0
POLYLINE
  8
AST
 66
      1
 70
1
 40
0.0040
 41
0.0040
  0
VERTEX
  8
AST
 10
0.4100
 20
1.7820
 30
 0.0
 42
1.0
  0
VERTEX
  8
AST
 10
0.4140
 20
1.7820
 30
 0.0
 42
1.0
  0
SEQEND
  8
AST
  0
POLYLINE
  8
AST
 66
      1
 70
1
 40
0.0040
 41
0.0040
  0
VERTEX
  8
AST
 10
0.4100
 20
1.8820
 30
 0.0
 42
1.0
  0
VERTEX
  8
AST
 10
0.4140
 20
1.8820
 30
 0.0
 42
1.0
  0
SEQEND
  8
AST
  0
POLYLINE
  8
AST
 66
      1
 70
1
 40
0.0040
 41
0.0040
  0
VERTEX
  8
AST
 10
1.0100
 20
1.8820
 30
 0.0
 42
1.0
  0
VERTEX
  8
AST
 10
1.0140
 20
1.8820
 30
 0.0
 42
1.0
  0
SEQEND
  8
AST
  0
POLYLINE
  8
AST
 66
      1
 70
1
 40
0.0040
 41
0.0040
  0
VERTEX
  8
AST
 10
1.0100
 20
1.7820
 30
 0.0
 42
1.0
  0
VERTEX
  8
AST
 10
1.0140
 20
1.7820
 30
 0.0
 42
1.0
  0
SEQEND
  8
AST
  0
POLYLINE
  8
AST
 66
      1
 70
1
 40
0.0040
 41
0.0040
  0
VERTEX
  8
AST
 10
0.4100
 20
1.7820
 30
 0.0
 42
1.0
  0
VERTEX
  8
AST
 10
0.4140
 20
1.7820
 30
 0.0
 42
1.0
  0
SEQEND
  8
AST
  0
POLYLINE
  8
AST
 66
      1
 70
0
 40
0.0080
 41
0.0080
  0
VERTEX
  8
AST
 10
0.5750
 20
0.5220
 30
 0.0
  0
VERTEX
  8
AST
 10
0.6500
 20
0.5220
 30
 0.0
  0
SEQEND
  8
AST
  0
POLYLINE
  8
AST
 66
      1
 70
1
 40
0.0040
 41
0.0040
  0
VERTEX
  8
AST
 10
0.5730
 20
0.5220
 30
 0.0
 42
1.0
  0
VERTEX
  8
AST
 10
0.5770
 20
0.5220
 30
 0.0
 42
1.0
  0
SEQEND
  8
AST
  0
POLYLINE
  8
AST
 66
      1
 70
1
 40
0.0040
 41
0.0040
  0
VERTEX
  8
AST
 10
0.6480
 20
0.5220
 30
 0.0
 42
1.0
  0
VERTEX
  8
AST
 10
0.6520
 20
0.5220
 30
 0.0
 42
1.0
  0
SEQEND
  8
AST
  0
POLYLINE
  8
AST
 66
      1
 70
1
 40
0.0080
 41
0.0080
  0
VERTEX
  8
AST
 10
0.6500
 20
0.4970
 30
 0.0
  0
VERTEX
  8
AST
 10
0.5750
 20
0.4970
 30
 0.0
  0
VERTEX
  8
AST
 10
0.5750
 20
0.4970
 30
 0.0
  0
VERTEX
  8
AST
 10
0.5750
 20
0.8720
 30
 0.0
  0
VERTEX
  8
AST
 10
0.6500
 20
0.8720
 30
 0.0
  0
VERTEX
  8
AST
 10
0.6500
 20
0.4970
 30
 0.0
  0
SEQEND
  8
AST
  0
POLYLINE
  8
AST
 66
      1
 70
1
 40
0.0040
 41
0.0040
  0
VERTEX
  8
AST
 10
0.6480
 20
0.4970
 30
 0.0
 42
1.0
  0
VERTEX
  8
AST
 10
0.6520
 20
0.4970
 30
 0.0
 42
1.0
  0
SEQEND
  8
AST
  0
POLYLINE
  8
AST
 66
      1
 70
1
 40
0.0040
 41
0.0040
  0
VERTEX
  8
AST
 10
0.5730
 20
0.4970
 30
 0.0
 42
1.0
  0
VERTEX
  8
AST
 10
0.5770
 20
0.4970
 30
 0.0
 42
1.0
  0
SEQEND
  8
AST
  0
POLYLINE
  8
AST
 66
      1
 70
1
 40
0.0040
 41
0.0040
  0
VERTEX
  8
AST
 10
0.5730
 20
0.4970
 30
 0.0
 42
1.0
  0
VERTEX
  8
AST
 10
0.5770
 20
0.4970
 30
 0.0
 42
1.0
  0
SEQEND
  8
AST
  0
POLYLINE
  8
AST
 66
      1
 70
1
 40
0.0040
 41
0.0040
  0
VERTEX
  8
AST
 10
0.5730
 20
0.8720
 30
 0.0
 42
1.0
  0
VERTEX
  8
AST
 10
0.5770
 20
0.8720
 30
 0.0
 42
1.0
  0
SEQEND
  8
AST
  0
POLYLINE
  8
AST
 66
      1
 70
1
 40
0.0040
 41
0.0040
  0
VERTEX
  8
AST
 10
0.6480
 20
0.8720
 30
 0.0
 42
1.0
  0
VERTEX
  8
AST
 10
0.6520
 20
0.8720
 30
 0.0
 42
1.0
  0
SEQEND
  8
AST
  0
POLYLINE
  8
AST
 66
      1
 70
1
 40
0.0040
 41
0.0040
  0
VERTEX
  8
AST
 10
0.6480
 20
0.4970
 30
 0.0
 42
1.0
  0
VERTEX
  8
AST
 10
0.6520
 20
0.4970
 30
 0.0
 42
1.0
  0
SEQEND
  8
AST
  0
POLYLINE
  8
AST
 66
      1
 70
1
 40
0.0040
 41
0.0040
  0
VERTEX
  8
AST
 10
2.2950
 20
0.7830
 30
 0.0
  0
VERTEX
  8
AST
 10
2.2910
 20
0.7870
 30
 0.0
  0
VERTEX
  8
AST
 10
2.2880
 20
0.7830
 30
 0.0
  0
VERTEX
  8
AST
 10
2.2880
 20
0.7750
 30
 0.0
  0
VERTEX
  8
AST
 10
2.2950
 20
0.7750
 30
 0.0
  0
VERTEX
  8
AST
 10
2.2950
 20
0.7830
 30
 0.0
  0
SEQEND
  8
AST
  0
POLYLINE
  8
AST
 66
      1
 70
1
 40
0.0020
 41
0.0020
  0
VERTEX
  8
AST
 10
2.2940
 20
0.7830
 30
 0.0
 42
1.0
  0
VERTEX
  8
AST
 10
2.2960
 20
0.7830
 30
 0.0
 42
1.0
  0
SEQEND
  8
AST
  0
POLYLINE
  8
AST
 66
      1
 70
1
 40
0.0020
 41
0.0020
  0
VERTEX
  8
AST
 10
2.2900
 20
0.7870
 30
 0.0
 42
1.0
  0
VERTEX
  8
AST
 10
2.2920
 20
0.7870
 30
 0.0
 42
1.0
  0
SEQEND
  8
AST
  0
POLYLINE
  8
AST
 66
      1
 70
1
 40
0.0020
 41
0.0020
  0
VERTEX
  8
AST
 10
2.2870
 20
0.7830
 30
 0.0
 42
1.0
  0
VERTEX
  8
AST
 10
2.2890
 20
0.7830
 30
 0.0
 42
1.0
  0
SEQEND
  8
AST
  0
POLYLINE
  8
AST
 66
      1
 70
1
 40
0.0020
 41
0.0020
  0
VERTEX
  8
AST
 10
2.2870
 20
0.7750
 30
 0.0
 42
1.0
  0
VERTEX
  8
AST
 10
2.2890
 20
0.7750
 30
 0.0
 42
1.0
  0
SEQEND
  8
AST
  0
POLYLINE
  8
AST
 66
      1
 70
1
 40
0.0020
 41
0.0020
  0
VERTEX
  8
AST
 10
2.2940
 20
0.7750
 30
 0.0
 42
1.0
  0
VERTEX
  8
AST
 10
2.2960
 20
0.7750
 30
 0.0
 42
1.0
  0
SEQEND
  8
AST
  0
POLYLINE
  8
AST
 66
      1
 70
1
 40
0.0020
 41
0.0020
  0
VERTEX
  8
AST
 10
2.2940
 20
0.7830
 30
 0.0
 42
1.0
  0
VERTEX
  8
AST
 10
2.2960
 20
0.7830
 30
 0.0
 42
1.0
  0
SEQEND
  8
AST
  0
POLYLINE
  8
AST
 66
      1
 70
1
 40
0.0040
 41
0.0040
  0
VERTEX
  8
AST
 10
2.3070
 20
0.7980
 30
 0.0
  0
VERTEX
  8
AST
 10
2.3070
 20
0.8060
 30
 0.0
  0
VERTEX
  8
AST
 10
2.2760
 20
0.8060
 30
 0.0
  0
VERTEX
  8
AST
 10
2.2760
 20
0.7120
 30
 0.0
  0
VERTEX
  8
AST
 10
2.3070
 20
0.7120
 30
 0.0
  0
VERTEX
  8
AST
 10
2.3070
 20
0.7980
 30
 0.0
  0
SEQEND
  8
AST
  0
POLYLINE
  8
AST
 66
      1
 70
1
 40
0.0020
 41
0.0020
  0
VERTEX
  8
AST
 10
2.3060
 20
0.7980
 30
 0.0
 42
1.0
  0
VERTEX
  8
AST
 10
2.3080
 20
0.7980
 30
 0.0
 42
1.0
  0
SEQEND
  8
AST
  0
POLYLINE
  8
AST
 66
      1
 70
1
 40
0.0020
 41
0.0020
  0
VERTEX
  8
AST
 10
2.3060
 20
0.8060
 30
 0.0
 42
1.0
  0
VERTEX
  8
AST
 10
2.3080
 20
0.8060
 30
 0.0
 42
1.0
  0
SEQEND
  8
AST
  0
POLYLINE
  8
AST
 66
      1
 70
1
 40
0.0020
 41
0.0020
  0
VERTEX
  8
AST
 10
2.2750
 20
0.8060
 30
 0.0
 42
1.0
  0
VERTEX
  8
AST
 10
2.2770
 20
0.8060
 30
 0.0
 42
1.0
  0
SEQEND
  8
AST
  0
POLYLINE
  8
AST
 66
      1
 70
1
 40
0.0020
 41
0.0020
  0
VERTEX
  8
AST
 10
2.2750
 20
0.7120
 30
 0.0
 42
1.0
  0
VERTEX
  8
AST
 10
2.2770
 20
0.7120
 30
 0.0
 42
1.0
  0
SEQEND
  8
AST
  0
POLYLINE
  8
AST
 66
      1
 70
1
 40
0.0020
 41
0.0020
  0
VERTEX
  8
AST
 10
2.3060
 20
0.7120
 30
 0.0
 42
1.0
  0
VERTEX
  8
AST
 10
2.3080
 20
0.7120
 30
 0.0
 42
1.0
  0
SEQEND
  8
AST
  0
POLYLINE
  8
AST
 66
      1
 70
1
 40
0.0020
 41
0.0020
  0
VERTEX
  8
AST
 10
2.3060
 20
0.7980
 30
 0.0
 42
1.0
  0
VERTEX
  8
AST
 10
2.3080
 20
0.7980
 30
 0.0
 42
1.0
  0
SEQEND
  8
AST
  0
POLYLINE
  8
AST
 66
      1
 70
0
 40
0.0100
 41
0.0100
  0
VERTEX
  8
AST
 10
1.6070
 20
1.2460
 30
 0.0
  0
VERTEX
  8
AST
 10
1.6000
 20
1.2460
 30
 0.0
  0
VERTEX
  8
AST
 10
1.6000
 20
1.2530
 30
 0.0
  0
SEQEND
  8
AST
  0
POLYLINE
  8
AST
 66
      1
 70
1
 40
0.0050
 41
0.0050
  0
VERTEX
  8
AST
 10
1.6045
 20
1.2460
 30
 0.0
 42
1.0
  0
VERTEX
  8
AST
 10
1.6095
 20
1.2460
 30
 0.0
 42
1.0
  0
SEQEND
  8
AST
  0
POLYLINE
  8
AST
 66
      1
 70
1
 40
0.0050
 41
0.0050
  0
VERTEX
  8
AST
 10
1.5975
 20
1.2460
 30
 0.0
 42
1.0
  0
VERTEX
  8
AST
 10
1.6025
 20
1.2460
 30
 0.0
 42
1.0
  0
SEQEND
  8
AST
  0
POLYLINE
  8
AST
 66
      1
 70
1
 40
0.0050
 41
0.0050
  0
VERTEX
  8
AST
 10
1.5975
 20
1.2530
 30
 0.0
 42
1.0
  0
VERTEX
  8
AST
 10
1.6025
 20
1.2530
 30
 0.0
 42
1.0
  0
SEQEND
  8
AST
  0
POLYLINE
  8
AST
 66
      1
 70
0
 40
0.0100
 41
0.0100
  0
VERTEX
  8
AST
 10
1.9320
 20
1.2530
 30
 0.0
  0
VERTEX
  8
AST
 10
1.8750
 20
1.2530
 30
 0.0
  0
VERTEX
  8
AST
 10
1.8690
 20
1.2460
 30
 0.0
  0
SEQEND
  8
AST
  0
POLYLINE
  8
AST
 66
      1
 70
1
 40
0.0050
 41
0.0050
  0
VERTEX
  8
AST
 10
1.9295
 20
1.2530
 30
 0.0
 42
1.0
  0
VERTEX
  8
AST
 10
1.9345
 20
1.2530
 30
 0.0
 42
1.0
  0
SEQEND
  8
AST
  0
POLYLINE
  8
AST
 66
      1
 70
1
 40
0.0050
 41
0.0050
  0
VERTEX
  8
AST
 10
1.8725
 20
1.2530
 30
 0.0
 42
1.0
  0
VERTEX
  8
AST
 10
1.8775
 20
1.2530
 30
 0.0
 42
1.0
  0
SEQEND
  8
AST
  0
POLYLINE
  8
AST
 66
      1
 70
1
 40
0.0050
 41
0.0050
  0
VERTEX
  8
AST
 10
1.8665
 20
1.2460
 30
 0.0
 42
1.0
  0
VERTEX
  8
AST
 10
1.8715
 20
1.2460
 30
 0.0
 42
1.0
  0
SEQEND
  8
AST
  0
POLYLINE
  8
AST
 66
      1
 70
0
 40
0.0100
 41
0.0100
  0
VERTEX
  8
AST
 10
1.8750
 20
1.5150
 30
 0.0
  0
VERTEX
  8
AST
 10
1.8750
 20
1.5210
 30
 0.0
  0
VERTEX
  8
AST
 10
1.8690
 20
1.5210
 30
 0.0
  0
SEQEND
  8
AST
  0
POLYLINE
  8
AST
 66
      1
 70
1
 40
0.0050
 41
0.0050
  0
VERTEX
  8
AST
 10
1.8725
 20
1.5150
 30
 0.0
 42
1.0
  0
VERTEX
  8
AST
 10
1.8775
 20
1.5150
 30
 0.0
 42
1.0
  0
SEQEND
  8
AST
  0
POLYLINE
  8
AST
 66
      1
 70
1
 40
0.0050
 41
0.0050
  0
VERTEX
  8
AST
 10
1.8725
 20
1.5210
 30
 0.0
 42
1.0
  0
VERTEX
  8
AST
 10
1.8775
 20
1.5210
 30
 0.0
 42
1.0
  0
SEQEND
  8
AST
  0
POLYLINE
  8
AST
 66
      1
 70
1
 40
0.0050
 41
0.0050
  0
VERTEX
  8
AST
 10
1.8665
 20
1.5210
 30
 0.0
 42
1.0
  0
VERTEX
  8
AST
 10
1.8715
 20
1.5210
 30
 0.0
 42
1.0
  0
SEQEND
  8
AST
  0
POLYLINE
  8
AST
 66
      1
 70
0
 40
0.0100
 41
0.0100
  0
VERTEX
  8
AST
 10
1.6000
 20
1.5150
 30
 0.0
  0
VERTEX
  8
AST
 10
1.6000
 20
1.5210
 30
 0.0
  0
VERTEX
  8
AST
 10
1.6070
 20
1.5210
 30
 0.0
  0
SEQEND
  8
AST
  0
POLYLINE
  8
AST
 66
      1
 70
1
 40
0.0050
 41
0.0050
  0
VERTEX
  8
AST
 10
1.5975
 20
1.5150
 30
 0.0
 42
1.0
  0
VERTEX
  8
AST
 10
1.6025
 20
1.5150
 30
 0.0
 42
1.0
  0
SEQEND
  8
AST
  0
POLYLINE
  8
AST
 66
      1
 70
1
 40
0.0050
 41
0.0050
  0
VERTEX
  8
AST
 10
1.5975
 20
1.5210
 30
 0.0
 42
1.0
  0
VERTEX
  8
AST
 10
1.6025
 20
1.5210
 30
 0.0
 42
1.0
  0
SEQEND
  8
AST
  0
POLYLINE
  8
AST
 66
      1
 70
1
 40
0.0050
 41
0.0050
  0
VERTEX
  8
AST
 10
1.6045
 20
1.5210
 30
 0.0
 42
1.0
  0
VERTEX
  8
AST
 10
1.6095
 20
1.5210
 30
 0.0
 42
1.0
  0
SEQEND
  8
AST
  0
POLYLINE
  8
AST
 66
      1
 70
0
 40
0.0060
 41
0.0060
  0
VERTEX
  8
AST
 10
0.3410
 20
1.6620
 30
 0.0
  0
VERTEX
  8
AST
 10
0.3150
 20
1.6620
 30
 0.0
  0
VERTEX
  8
AST
 10
0.3150
 20
1.6920
 30
 0.0
  0
SEQEND
  8
AST
  0
POLYLINE
  8
AST
 66
      1
 70
1
 40
0.0030
 41
0.0030
  0
VERTEX
  8
AST
 10
0.3395
 20
1.6620
 30
 0.0
 42
1.0
  0
VERTEX
  8
AST
 10
0.3425
 20
1.6620
 30
 0.0
 42
1.0
  0
SEQEND
  8
AST
  0
POLYLINE
  8
AST
 66
      1
 70
1
 40
0.0030
 41
0.0030
  0
VERTEX
  8
AST
 10
0.3135
 20
1.6620
 30
 0.0
 42
1.0
  0
VERTEX
  8
AST
 10
0.3165
 20
1.6620
 30
 0.0
 42
1.0
  0
SEQEND
  8
AST
  0
POLYLINE
  8
AST
 66
      1
 70
1
 40
0.0030
 41
0.0030
  0
VERTEX
  8
AST
 10
0.3135
 20
1.6920
 30
 0.0
 42
1.0
  0
VERTEX
  8
AST
 10
0.3165
 20
1.6920
 30
 0.0
 42
1.0
  0
SEQEND
  8
AST
  0
POLYLINE
  8
AST
 66
      1
 70
0
 40
0.0060
 41
0.0060
  0
VERTEX
  8
AST
 10
0.4400
 20
1.6920
 30
 0.0
  0
VERTEX
  8
AST
 10
0.4350
 20
1.6920
 30
 0.0
  0
VERTEX
  8
AST
 10
0.4350
 20
1.6620
 30
 0.0
  0
VERTEX
  8
AST
 10
0.4090
 20
1.6620
 30
 0.0
  0
SEQEND
  8
AST
  0
POLYLINE
  8
AST
 66
      1
 70
1
 40
0.0030
 41
0.0030
  0
VERTEX
  8
AST
 10
0.4385
 20
1.6920
 30
 0.0
 42
1.0
  0
VERTEX
  8
AST
 10
0.4415
 20
1.6920
 30
 0.0
 42
1.0
  0
SEQEND
  8
AST
  0
POLYLINE
  8
AST
 66
      1
 70
1
 40
0.0030
 41
0.0030
  0
VERTEX
  8
AST
 10
0.4335
 20
1.6920
 30
 0.0
 42
1.0
  0
VERTEX
  8
AST
 10
0.4365
 20
1.6920
 30
 0.0
 42
1.0
  0
SEQEND
  8
AST
  0
POLYLINE
  8
AST
 66
      1
 70
1
 40
0.0030
 41
0.0030
  0
VERTEX
  8
AST
 10
0.4335
 20
1.6620
 30
 0.0
 42
1.0
  0
VERTEX
  8
AST
 10
0.4365
 20
1.6620
 30
 0.0
 42
1.0
  0
SEQEND
  8
AST
  0
POLYLINE
  8
AST
 66
      1
 70
1
 40
0.0030
 41
0.0030
  0
VERTEX
  8
AST
 10
0.4075
 20
1.6620
 30
 0.0
 42
1.0
  0
VERTEX
  8
AST
 10
0.4105
 20
1.6620
 30
 0.0
 42
1.0
  0
SEQEND
  8
AST
  0
POLYLINE
  8
AST
 66
      1
 70
1
 40
0.0060
 41
0.0060
  0
VERTEX
  8
AST
 10
0.7940
 20
1.6520
 30
 0.0
  0
VERTEX
  8
AST
 10
0.7300
 20
1.6520
 30
 0.0
  0
VERTEX
  8
AST
 10
0.7300
 20
1.7670
 30
 0.0
  0
VERTEX
  8
AST
 10
0.7940
 20
1.7670
 30
 0.0
  0
VERTEX
  8
AST
 10
0.7940
 20
1.6520
 30
 0.0
  0
SEQEND
  8
AST
  0
POLYLINE
  8
AST
 66
      1
 70
1
 40
0.0030
 41
0.0030
  0
VERTEX
  8
AST
 10
0.7925
 20
1.6520
 30
 0.0
 42
1.0
  0
VERTEX
  8
AST
 10
0.7955
 20
1.6520
 30
 0.0
 42
1.0
  0
SEQEND
  8
AST
  0
POLYLINE
  8
AST
 66
      1
 70
1
 40
0.0030
 41
0.0030
  0
VERTEX
  8
AST
 10
0.7285
 20
1.6520
 30
 0.0
 42
1.0
  0
VERTEX
  8
AST
 10
0.7315
 20
1.6520
 30
 0.0
 42
1.0
  0
SEQEND
  8
AST
  0
POLYLINE
  8
AST
 66
      1
 70
1
 40
0.0030
 41
0.0030
  0
VERTEX
  8
AST
 10
0.7285
 20
1.7670
 30
 0.0
 42
1.0
  0
VERTEX
  8
AST
 10
0.7315
 20
1.7670
 30
 0.0
 42
1.0
  0
SEQEND
  8
AST
  0
POLYLINE
  8
AST
 66
      1
 70
1
 40
0.0030
 41
0.0030
  0
VERTEX
  8
AST
 10
0.7925
 20
1.7670
 30
 0.0
 42
1.0
  0
VERTEX
  8
AST
 10
0.7955
 20
1.7670
 30
 0.0
 42
1.0
  0
SEQEND
  8
AST
  0
POLYLINE
  8
AST
 66
      1
 70
1
 40
0.0030
 41
0.0030
  0
VERTEX
  8
AST
 10
0.7925
 20
1.6520
 30
 0.0
 42
1.0
  0
VERTEX
  8
AST
 10
0.7955
 20
1.6520
 30
 0.0
 42
1.0
  0
SEQEND
  8
AST
  0
POLYLINE
  8
AST
 66
      1
 70
1
 40
0.0060
 41
0.0060
  0
VERTEX
  8
AST
 10
0.9320
 20
1.2250
 30
 0.0
  0
VERTEX
  8
AST
 10
0.9190
 20
1.2130
 30
 0.0
  0
VERTEX
  8
AST
 10
0.9070
 20
1.2250
 30
 0.0
  0
VERTEX
  8
AST
 10
0.8790
 20
1.2250
 30
 0.0
  0
VERTEX
  8
AST
 10
0.8790
 20
1.4700
 30
 0.0
  0
VERTEX
  8
AST
 10
0.9590
 20
1.4700
 30
 0.0
  0
VERTEX
  8
AST
 10
0.9590
 20
1.2250
 30
 0.0
  0
VERTEX
  8
AST
 10
0.9320
 20
1.2250
 30
 0.0
  0
SEQEND
  8
AST
  0
POLYLINE
  8
AST
 66
      1
 70
1
 40
0.0030
 41
0.0030
  0
VERTEX
  8
AST
 10
0.9305
 20
1.2250
 30
 0.0
 42
1.0
  0
VERTEX
  8
AST
 10
0.9335
 20
1.2250
 30
 0.0
 42
1.0
  0
SEQEND
  8
AST
  0
POLYLINE
  8
AST
 66
      1
 70
1
 40
0.0030
 41
0.0030
  0
VERTEX
  8
AST
 10
0.9175
 20
1.2130
 30
 0.0
 42
1.0
  0
VERTEX
  8
AST
 10
0.9205
 20
1.2130
 30
 0.0
 42
1.0
  0
SEQEND
  8
AST
  0
POLYLINE
  8
AST
 66
      1
 70
1
 40
0.0030
 41
0.0030
  0
VERTEX
  8
AST
 10
0.9055
 20
1.2250
 30
 0.0
 42
1.0
  0
VERTEX
  8
AST
 10
0.9085
 20
1.2250
 30
 0.0
 42
1.0
  0
SEQEND
  8
AST
  0
POLYLINE
  8
AST
 66
      1
 70
1
 40
0.0030
 41
0.0030
  0
VERTEX
  8
AST
 10
0.8775
 20
1.2250
 30
 0.0
 42
1.0
  0
VERTEX
  8
AST
 10
0.8805
 20
1.2250
 30
 0.0
 42
1.0
  0
SEQEND
  8
AST
  0
POLYLINE
  8
AST
 66
      1
 70
1
 40
0.0030
 41
0.0030
  0
VERTEX
  8
AST
 10
0.8775
 20
1.4700
 30
 0.0
 42
1.0
  0
VERTEX
  8
AST
 10
0.8805
 20
1.4700
 30
 0.0
 42
1.0
  0
SEQEND
  8
AST
  0
POLYLINE
  8
AST
 66
      1
 70
1
 40
0.0030
 41
0.0030
  0
VERTEX
  8
AST
 10
0.9575
 20
1.4700
 30
 0.0
 42
1.0
  0
VERTEX
  8
AST
 10
0.9605
 20
1.4700
 30
 0.0
 42
1.0
  0
SEQEND
  8
AST
  0
POLYLINE
  8
AST
 66
      1
 70
1
 40
0.0030
 41
0.0030
  0
VERTEX
  8
AST
 10
0.9575
 20
1.2250
 30
 0.0
 42
1.0
  0
VERTEX
  8
AST
 10
0.9605
 20
1.2250
 30
 0.0
 42
1.0
  0
SEQEND
  8
AST
  0
POLYLINE
  8
AST
 66
      1
 70
1
 40
0.0030
 41
0.0030
  0
VERTEX
  8
AST
 10
0.9305
 20
1.2250
 30
 0.0
 42
1.0
  0
VERTEX
  8
AST
 10
0.9335
 20
1.2250
 30
 0.0
 42
1.0
  0
SEQEND
  8
AST
  0
POLYLINE
  8
AST
 66
      1
 70
1
 40
0.0060
 41
0.0060
  0
VERTEX
  8
AST
 10
1.7040
 20
0.6110
 30
 0.0
  0
VERTEX
  8
AST
 10
1.7680
 20
0.6110
 30
 0.0
  0
VERTEX
  8
AST
 10
1.7680
 20
0.4960
 30
 0.0
  0
VERTEX
  8
AST
 10
1.7040
 20
0.4960
 30
 0.0
  0
VERTEX
  8
AST
 10
1.7040
 20
0.6110
 30
 0.0
  0
SEQEND
  8
AST
  0
POLYLINE
  8
AST
 66
      1
 70
1
 40
0.0030
 41
0.0030
  0
VERTEX
  8
AST
 10
1.7025
 20
0.6110
 30
 0.0
 42
1.0
  0
VERTEX
  8
AST
 10
1.7055
 20
0.6110
 30
 0.0
 42
1.0
  0
SEQEND
  8
AST
  0
POLYLINE
  8
AST
 66
      1
 70
1
 40
0.0030
 41
0.0030
  0
VERTEX
  8
AST
 10
1.7665
 20
0.6110
 30
 0.0
 42
1.0
  0
VERTEX
  8
AST
 10
1.7695
 20
0.6110
 30
 0.0
 42
1.0
  0
SEQEND
  8
AST
  0
POLYLINE
  8
AST
 66
      1
 70
1
 40
0.0030
 41
0.0030
  0
VERTEX
  8
AST
 10
1.7665
 20
0.4960
 30
 0.0
 42
1.0
  0
VERTEX
  8
AST
 10
1.7695
 20
0.4960
 30
 0.0
 42
1.0
  0
SEQEND
  8
AST
  0
POLYLINE
  8
AST
 66
      1
 70
1
 40
0.0030
 41
0.0030
  0
VERTEX
  8
AST
 10
1.7025
 20
0.4960
 30
 0.0
 42
1.0
  0
VERTEX
  8
AST
 10
1.7055
 20
0.4960
 30
 0.0
 42
1.0
  0
SEQEND
  8
AST
  0
POLYLINE
  8
AST
 66
      1
 70
1
 40
0.0030
 41
0.0030
  0
VERTEX
  8
AST
 10
1.7025
 20
0.6110
 30
 0.0
 42
1.0
  0
VERTEX
  8
AST
 10
1.7055
 20
0.6110
 30
 0.0
 42
1.0
  0
SEQEND
  8
AST
  0
POLYLINE
  8
AST
 66
      1
 70
1
 40
0.0060
 41
0.0060
  0
VERTEX
  8
AST
 10
0.8960
 20
1.6520
 30
 0.0
  0
VERTEX
  8
AST
 10
0.8310
 20
1.6520
 30
 0.0
  0
VERTEX
  8
AST
 10
0.8310
 20
1.7670
 30
 0.0
  0
VERTEX
  8
AST
 10
0.8960
 20
1.7670
 30
 0.0
  0
VERTEX
  8
AST
 10
0.8960
 20
1.6520
 30
 0.0
  0
SEQEND
  8
AST
  0
POLYLINE
  8
AST
 66
      1
 70
1
 40
0.0030
 41
0.0030
  0
VERTEX
  8
AST
 10
0.8945
 20
1.6520
 30
 0.0
 42
1.0
  0
VERTEX
  8
AST
 10
0.8975
 20
1.6520
 30
 0.0
 42
1.0
  0
SEQEND
  8
AST
  0
POLYLINE
  8
AST
 66
      1
 70
1
 40
0.0030
 41
0.0030
  0
VERTEX
  8
AST
 10
0.8295
 20
1.6520
 30
 0.0
 42
1.0
  0
VERTEX
  8
AST
 10
0.8325
 20
1.6520
 30
 0.0
 42
1.0
  0
SEQEND
  8
AST
  0
POLYLINE
  8
AST
 66
      1
 70
1
 40
0.0030
 41
0.0030
  0
VERTEX
  8
AST
 10
0.8295
 20
1.7670
 30
 0.0
 42
1.0
  0
VERTEX
  8
AST
 10
0.8325
 20
1.7670
 30
 0.0
 42
1.0
  0
SEQEND
  8
AST
  0
POLYLINE
  8
AST
 66
      1
 70
1
 40
0.0030
 41
0.0030
  0
VERTEX
  8
AST
 10
0.8945
 20
1.7670
 30
 0.0
 42
1.0
  0
VERTEX
  8
AST
 10
0.8975
 20
1.7670
 30
 0.0
 42
1.0
  0
SEQEND
  8
AST
  0
POLYLINE
  8
AST
 66
      1
 70
1
 40
0.0030
 41
0.0030
  0
VERTEX
  8
AST
 10
0.8945
 20
1.6520
 30
 0.0
 42
1.0
  0
VERTEX
  8
AST
 10
0.8975
 20
1.6520
 30
 0.0
 42
1.0
  0
SEQEND
  8
AST
  0
POLYLINE
  8
AST
 66
      1
 70
1
 40
0.0060
 41
0.0060
  0
VERTEX
  8
AST
 10
2.3240
 20
0.5640
 30
 0.0
  0
VERTEX
  8
AST
 10
2.2590
 20
0.5640
 30
 0.0
  0
VERTEX
  8
AST
 10
2.2590
 20
0.6790
 30
 0.0
  0
VERTEX
  8
AST
 10
2.3240
 20
0.6790
 30
 0.0
  0
VERTEX
  8
AST
 10
2.3240
 20
0.5640
 30
 0.0
  0
SEQEND
  8
AST
  0
POLYLINE
  8
AST
 66
      1
 70
1
 40
0.0030
 41
0.0030
  0
VERTEX
  8
AST
 10
2.3225
 20
0.5640
 30
 0.0
 42
1.0
  0
VERTEX
  8
AST
 10
2.3255
 20
0.5640
 30
 0.0
 42
1.0
  0
SEQEND
  8
AST
  0
POLYLINE
  8
AST
 66
      1
 70
1
 40
0.0030
 41
0.0030
  0
VERTEX
  8
AST
 10
2.2575
 20
0.5640
 30
 0.0
 42
1.0
  0
VERTEX
  8
AST
 10
2.2605
 20
0.5640
 30
 0.0
 42
1.0
  0
SEQEND
  8
AST
  0
POLYLINE
  8
AST
 66
      1
 70
1
 40
0.0030
 41
0.0030
  0
VERTEX
  8
AST
 10
2.2575
 20
0.6790
 30
 0.0
 42
1.0
  0
VERTEX
  8
AST
 10
2.2605
 20
0.6790
 30
 0.0
 42
1.0
  0
SEQEND
  8
AST
  0
POLYLINE
  8
AST
 66
      1
 70
1
 40
0.0030
 41
0.0030
  0
VERTEX
  8
AST
 10
2.3225
 20
0.6790
 30
 0.0
 42
1.0
  0
VERTEX
  8
AST
 10
2.3255
 20
0.6790
 30
 0.0
 42
1.0
  0
SEQEND
  8
AST
  0
POLYLINE
  8
AST
 66
      1
 70
1
 40
0.0030
 41
0.0030
  0
VERTEX
  8
AST
 10
2.3225
 20
0.5640
 30
 0.0
 42
1.0
  0
VERTEX
  8
AST
 10
2.3255
 20
0.5640
 30
 0.0
 42
1.0
  0
SEQEND
  8
AST
  0
POLYLINE
  8
AST
 66
      1
 70
1
 40
0.0060
 41
0.0060
  0
VERTEX
  8
AST
 10
1.8010
 20
0.3760
 30
 0.0
  0
VERTEX
  8
AST
 10
1.8010
 20
0.4410
 30
 0.0
  0
VERTEX
  8
AST
 10
1.9160
 20
0.4410
 30
 0.0
  0
VERTEX
  8
AST
 10
1.9160
 20
0.3760
 30
 0.0
  0
VERTEX
  8
AST
 10
1.8010
 20
0.3760
 30
 0.0
  0
SEQEND
  8
AST
  0
POLYLINE
  8
AST
 66
      1
 70
1
 40
0.0030
 41
0.0030
  0
VERTEX
  8
AST
 10
1.7995
 20
0.3760
 30
 0.0
 42
1.0
  0
VERTEX
  8
AST
 10
1.8025
 20
0.3760
 30
 0.0
 42
1.0
  0
SEQEND
  8
AST
  0
POLYLINE
  8
AST
 66
      1
 70
1
 40
0.0030
 41
0.0030
  0
VERTEX
  8
AST
 10
1.7995
 20
0.4410
 30
 0.0
 42
1.0
  0
VERTEX
  8
AST
 10
1.8025
 20
0.4410
 30
 0.0
 42
1.0
  0
SEQEND
  8
AST
  0
POLYLINE
  8
AST
 66
      1
 70
1
 40
0.0030
 41
0.0030
  0
VERTEX
  8
AST
 10
1.9145
 20
0.4410
 30
 0.0
 42
1.0
  0
VERTEX
  8
AST
 10
1.9175
 20
0.4410
 30
 0.0
 42
1.0
  0
SEQEND
  8
AST
  0
POLYLINE
  8
AST
 66
      1
 70
1
 40
0.0030
 41
0.0030
  0
VERTEX
  8
AST
 10
1.9145
 20
0.3760
 30
 0.0
 42
1.0
  0
VERTEX
  8
AST
 10
1.9175
 20
0.3760
 30
 0.0
 42
1.0
  0
SEQEND
  8
AST
  0
POLYLINE
  8
AST
 66
      1
 70
1
 40
0.0030
 41
0.0030
  0
VERTEX
  8
AST
 10
1.7995
 20
0.3760
 30
 0.0
 42
1.0
  0
VERTEX
  8
AST
 10
1.8025
 20
0.3760
 30
 0.0
 42
1.0
  0
SEQEND
  8
AST
  0
POLYLINE
  8
AST
 66
      1
 70
1
 40
0.0080
 41
0.0080
  0
VERTEX
  8
AST
 10
2.2660
 20
1.5680
 30
 0.0
  0
VERTEX
  8
AST
 10
2.2260
 20
1.5680
 30
 0.0
  0
VERTEX
  8
AST
 10
2.2260
 20
1.6070
 30
 0.0
  0
VERTEX
  8
AST
 10
2.1710
 20
1.6070
 30
 0.0
  0
VERTEX
  8
AST
 10
2.1710
 20
1.5990
 30
 0.0
  0
VERTEX
  8
AST
 10
2.1710
 20
1.5840
 30
 0.0
  0
VERTEX
  8
AST
 10
2.1710
 20
1.5680
 30
 0.0
  0
VERTEX
  8
AST
 10
2.1320
 20
1.5680
 30
 0.0
  0
VERTEX
  8
AST
 10
2.1320
 20
1.1190
 30
 0.0
  0
VERTEX
  8
AST
 10
2.1710
 20
1.1190
 30
 0.0
  0
VERTEX
  8
AST
 10
2.1710
 20
1.0800
 30
 0.0
  0
VERTEX
  8
AST
 10
2.2260
 20
1.0800
 30
 0.0
  0
VERTEX
  8
AST
 10
2.2260
 20
1.1190
 30
 0.0
  0
VERTEX
  8
AST
 10
2.2660
 20
1.1190
 30
 0.0
  0
VERTEX
  8
AST
 10
2.2660
 20
1.5680
 30
 0.0
  0
SEQEND
  8
AST
  0
POLYLINE
  8
AST
 66
      1
 70
1
 40
0.0040
 41
0.0040
  0
VERTEX
  8
AST
 10
2.2640
 20
1.5680
 30
 0.0
 42
1.0
  0
VERTEX
  8
AST
 10
2.2680
 20
1.5680
 30
 0.0
 42
1.0
  0
SEQEND
  8
AST
  0
POLYLINE
  8
AST
 66
      1
 70
1
 40
0.0040
 41
0.0040
  0
VERTEX
  8
AST
 10
2.2240
 20
1.5680
 30
 0.0
 42
1.0
  0
VERTEX
  8
AST
 10
2.2280
 20
1.5680
 30
 0.0
 42
1.0
  0
SEQEND
  8
AST
  0
POLYLINE
  8
AST
 66
      1
 70
1
 40
0.0040
 41
0.0040
  0
VERTEX
  8
AST
 10
2.2240
 20
1.6070
 30
 0.0
 42
1.0
  0
VERTEX
  8
AST
 10
2.2280
 20
1.6070
 30
 0.0
 42
1.0
  0
SEQEND
  8
AST
  0
POLYLINE
  8
AST
 66
      1
 70
1
 40
0.0040
 41
0.0040
  0
VERTEX
  8
AST
 10
2.1690
 20
1.6070
 30
 0.0
 42
1.0
  0
VERTEX
  8
AST
 10
2.1730
 20
1.6070
 30
 0.0
 42
1.0
  0
SEQEND
  8
AST
  0
POLYLINE
  8
AST
 66
      1
 70
1
 40
0.0040
 41
0.0040
  0
VERTEX
  8
AST
 10
2.1690
 20
1.5990
 30
 0.0
 42
1.0
  0
VERTEX
  8
AST
 10
2.1730
 20
1.5990
 30
 0.0
 42
1.0
  0
SEQEND
  8
AST
  0
POLYLINE
  8
AST
 66
      1
 70
1
 40
0.0040
 41
0.0040
  0
VERTEX
  8
AST
 10
2.1690
 20
1.5840
 30
 0.0
 42
1.0
  0
VERTEX
  8
AST
 10
2.1730
 20
1.5840
 30
 0.0
 42
1.0
  0
SEQEND
  8
AST
  0
POLYLINE
  8
AST
 66
      1
 70
1
 40
0.0040
 41
0.0040
  0
VERTEX
  8
AST
 10
2.1690
 20
1.5680
 30
 0.0
 42
1.0
  0
VERTEX
  8
AST
 10
2.1730
 20
1.5680
 30
 0.0
 42
1.0
  0
SEQEND
  8
AST
  0
POLYLINE
  8
AST
 66
      1
 70
1
 40
0.0040
 41
0.0040
  0
VERTEX
  8
AST
 10
2.1300
 20
1.5680
 30
 0.0
 42
1.0
  0
VERTEX
  8
AST
 10
2.1340
 20
1.5680
 30
 0.0
 42
1.0
  0
SEQEND
  8
AST
  0
POLYLINE
  8
AST
 66
      1
 70
1
 40
0.0040
 41
0.0040
  0
VERTEX
  8
AST
 10
2.1300
 20
1.1190
 30
 0.0
 42
1.0
  0
VERTEX
  8
AST
 10
2.1340
 20
1.1190
 30
 0.0
 42
1.0
  0
SEQEND
  8
AST
  0
POLYLINE
  8
AST
 66
      1
 70
1
 40
0.0040
 41
0.0040
  0
VERTEX
  8
AST
 10
2.1690
 20
1.1190
 30
 0.0
 42
1.0
  0
VERTEX
  8
AST
 10
2.1730
 20
1.1190
 30
 0.0
 42
1.0
  0
SEQEND
  8
AST
  0
POLYLINE
  8
AST
 66
      1
 70
1
 40
0.0040
 41
0.0040
  0
VERTEX
  8
AST
 10
2.1690
 20
1.0800
 30
 0.0
 42
1.0
  0
VERTEX
  8
AST
 10
2.1730
 20
1.0800
 30
 0.0
 42
1.0
  0
SEQEND
  8
AST
  0
POLYLINE
  8
AST
 66
      1
 70
1
 40
0.0040
 41
0.0040
  0
VERTEX
  8
AST
 10
2.2240
 20
1.0800
 30
 0.0
 42
1.0
  0
VERTEX
  8
AST
 10
2.2280
 20
1.0800
 30
 0.0
 42
1.0
  0
SEQEND
  8
AST
  0
POLYLINE
  8
AST
 66
      1
 70
1
 40
0.0040
 41
0.0040
  0
VERTEX
  8
AST
 10
2.2240
 20
1.1190
 30
 0.0
 42
1.0
  0
VERTEX
  8
AST
 10
2.2280
 20
1.1190
 30
 0.0
 42
1.0
  0
SEQEND
  8
AST
  0
POLYLINE
  8
AST
 66
      1
 70
1
 40
0.0040
 41
0.0040
  0
VERTEX
  8
AST
 10
2.2640
 20
1.1190
 30
 0.0
 42
1.0
  0
VERTEX
  8
AST
 10
2.2680
 20
1.1190
 30
 0.0
 42
1.0
  0
SEQEND
  8
AST
  0
POLYLINE
  8
AST
 66
      1
 70
1
 40
0.0040
 41
0.0040
  0
VERTEX
  8
AST
 10
2.2640
 20
1.5680
 30
 0.0
 42
1.0
  0
VERTEX
  8
AST
 10
2.2680
 20
1.5680
 30
 0.0
 42
1.0
  0
SEQEND
  8
AST
  0
POLYLINE
  8
AST
 66
      1
 70
1
 40
0.0060
 41
0.0060
  0
VERTEX
  8
AST
 10
0.7840
 20
0.7400
 30
 0.0
  0
VERTEX
  8
AST
 10
0.8480
 20
0.7400
 30
 0.0
  0
VERTEX
  8
AST
 10
0.8480
 20
0.6250
 30
 0.0
  0
VERTEX
  8
AST
 10
0.7840
 20
0.6250
 30
 0.0
  0
VERTEX
  8
AST
 10
0.7840
 20
0.7400
 30
 0.0
  0
SEQEND
  8
AST
  0
POLYLINE
  8
AST
 66
      1
 70
1
 40
0.0030
 41
0.0030
  0
VERTEX
  8
AST
 10
0.7825
 20
0.7400
 30
 0.0
 42
1.0
  0
VERTEX
  8
AST
 10
0.7855
 20
0.7400
 30
 0.0
 42
1.0
  0
SEQEND
  8
AST
  0
POLYLINE
  8
AST
 66
      1
 70
1
 40
0.0030
 41
0.0030
  0
VERTEX
  8
AST
 10
0.8465
 20
0.7400
 30
 0.0
 42
1.0
  0
VERTEX
  8
AST
 10
0.8495
 20
0.7400
 30
 0.0
 42
1.0
  0
SEQEND
  8
AST
  0
POLYLINE
  8
AST
 66
      1
 70
1
 40
0.0030
 41
0.0030
  0
VERTEX
  8
AST
 10
0.8465
 20
0.6250
 30
 0.0
 42
1.0
  0
VERTEX
  8
AST
 10
0.8495
 20
0.6250
 30
 0.0
 42
1.0
  0
SEQEND
  8
AST
  0
POLYLINE
  8
AST
 66
      1
 70
1
 40
0.0030
 41
0.0030
  0
VERTEX
  8
AST
 10
0.7825
 20
0.6250
 30
 0.0
 42
1.0
  0
VERTEX
  8
AST
 10
0.7855
 20
0.6250
 30
 0.0
 42
1.0
  0
SEQEND
  8
AST
  0
POLYLINE
  8
AST
 66
      1
 70
1
 40
0.0030
 41
0.0030
  0
VERTEX
  8
AST
 10
0.7825
 20
0.7400
 30
 0.0
 42
1.0
  0
VERTEX
  8
AST
 10
0.7855
 20
0.7400
 30
 0.0
 42
1.0
  0
SEQEND
  8
AST
  0
POLYLINE
  8
AST
 66
      1
 70
0
 40
0.0080
 41
0.0080
  0
VERTEX
  8
AST
 10
1.3490
 20
1.1880
 30
 0.0
  0
VERTEX
  8
AST
 10
1.3440
 20
1.1930
 30
 0.0
  0
VERTEX
  8
AST
 10
1.2440
 20
1.1930
 30
 0.0
  0
VERTEX
  8
AST
 10
1.2440
 20
1.4930
 30
 0.0
  0
VERTEX
  8
AST
 10
1.3440
 20
1.4930
 30
 0.0
  0
VERTEX
  8
AST
 10
1.3440
 20
1.1930
 30
 0.0
  0
SEQEND
  8
AST
  0
POLYLINE
  8
AST
 66
      1
 70
1
 40
0.0040
 41
0.0040
  0
VERTEX
  8
AST
 10
1.3470
 20
1.1880
 30
 0.0
 42
1.0
  0
VERTEX
  8
AST
 10
1.3510
 20
1.1880
 30
 0.0
 42
1.0
  0
SEQEND
  8
AST
  0
POLYLINE
  8
AST
 66
      1
 70
1
 40
0.0040
 41
0.0040
  0
VERTEX
  8
AST
 10
1.3420
 20
1.1930
 30
 0.0
 42
1.0
  0
VERTEX
  8
AST
 10
1.3460
 20
1.1930
 30
 0.0
 42
1.0
  0
SEQEND
  8
AST
  0
POLYLINE
  8
AST
 66
      1
 70
1
 40
0.0040
 41
0.0040
  0
VERTEX
  8
AST
 10
1.2420
 20
1.1930
 30
 0.0
 42
1.0
  0
VERTEX
  8
AST
 10
1.2460
 20
1.1930
 30
 0.0
 42
1.0
  0
SEQEND
  8
AST
  0
POLYLINE
  8
AST
 66
      1
 70
1
 40
0.0040
 41
0.0040
  0
VERTEX
  8
AST
 10
1.2420
 20
1.4930
 30
 0.0
 42
1.0
  0
VERTEX
  8
AST
 10
1.2460
 20
1.4930
 30
 0.0
 42
1.0
  0
SEQEND
  8
AST
  0
POLYLINE
  8
AST
 66
      1
 70
1
 40
0.0040
 41
0.0040
  0
VERTEX
  8
AST
 10
1.3420
 20
1.4930
 30
 0.0
 42
1.0
  0
VERTEX
  8
AST
 10
1.3460
 20
1.4930
 30
 0.0
 42
1.0
  0
SEQEND
  8
AST
  0
POLYLINE
  8
AST
 66
      1
 70
1
 40
0.0040
 41
0.0040
  0
VERTEX
  8
AST
 10
1.3420
 20
1.1930
 30
 0.0
 42
1.0
  0
VERTEX
  8
AST
 10
1.3460
 20
1.1930
 30
 0.0
 42
1.0
  0
SEQEND
  8
AST
  0
POLYLINE
  8
AST
 66
      1
 70
0
 40
0.0060
 41
0.0060
  0
VERTEX
  8
AST
 10
0.7330
 20
1.1980
 30
 0.0
  0
VERTEX
  8
AST
 10
0.7330
 20
1.1520
 30
 0.0
  0
VERTEX
  8
AST
 10
0.5870
 20
1.1520
 30
 0.0
  0
SEQEND
  8
AST
  0
POLYLINE
  8
AST
 66
      1
 70
1
 40
0.0030
 41
0.0030
  0
VERTEX
  8
AST
 10
0.7315
 20
1.1980
 30
 0.0
 42
1.0
  0
VERTEX
  8
AST
 10
0.7345
 20
1.1980
 30
 0.0
 42
1.0
  0
SEQEND
  8
AST
  0
POLYLINE
  8
AST
 66
      1
 70
1
 40
0.0030
 41
0.0030
  0
VERTEX
  8
AST
 10
0.7315
 20
1.1520
 30
 0.0
 42
1.0
  0
VERTEX
  8
AST
 10
0.7345
 20
1.1520
 30
 0.0
 42
1.0
  0
SEQEND
  8
AST
  0
POLYLINE
  8
AST
 66
      1
 70
1
 40
0.0030
 41
0.0030
  0
VERTEX
  8
AST
 10
0.5855
 20
1.1520
 30
 0.0
 42
1.0
  0
VERTEX
  8
AST
 10
0.5885
 20
1.1520
 30
 0.0
 42
1.0
  0
SEQEND
  8
AST
  0
POLYLINE
  8
AST
 66
      1
 70
0
 40
0.0060
 41
0.0060
  0
VERTEX
  8
AST
 10
0.5870
 20
1.4160
 30
 0.0
  0
VERTEX
  8
AST
 10
0.7330
 20
1.4160
 30
 0.0
  0
VERTEX
  8
AST
 10
0.7330
 20
1.3700
 30
 0.0
  0
SEQEND
  8
AST
  0
POLYLINE
  8
AST
 66
      1
 70
1
 40
0.0030
 41
0.0030
  0
VERTEX
  8
AST
 10
0.5855
 20
1.4160
 30
 0.0
 42
1.0
  0
VERTEX
  8
AST
 10
0.5885
 20
1.4160
 30
 0.0
 42
1.0
  0
SEQEND
  8
AST
  0
POLYLINE
  8
AST
 66
      1
 70
1
 40
0.0030
 41
0.0030
  0
VERTEX
  8
AST
 10
0.7315
 20
1.4160
 30
 0.0
 42
1.0
  0
VERTEX
  8
AST
 10
0.7345
 20
1.4160
 30
 0.0
 42
1.0
  0
SEQEND
  8
AST
  0
POLYLINE
  8
AST
 66
      1
 70
1
 40
0.0030
 41
0.0030
  0
VERTEX
  8
AST
 10
0.7315
 20
1.3700
 30
 0.0
 42
1.0
  0
VERTEX
  8
AST
 10
0.7345
 20
1.3700
 30
 0.0
 42
1.0
  0
SEQEND
  8
AST
  0
POLYLINE
  8
AST
 66
      1
 70
1
 40
0.0060
 41
0.0060
  0
VERTEX
  8
AST
 10
0.9940
 20
1.6520
 30
 0.0
  0
VERTEX
  8
AST
 10
0.9300
 20
1.6520
 30
 0.0
  0
VERTEX
  8
AST
 10
0.9300
 20
1.7670
 30
 0.0
  0
VERTEX
  8
AST
 10
0.9940
 20
1.7670
 30
 0.0
  0
VERTEX
  8
AST
 10
0.9940
 20
1.6520
 30
 0.0
  0
SEQEND
  8
AST
  0
POLYLINE
  8
AST
 66
      1
 70
1
 40
0.0030
 41
0.0030
  0
VERTEX
  8
AST
 10
0.9925
 20
1.6520
 30
 0.0
 42
1.0
  0
VERTEX
  8
AST
 10
0.9955
 20
1.6520
 30
 0.0
 42
1.0
  0
SEQEND
  8
AST
  0
POLYLINE
  8
AST
 66
      1
 70
1
 40
0.0030
 41
0.0030
  0
VERTEX
  8
AST
 10
0.9285
 20
1.6520
 30
 0.0
 42
1.0
  0
VERTEX
  8
AST
 10
0.9315
 20
1.6520
 30
 0.0
 42
1.0
  0
SEQEND
  8
AST
  0
POLYLINE
  8
AST
 66
      1
 70
1
 40
0.0030
 41
0.0030
  0
VERTEX
  8
AST
 10
0.9285
 20
1.7670
 30
 0.0
 42
1.0
  0
VERTEX
  8
AST
 10
0.9315
 20
1.7670
 30
 0.0
 42
1.0
  0
SEQEND
  8
AST
  0
POLYLINE
  8
AST
 66
      1
 70
1
 40
0.0030
 41
0.0030
  0
VERTEX
  8
AST
 10
0.9925
 20
1.7670
 30
 0.0
 42
1.0
  0
VERTEX
  8
AST
 10
0.9955
 20
1.7670
 30
 0.0
 42
1.0
  0
SEQEND
  8
AST
  0
POLYLINE
  8
AST
 66
      1
 70
1
 40
0.0030
 41
0.0030
  0
VERTEX
  8
AST
 10
0.9925
 20
1.6520
 30
 0.0
 42
1.0
  0
VERTEX
  8
AST
 10
0.9955
 20
1.6520
 30
 0.0
 42
1.0
  0
SEQEND
  8
AST
  0
POLYLINE
  8
AST
 66
      1
 70
1
 40
0.0060
 41
0.0060
  0
VERTEX
  8
AST
 10
1.4510
 20
0.5260
 30
 0.0
  0
VERTEX
  8
AST
 10
1.4510
 20
0.5900
 30
 0.0
  0
VERTEX
  8
AST
 10
1.5660
 20
0.5900
 30
 0.0
  0
VERTEX
  8
AST
 10
1.5660
 20
0.5260
 30
 0.0
  0
VERTEX
  8
AST
 10
1.4510
 20
0.5260
 30
 0.0
  0
SEQEND
  8
AST
  0
POLYLINE
  8
AST
 66
      1
 70
1
 40
0.0030
 41
0.0030
  0
VERTEX
  8
AST
 10
1.4495
 20
0.5260
 30
 0.0
 42
1.0
  0
VERTEX
  8
AST
 10
1.4525
 20
0.5260
 30
 0.0
 42
1.0
  0
SEQEND
  8
AST
  0
POLYLINE
  8
AST
 66
      1
 70
1
 40
0.0030
 41
0.0030
  0
VERTEX
  8
AST
 10
1.4495
 20
0.5900
 30
 0.0
 42
1.0
  0
VERTEX
  8
AST
 10
1.4525
 20
0.5900
 30
 0.0
 42
1.0
  0
SEQEND
  8
AST
  0
POLYLINE
  8
AST
 66
      1
 70
1
 40
0.0030
 41
0.0030
  0
VERTEX
  8
AST
 10
1.5645
 20
0.5900
 30
 0.0
 42
1.0
  0
VERTEX
  8
AST
 10
1.5675
 20
0.5900
 30
 0.0
 42
1.0
  0
SEQEND
  8
AST
  0
POLYLINE
  8
AST
 66
      1
 70
1
 40
0.0030
 41
0.0030
  0
VERTEX
  8
AST
 10
1.5645
 20
0.5260
 30
 0.0
 42
1.0
  0
VERTEX
  8
AST
 10
1.5675
 20
0.5260
 30
 0.0
 42
1.0
  0
SEQEND
  8
AST
  0
POLYLINE
  8
AST
 66
      1
 70
1
 40
0.0030
 41
0.0030
  0
VERTEX
  8
AST
 10
1.4495
 20
0.5260
 30
 0.0
 42
1.0
  0
VERTEX
  8
AST
 10
1.4525
 20
0.5260
 30
 0.0
 42
1.0
  0
SEQEND
  8
AST
  0
POLYLINE
  8
AST
 66
      1
 70
1
 40
0.0080
 41
0.0080
  0
VERTEX
  8
AST
 10
1.9480
 20
0.4520
 30
 0.0
  0
VERTEX
  8
AST
 10
2.1370
 20
0.4520
 30
 0.0
  0
VERTEX
  8
AST
 10
2.1370
 20
0.3660
 30
 0.0
  0
VERTEX
  8
AST
 10
1.9480
 20
0.3660
 30
 0.0
  0
VERTEX
  8
AST
 10
1.9480
 20
0.4520
 30
 0.0
  0
SEQEND
  8
AST
  0
POLYLINE
  8
AST
 66
      1
 70
1
 40
0.0040
 41
0.0040
  0
VERTEX
  8
AST
 10
1.9460
 20
0.4520
 30
 0.0
 42
1.0
  0
VERTEX
  8
AST
 10
1.9500
 20
0.4520
 30
 0.0
 42
1.0
  0
SEQEND
  8
AST
  0
POLYLINE
  8
AST
 66
      1
 70
1
 40
0.0040
 41
0.0040
  0
VERTEX
  8
AST
 10
2.1350
 20
0.4520
 30
 0.0
 42
1.0
  0
VERTEX
  8
AST
 10
2.1390
 20
0.4520
 30
 0.0
 42
1.0
  0
SEQEND
  8
AST
  0
POLYLINE
  8
AST
 66
      1
 70
1
 40
0.0040
 41
0.0040
  0
VERTEX
  8
AST
 10
2.1350
 20
0.3660
 30
 0.0
 42
1.0
  0
VERTEX
  8
AST
 10
2.1390
 20
0.3660
 30
 0.0
 42
1.0
  0
SEQEND
  8
AST
  0
POLYLINE
  8
AST
 66
      1
 70
1
 40
0.0040
 41
0.0040
  0
VERTEX
  8
AST
 10
1.9460
 20
0.3660
 30
 0.0
 42
1.0
  0
VERTEX
  8
AST
 10
1.9500
 20
0.3660
 30
 0.0
 42
1.0
  0
SEQEND
  8
AST
  0
POLYLINE
  8
AST
 66
      1
 70
1
 40
0.0040
 41
0.0040
  0
VERTEX
  8
AST
 10
1.9460
 20
0.4520
 30
 0.0
 42
1.0
  0
VERTEX
  8
AST
 10
1.9500
 20
0.4520
 30
 0.0
 42
1.0
  0
SEQEND
  8
AST
  0
POLYLINE
  8
AST
 66
      1
 70
1
 40
0.0060
 41
0.0060
  0
VERTEX
  8
AST
 10
2.0780
 20
0.8790
 30
 0.0
  0
VERTEX
  8
AST
 10
2.0780
 20
0.8140
 30
 0.0
  0
VERTEX
  8
AST
 10
1.9630
 20
0.8140
 30
 0.0
  0
VERTEX
  8
AST
 10
1.9630
 20
0.8790
 30
 0.0
  0
VERTEX
  8
AST
 10
2.0780
 20
0.8790
 30
 0.0
  0
SEQEND
  8
AST
  0
POLYLINE
  8
AST
 66
      1
 70
1
 40
0.0030
 41
0.0030
  0
VERTEX
  8
AST
 10
2.0765
 20
0.8790
 30
 0.0
 42
1.0
  0
VERTEX
  8
AST
 10
2.0795
 20
0.8790
 30
 0.0
 42
1.0
  0
SEQEND
  8
AST
  0
POLYLINE
  8
AST
 66
      1
 70
1
 40
0.0030
 41
0.0030
  0
VERTEX
  8
AST
 10
2.0765
 20
0.8140
 30
 0.0
 42
1.0
  0
VERTEX
  8
AST
 10
2.0795
 20
0.8140
 30
 0.0
 42
1.0
  0
SEQEND
  8
AST
  0
POLYLINE
  8
AST
 66
      1
 70
1
 40
0.0030
 41
0.0030
  0
VERTEX
  8
AST
 10
1.9615
 20
0.8140
 30
 0.0
 42
1.0
  0
VERTEX
  8
AST
 10
1.9645
 20
0.8140
 30
 0.0
 42
1.0
  0
SEQEND
  8
AST
  0
POLYLINE
  8
AST
 66
      1
 70
1
 40
0.0030
 41
0.0030
  0
VERTEX
  8
AST
 10
1.9615
 20
0.8790
 30
 0.0
 42
1.0
  0
VERTEX
  8
AST
 10
1.9645
 20
0.8790
 30
 0.0
 42
1.0
  0
SEQEND
  8
AST
  0
POLYLINE
  8
AST
 66
      1
 70
1
 40
0.0030
 41
0.0030
  0
VERTEX
  8
AST
 10
2.0765
 20
0.8790
 30
 0.0
 42
1.0
  0
VERTEX
  8
AST
 10
2.0795
 20
0.8790
 30
 0.0
 42
1.0
  0
SEQEND
  8
AST
  0
POLYLINE
  8
AST
 66
      1
 70
1
 40
0.0060
 41
0.0060
  0
VERTEX
  8
AST
 10
1.9640
 20
0.5150
 30
 0.0
  0
VERTEX
  8
AST
 10
1.9640
 20
0.5790
 30
 0.0
  0
VERTEX
  8
AST
 10
2.0790
 20
0.5790
 30
 0.0
  0
VERTEX
  8
AST
 10
2.0790
 20
0.5150
 30
 0.0
  0
VERTEX
  8
AST
 10
1.9640
 20
0.5150
 30
 0.0
  0
SEQEND
  8
AST
  0
POLYLINE
  8
AST
 66
      1
 70
1
 40
0.0030
 41
0.0030
  0
VERTEX
  8
AST
 10
1.9625
 20
0.5150
 30
 0.0
 42
1.0
  0
VERTEX
  8
AST
 10
1.9655
 20
0.5150
 30
 0.0
 42
1.0
  0
SEQEND
  8
AST
  0
POLYLINE
  8
AST
 66
      1
 70
1
 40
0.0030
 41
0.0030
  0
VERTEX
  8
AST
 10
1.9625
 20
0.5790
 30
 0.0
 42
1.0
  0
VERTEX
  8
AST
 10
1.9655
 20
0.5790
 30
 0.0
 42
1.0
  0
SEQEND
  8
AST
  0
POLYLINE
  8
AST
 66
      1
 70
1
 40
0.0030
 41
0.0030
  0
VERTEX
  8
AST
 10
2.0775
 20
0.5790
 30
 0.0
 42
1.0
  0
VERTEX
  8
AST
 10
2.0805
 20
0.5790
 30
 0.0
 42
1.0
  0
SEQEND
  8
AST
  0
POLYLINE
  8
AST
 66
      1
 70
1
 40
0.0030
 41
0.0030
  0
VERTEX
  8
AST
 10
2.0775
 20
0.5150
 30
 0.0
 42
1.0
  0
VERTEX
  8
AST
 10
2.0805
 20
0.5150
 30
 0.0
 42
1.0
  0
SEQEND
  8
AST
  0
POLYLINE
  8
AST
 66
      1
 70
1
 40
0.0030
 41
0.0030
  0
VERTEX
  8
AST
 10
1.9625
 20
0.5150
 30
 0.0
 42
1.0
  0
VERTEX
  8
AST
 10
1.9655
 20
0.5150
 30
 0.0
 42
1.0
  0
SEQEND
  8
AST
  0
POLYLINE
  8
AST
 66
      1
 70
0
 40
0.0060
 41
0.0060
  0
VERTEX
  8
AST
 10
0.4910
 20
1.6620
 30
 0.0
  0
VERTEX
  8
AST
 10
0.4650
 20
1.6620
 30
 0.0
  0
VERTEX
  8
AST
 10
0.4650
 20
1.6920
 30
 0.0
  0
SEQEND
  8
AST
  0
POLYLINE
  8
AST
 66
      1
 70
1
 40
0.0030
 41
0.0030
  0
VERTEX
  8
AST
 10
0.4895
 20
1.6620
 30
 0.0
 42
1.0
  0
VERTEX
  8
AST
 10
0.4925
 20
1.6620
 30
 0.0
 42
1.0
  0
SEQEND
  8
AST
  0
POLYLINE
  8
AST
 66
      1
 70
1
 40
0.0030
 41
0.0030
  0
VERTEX
  8
AST
 10
0.4635
 20
1.6620
 30
 0.0
 42
1.0
  0
VERTEX
  8
AST
 10
0.4665
 20
1.6620
 30
 0.0
 42
1.0
  0
SEQEND
  8
AST
  0
POLYLINE
  8
AST
 66
      1
 70
1
 40
0.0030
 41
0.0030
  0
VERTEX
  8
AST
 10
0.4635
 20
1.6920
 30
 0.0
 42
1.0
  0
VERTEX
  8
AST
 10
0.4665
 20
1.6920
 30
 0.0
 42
1.0
  0
SEQEND
  8
AST
  0
POLYLINE
  8
AST
 66
      1
 70
0
 40
0.0060
 41
0.0060
  0
VERTEX
  8
AST
 10
0.5900
 20
1.6920
 30
 0.0
  0
VERTEX
  8
AST
 10
0.5850
 20
1.6920
 30
 0.0
  0
VERTEX
  8
AST
 10
0.5850
 20
1.6620
 30
 0.0
  0
VERTEX
  8
AST
 10
0.5590
 20
1.6620
 30
 0.0
  0
SEQEND
  8
AST
  0
POLYLINE
  8
AST
 66
      1
 70
1
 40
0.0030
 41
0.0030
  0
VERTEX
  8
AST
 10
0.5885
 20
1.6920
 30
 0.0
 42
1.0
  0
VERTEX
  8
AST
 10
0.5915
 20
1.6920
 30
 0.0
 42
1.0
  0
SEQEND
  8
AST
  0
POLYLINE
  8
AST
 66
      1
 70
1
 40
0.0030
 41
0.0030
  0
VERTEX
  8
AST
 10
0.5835
 20
1.6920
 30
 0.0
 42
1.0
  0
VERTEX
  8
AST
 10
0.5865
 20
1.6920
 30
 0.0
 42
1.0
  0
SEQEND
  8
AST
  0
POLYLINE
  8
AST
 66
      1
 70
1
 40
0.0030
 41
0.0030
  0
VERTEX
  8
AST
 10
0.5835
 20
1.6620
 30
 0.0
 42
1.0
  0
VERTEX
  8
AST
 10
0.5865
 20
1.6620
 30
 0.0
 42
1.0
  0
SEQEND
  8
AST
  0
POLYLINE
  8
AST
 66
      1
 70
1
 40
0.0030
 41
0.0030
  0
VERTEX
  8
AST
 10
0.5575
 20
1.6620
 30
 0.0
 42
1.0
  0
VERTEX
  8
AST
 10
0.5605
 20
1.6620
 30
 0.0
 42
1.0
  0
SEQEND
  8
AST
  0
POLYLINE
  8
AST
 66
      1
 70
1
 40
0.0060
 41
0.0060
  0
VERTEX
  8
AST
 10
0.5520
 20
0.4020
 30
 0.0
  0
VERTEX
  8
AST
 10
0.5520
 20
0.4660
 30
 0.0
  0
VERTEX
  8
AST
 10
0.6670
 20
0.4660
 30
 0.0
  0
VERTEX
  8
AST
 10
0.6670
 20
0.4020
 30
 0.0
  0
VERTEX
  8
AST
 10
0.5520
 20
0.4020
 30
 0.0
  0
SEQEND
  8
AST
  0
POLYLINE
  8
AST
 66
      1
 70
1
 40
0.0030
 41
0.0030
  0
VERTEX
  8
AST
 10
0.5505
 20
0.4020
 30
 0.0
 42
1.0
  0
VERTEX
  8
AST
 10
0.5535
 20
0.4020
 30
 0.0
 42
1.0
  0
SEQEND
  8
AST
  0
POLYLINE
  8
AST
 66
      1
 70
1
 40
0.0030
 41
0.0030
  0
VERTEX
  8
AST
 10
0.5505
 20
0.4660
 30
 0.0
 42
1.0
  0
VERTEX
  8
AST
 10
0.5535
 20
0.4660
 30
 0.0
 42
1.0
  0
SEQEND
  8
AST
  0
POLYLINE
  8
AST
 66
      1
 70
1
 40
0.0030
 41
0.0030
  0
VERTEX
  8
AST
 10
0.6655
 20
0.4660
 30
 0.0
 42
1.0
  0
VERTEX
  8
AST
 10
0.6685
 20
0.4660
 30
 0.0
 42
1.0
  0
SEQEND
  8
AST
  0
POLYLINE
  8
AST
 66
      1
 70
1
 40
0.0030
 41
0.0030
  0
VERTEX
  8
AST
 10
0.6655
 20
0.4020
 30
 0.0
 42
1.0
  0
VERTEX
  8
AST
 10
0.6685
 20
0.4020
 30
 0.0
 42
1.0
  0
SEQEND
  8
AST
  0
POLYLINE
  8
AST
 66
      1
 70
1
 40
0.0030
 41
0.0030
  0
VERTEX
  8
AST
 10
0.5505
 20
0.4020
 30
 0.0
 42
1.0
  0
VERTEX
  8
AST
 10
0.5535
 20
0.4020
 30
 0.0
 42
1.0
  0
SEQEND
  8
AST
  0
POLYLINE
  8
AST
 66
      1
 70
1
 40
0.0060
 41
0.0060
  0
VERTEX
  8
AST
 10
1.4250
 20
1.2910
 30
 0.0
  0
VERTEX
  8
AST
 10
1.4890
 20
1.2910
 30
 0.0
  0
VERTEX
  8
AST
 10
1.4890
 20
1.1760
 30
 0.0
  0
VERTEX
  8
AST
 10
1.4250
 20
1.1760
 30
 0.0
  0
VERTEX
  8
AST
 10
1.4250
 20
1.2910
 30
 0.0
  0
SEQEND
  8
AST
  0
POLYLINE
  8
AST
 66
      1
 70
1
 40
0.0030
 41
0.0030
  0
VERTEX
  8
AST
 10
1.4235
 20
1.2910
 30
 0.0
 42
1.0
  0
VERTEX
  8
AST
 10
1.4265
 20
1.2910
 30
 0.0
 42
1.0
  0
SEQEND
  8
AST
  0
POLYLINE
  8
AST
 66
      1
 70
1
 40
0.0030
 41
0.0030
  0
VERTEX
  8
AST
 10
1.4875
 20
1.2910
 30
 0.0
 42
1.0
  0
VERTEX
  8
AST
 10
1.4905
 20
1.2910
 30
 0.0
 42
1.0
  0
SEQEND
  8
AST
  0
POLYLINE
  8
AST
 66
      1
 70
1
 40
0.0030
 41
0.0030
  0
VERTEX
  8
AST
 10
1.4875
 20
1.1760
 30
 0.0
 42
1.0
  0
VERTEX
  8
AST
 10
1.4905
 20
1.1760
 30
 0.0
 42
1.0
  0
SEQEND
  8
AST
  0
POLYLINE
  8
AST
 66
      1
 70
1
 40
0.0030
 41
0.0030
  0
VERTEX
  8
AST
 10
1.4235
 20
1.1760
 30
 0.0
 42
1.0
  0
VERTEX
  8
AST
 10
1.4265
 20
1.1760
 30
 0.0
 42
1.0
  0
SEQEND
  8
AST
  0
POLYLINE
  8
AST
 66
      1
 70
1
 40
0.0030
 41
0.0030
  0
VERTEX
  8
AST
 10
1.4235
 20
1.2910
 30
 0.0
 42
1.0
  0
VERTEX
  8
AST
 10
1.4265
 20
1.2910
 30
 0.0
 42
1.0
  0
SEQEND
  8
AST
  0
POLYLINE
  8
AST
 66
      1
 70
1
 40
0.0060
 41
0.0060
  0
VERTEX
  8
AST
 10
2.3230
 20
1.5540
 30
 0.0
  0
VERTEX
  8
AST
 10
2.3870
 20
1.5540
 30
 0.0
  0
VERTEX
  8
AST
 10
2.3870
 20
1.4390
 30
 0.0
  0
VERTEX
  8
AST
 10
2.3230
 20
1.4390
 30
 0.0
  0
VERTEX
  8
AST
 10
2.3230
 20
1.5540
 30
 0.0
  0
SEQEND
  8
AST
  0
POLYLINE
  8
AST
 66
      1
 70
1
 40
0.0030
 41
0.0030
  0
VERTEX
  8
AST
 10
2.3215
 20
1.5540
 30
 0.0
 42
1.0
  0
VERTEX
  8
AST
 10
2.3245
 20
1.5540
 30
 0.0
 42
1.0
  0
SEQEND
  8
AST
  0
POLYLINE
  8
AST
 66
      1
 70
1
 40
0.0030
 41
0.0030
  0
VERTEX
  8
AST
 10
2.3855
 20
1.5540
 30
 0.0
 42
1.0
  0
VERTEX
  8
AST
 10
2.3885
 20
1.5540
 30
 0.0
 42
1.0
  0
SEQEND
  8
AST
  0
POLYLINE
  8
AST
 66
      1
 70
1
 40
0.0030
 41
0.0030
  0
VERTEX
  8
AST
 10
2.3855
 20
1.4390
 30
 0.0
 42
1.0
  0
VERTEX
  8
AST
 10
2.3885
 20
1.4390
 30
 0.0
 42
1.0
  0
SEQEND
  8
AST
  0
POLYLINE
  8
AST
 66
      1
 70
1
 40
0.0030
 41
0.0030
  0
VERTEX
  8
AST
 10
2.3215
 20
1.4390
 30
 0.0
 42
1.0
  0
VERTEX
  8
AST
 10
2.3245
 20
1.4390
 30
 0.0
 42
1.0
  0
SEQEND
  8
AST
  0
POLYLINE
  8
AST
 66
      1
 70
1
 40
0.0030
 41
0.0030
  0
VERTEX
  8
AST
 10
2.3215
 20
1.5540
 30
 0.0
 42
1.0
  0
VERTEX
  8
AST
 10
2.3245
 20
1.5540
 30
 0.0
 42
1.0
  0
SEQEND
  8
AST
  0
POLYLINE
  8
AST
 66
      1
 70
1
 40
0.0060
 41
0.0060
  0
VERTEX
  8
AST
 10
0.8080
 20
0.8620
 30
 0.0
  0
VERTEX
  8
AST
 10
0.8720
 20
0.8620
 30
 0.0
  0
VERTEX
  8
AST
 10
0.8720
 20
0.7470
 30
 0.0
  0
VERTEX
  8
AST
 10
0.8080
 20
0.7470
 30
 0.0
  0
VERTEX
  8
AST
 10
0.8080
 20
0.8620
 30
 0.0
  0
SEQEND
  8
AST
  0
POLYLINE
  8
AST
 66
      1
 70
1
 40
0.0030
 41
0.0030
  0
VERTEX
  8
AST
 10
0.8065
 20
0.8620
 30
 0.0
 42
1.0
  0
VERTEX
  8
AST
 10
0.8095
 20
0.8620
 30
 0.0
 42
1.0
  0
SEQEND
  8
AST
  0
POLYLINE
  8
AST
 66
      1
 70
1
 40
0.0030
 41
0.0030
  0
VERTEX
  8
AST
 10
0.8705
 20
0.8620
 30
 0.0
 42
1.0
  0
VERTEX
  8
AST
 10
0.8735
 20
0.8620
 30
 0.0
 42
1.0
  0
SEQEND
  8
AST
  0
POLYLINE
  8
AST
 66
      1
 70
1
 40
0.0030
 41
0.0030
  0
VERTEX
  8
AST
 10
0.8705
 20
0.7470
 30
 0.0
 42
1.0
  0
VERTEX
  8
AST
 10
0.8735
 20
0.7470
 30
 0.0
 42
1.0
  0
SEQEND
  8
AST
  0
POLYLINE
  8
AST
 66
      1
 70
1
 40
0.0030
 41
0.0030
  0
VERTEX
  8
AST
 10
0.8065
 20
0.7470
 30
 0.0
 42
1.0
  0
VERTEX
  8
AST
 10
0.8095
 20
0.7470
 30
 0.0
 42
1.0
  0
SEQEND
  8
AST
  0
POLYLINE
  8
AST
 66
      1
 70
1
 40
0.0030
 41
0.0030
  0
VERTEX
  8
AST
 10
0.8065
 20
0.8620
 30
 0.0
 42
1.0
  0
VERTEX
  8
AST
 10
0.8095
 20
0.8620
 30
 0.0
 42
1.0
  0
SEQEND
  8
AST
  0
POLYLINE
  8
AST
 66
      1
 70
1
 40
0.0060
 41
0.0060
  0
VERTEX
  8
AST
 10
1.8830
 20
0.9330
 30
 0.0
  0
VERTEX
  8
AST
 10
1.9480
 20
0.9330
 30
 0.0
  0
VERTEX
  8
AST
 10
1.9480
 20
0.8180
 30
 0.0
  0
VERTEX
  8
AST
 10
1.8830
 20
0.8180
 30
 0.0
  0
VERTEX
  8
AST
 10
1.8830
 20
0.9330
 30
 0.0
  0
SEQEND
  8
AST
  0
POLYLINE
  8
AST
 66
      1
 70
1
 40
0.0030
 41
0.0030
  0
VERTEX
  8
AST
 10
1.8815
 20
0.9330
 30
 0.0
 42
1.0
  0
VERTEX
  8
AST
 10
1.8845
 20
0.9330
 30
 0.0
 42
1.0
  0
SEQEND
  8
AST
  0
POLYLINE
  8
AST
 66
      1
 70
1
 40
0.0030
 41
0.0030
  0
VERTEX
  8
AST
 10
1.9465
 20
0.9330
 30
 0.0
 42
1.0
  0
VERTEX
  8
AST
 10
1.9495
 20
0.9330
 30
 0.0
 42
1.0
  0
SEQEND
  8
AST
  0
POLYLINE
  8
AST
 66
      1
 70
1
 40
0.0030
 41
0.0030
  0
VERTEX
  8
AST
 10
1.9465
 20
0.8180
 30
 0.0
 42
1.0
  0
VERTEX
  8
AST
 10
1.9495
 20
0.8180
 30
 0.0
 42
1.0
  0
SEQEND
  8
AST
  0
POLYLINE
  8
AST
 66
      1
 70
1
 40
0.0030
 41
0.0030
  0
VERTEX
  8
AST
 10
1.8815
 20
0.8180
 30
 0.0
 42
1.0
  0
VERTEX
  8
AST
 10
1.8845
 20
0.8180
 30
 0.0
 42
1.0
  0
SEQEND
  8
AST
  0
POLYLINE
  8
AST
 66
      1
 70
1
 40
0.0030
 41
0.0030
  0
VERTEX
  8
AST
 10
1.8815
 20
0.9330
 30
 0.0
 42
1.0
  0
VERTEX
  8
AST
 10
1.8845
 20
0.9330
 30
 0.0
 42
1.0
  0
SEQEND
  8
AST
  0
POLYLINE
  8
AST
 66
      1
 70
1
 40
0.0040
 41
0.0040
  0
VERTEX
  8
AST
 10
2.3660
 20
0.7830
 30
 0.0
  0
VERTEX
  8
AST
 10
2.3620
 20
0.7870
 30
 0.0
  0
VERTEX
  8
AST
 10
2.3580
 20
0.7830
 30
 0.0
  0
VERTEX
  8
AST
 10
2.3580
 20
0.7750
 30
 0.0
  0
VERTEX
  8
AST
 10
2.3660
 20
0.7750
 30
 0.0
  0
VERTEX
  8
AST
 10
2.3660
 20
0.7830
 30
 0.0
  0
SEQEND
  8
AST
  0
POLYLINE
  8
AST
 66
      1
 70
1
 40
0.0020
 41
0.0020
  0
VERTEX
  8
AST
 10
2.3650
 20
0.7830
 30
 0.0
 42
1.0
  0
VERTEX
  8
AST
 10
2.3670
 20
0.7830
 30
 0.0
 42
1.0
  0
SEQEND
  8
AST
  0
POLYLINE
  8
AST
 66
      1
 70
1
 40
0.0020
 41
0.0020
  0
VERTEX
  8
AST
 10
2.3610
 20
0.7870
 30
 0.0
 42
1.0
  0
VERTEX
  8
AST
 10
2.3630
 20
0.7870
 30
 0.0
 42
1.0
  0
SEQEND
  8
AST
  0
POLYLINE
  8
AST
 66
      1
 70
1
 40
0.0020
 41
0.0020
  0
VERTEX
  8
AST
 10
2.3570
 20
0.7830
 30
 0.0
 42
1.0
  0
VERTEX
  8
AST
 10
2.3590
 20
0.7830
 30
 0.0
 42
1.0
  0
SEQEND
  8
AST
  0
POLYLINE
  8
AST
 66
      1
 70
1
 40
0.0020
 41
0.0020
  0
VERTEX
  8
AST
 10
2.3570
 20
0.7750
 30
 0.0
 42
1.0
  0
VERTEX
  8
AST
 10
2.3590
 20
0.7750
 30
 0.0
 42
1.0
  0
SEQEND
  8
AST
  0
POLYLINE
  8
AST
 66
      1
 70
1
 40
0.0020
 41
0.0020
  0
VERTEX
  8
AST
 10
2.3650
 20
0.7750
 30
 0.0
 42
1.0
  0
VERTEX
  8
AST
 10
2.3670
 20
0.7750
 30
 0.0
 42
1.0
  0
SEQEND
  8
AST
  0
POLYLINE
  8
AST
 66
      1
 70
1
 40
0.0020
 41
0.0020
  0
VERTEX
  8
AST
 10
2.3650
 20
0.7830
 30
 0.0
 42
1.0
  0
VERTEX
  8
AST
 10
2.3670
 20
0.7830
 30
 0.0
 42
1.0
  0
SEQEND
  8
AST
  0
POLYLINE
  8
AST
 66
      1
 70
1
 40
0.0040
 41
0.0040
  0
VERTEX
  8
AST
 10
2.3780
 20
0.7980
 30
 0.0
  0
VERTEX
  8
AST
 10
2.3780
 20
0.8060
 30
 0.0
  0
VERTEX
  8
AST
 10
2.3470
 20
0.8060
 30
 0.0
  0
VERTEX
  8
AST
 10
2.3470
 20
0.7120
 30
 0.0
  0
VERTEX
  8
AST
 10
2.3780
 20
0.7120
 30
 0.0
  0
VERTEX
  8
AST
 10
2.3780
 20
0.7980
 30
 0.0
  0
SEQEND
  8
AST
  0
POLYLINE
  8
AST
 66
      1
 70
1
 40
0.0020
 41
0.0020
  0
VERTEX
  8
AST
 10
2.3770
 20
0.7980
 30
 0.0
 42
1.0
  0
VERTEX
  8
AST
 10
2.3790
 20
0.7980
 30
 0.0
 42
1.0
  0
SEQEND
  8
AST
  0
POLYLINE
  8
AST
 66
      1
 70
1
 40
0.0020
 41
0.0020
  0
VERTEX
  8
AST
 10
2.3770
 20
0.8060
 30
 0.0
 42
1.0
  0
VERTEX
  8
AST
 10
2.3790
 20
0.8060
 30
 0.0
 42
1.0
  0
SEQEND
  8
AST
  0
POLYLINE
  8
AST
 66
      1
 70
1
 40
0.0020
 41
0.0020
  0
VERTEX
  8
AST
 10
2.3460
 20
0.8060
 30
 0.0
 42
1.0
  0
VERTEX
  8
AST
 10
2.3480
 20
0.8060
 30
 0.0
 42
1.0
  0
SEQEND
  8
AST
  0
POLYLINE
  8
AST
 66
      1
 70
1
 40
0.0020
 41
0.0020
  0
VERTEX
  8
AST
 10
2.3460
 20
0.7120
 30
 0.0
 42
1.0
  0
VERTEX
  8
AST
 10
2.3480
 20
0.7120
 30
 0.0
 42
1.0
  0
SEQEND
  8
AST
  0
POLYLINE
  8
AST
 66
      1
 70
1
 40
0.0020
 41
0.0020
  0
VERTEX
  8
AST
 10
2.3770
 20
0.7120
 30
 0.0
 42
1.0
  0
VERTEX
  8
AST
 10
2.3790
 20
0.7120
 30
 0.0
 42
1.0
  0
SEQEND
  8
AST
  0
POLYLINE
  8
AST
 66
      1
 70
1
 40
0.0020
 41
0.0020
  0
VERTEX
  8
AST
 10
2.3770
 20
0.7980
 30
 0.0
 42
1.0
  0
VERTEX
  8
AST
 10
2.3790
 20
0.7980
 30
 0.0
 42
1.0
  0
SEQEND
  8
AST
  0
POLYLINE
  8
AST
 66
      1
 70
1
 40
0.0060
 41
0.0060
  0
VERTEX
  8
AST
 10
0.6960
 20
1.6520
 30
 0.0
  0
VERTEX
  8
AST
 10
0.6310
 20
1.6520
 30
 0.0
  0
VERTEX
  8
AST
 10
0.6310
 20
1.7670
 30
 0.0
  0
VERTEX
  8
AST
 10
0.6960
 20
1.7670
 30
 0.0
  0
VERTEX
  8
AST
 10
0.6960
 20
1.6520
 30
 0.0
  0
SEQEND
  8
AST
  0
POLYLINE
  8
AST
 66
      1
 70
1
 40
0.0030
 41
0.0030
  0
VERTEX
  8
AST
 10
0.6945
 20
1.6520
 30
 0.0
 42
1.0
  0
VERTEX
  8
AST
 10
0.6975
 20
1.6520
 30
 0.0
 42
1.0
  0
SEQEND
  8
AST
  0
POLYLINE
  8
AST
 66
      1
 70
1
 40
0.0030
 41
0.0030
  0
VERTEX
  8
AST
 10
0.6295
 20
1.6520
 30
 0.0
 42
1.0
  0
VERTEX
  8
AST
 10
0.6325
 20
1.6520
 30
 0.0
 42
1.0
  0
SEQEND
  8
AST
  0
POLYLINE
  8
AST
 66
      1
 70
1
 40
0.0030
 41
0.0030
  0
VERTEX
  8
AST
 10
0.6295
 20
1.7670
 30
 0.0
 42
1.0
  0
VERTEX
  8
AST
 10
0.6325
 20
1.7670
 30
 0.0
 42
1.0
  0
SEQEND
  8
AST
  0
POLYLINE
  8
AST
 66
      1
 70
1
 40
0.0030
 41
0.0030
  0
VERTEX
  8
AST
 10
0.6945
 20
1.7670
 30
 0.0
 42
1.0
  0
VERTEX
  8
AST
 10
0.6975
 20
1.7670
 30
 0.0
 42
1.0
  0
SEQEND
  8
AST
  0
POLYLINE
  8
AST
 66
      1
 70
1
 40
0.0030
 41
0.0030
  0
VERTEX
  8
AST
 10
0.6945
 20
1.6520
 30
 0.0
 42
1.0
  0
VERTEX
  8
AST
 10
0.6975
 20
1.6520
 30
 0.0
 42
1.0
  0
SEQEND
  8
AST
  0
POLYLINE
  8
AST
 66
      1
 70
1
 40
0.0060
 41
0.0060
  0
VERTEX
  8
AST
 10
1.9430
 20
1.7430
 30
 0.0
  0
VERTEX
  8
AST
 10
2.0070
 20
1.7430
 30
 0.0
  0
VERTEX
  8
AST
 10
2.0070
 20
1.6280
 30
 0.0
  0
VERTEX
  8
AST
 10
1.9430
 20
1.6280
 30
 0.0
  0
VERTEX
  8
AST
 10
1.9430
 20
1.7430
 30
 0.0
  0
SEQEND
  8
AST
  0
POLYLINE
  8
AST
 66
      1
 70
1
 40
0.0030
 41
0.0030
  0
VERTEX
  8
AST
 10
1.9415
 20
1.7430
 30
 0.0
 42
1.0
  0
VERTEX
  8
AST
 10
1.9445
 20
1.7430
 30
 0.0
 42
1.0
  0
SEQEND
  8
AST
  0
POLYLINE
  8
AST
 66
      1
 70
1
 40
0.0030
 41
0.0030
  0
VERTEX
  8
AST
 10
2.0055
 20
1.7430
 30
 0.0
 42
1.0
  0
VERTEX
  8
AST
 10
2.0085
 20
1.7430
 30
 0.0
 42
1.0
  0
SEQEND
  8
AST
  0
POLYLINE
  8
AST
 66
      1
 70
1
 40
0.0030
 41
0.0030
  0
VERTEX
  8
AST
 10
2.0055
 20
1.6280
 30
 0.0
 42
1.0
  0
VERTEX
  8
AST
 10
2.0085
 20
1.6280
 30
 0.0
 42
1.0
  0
SEQEND
  8
AST
  0
POLYLINE
  8
AST
 66
      1
 70
1
 40
0.0030
 41
0.0030
  0
VERTEX
  8
AST
 10
1.9415
 20
1.6280
 30
 0.0
 42
1.0
  0
VERTEX
  8
AST
 10
1.9445
 20
1.6280
 30
 0.0
 42
1.0
  0
SEQEND
  8
AST
  0
POLYLINE
  8
AST
 66
      1
 70
1
 40
0.0030
 41
0.0030
  0
VERTEX
  8
AST
 10
1.9415
 20
1.7430
 30
 0.0
 42
1.0
  0
VERTEX
  8
AST
 10
1.9445
 20
1.7430
 30
 0.0
 42
1.0
  0
SEQEND
  8
AST
  0
POLYLINE
  8
AST
 66
      1
 70
1
 40
0.0060
 41
0.0060
  0
VERTEX
  8
AST
 10
1.0790
 20
1.1990
 30
 0.0
  0
VERTEX
  8
AST
 10
1.0140
 20
1.1990
 30
 0.0
  0
VERTEX
  8
AST
 10
1.0140
 20
1.3140
 30
 0.0
  0
VERTEX
  8
AST
 10
1.0790
 20
1.3140
 30
 0.0
  0
VERTEX
  8
AST
 10
1.0790
 20
1.1990
 30
 0.0
  0
SEQEND
  8
AST
  0
POLYLINE
  8
AST
 66
      1
 70
1
 40
0.0030
 41
0.0030
  0
VERTEX
  8
AST
 10
1.0775
 20
1.1990
 30
 0.0
 42
1.0
  0
VERTEX
  8
AST
 10
1.0805
 20
1.1990
 30
 0.0
 42
1.0
  0
SEQEND
  8
AST
  0
POLYLINE
  8
AST
 66
      1
 70
1
 40
0.0030
 41
0.0030
  0
VERTEX
  8
AST
 10
1.0125
 20
1.1990
 30
 0.0
 42
1.0
  0
VERTEX
  8
AST
 10
1.0155
 20
1.1990
 30
 0.0
 42
1.0
  0
SEQEND
  8
AST
  0
POLYLINE
  8
AST
 66
      1
 70
1
 40
0.0030
 41
0.0030
  0
VERTEX
  8
AST
 10
1.0125
 20
1.3140
 30
 0.0
 42
1.0
  0
VERTEX
  8
AST
 10
1.0155
 20
1.3140
 30
 0.0
 42
1.0
  0
SEQEND
  8
AST
  0
POLYLINE
  8
AST
 66
      1
 70
1
 40
0.0030
 41
0.0030
  0
VERTEX
  8
AST
 10
1.0775
 20
1.3140
 30
 0.0
 42
1.0
  0
VERTEX
  8
AST
 10
1.0805
 20
1.3140
 30
 0.0
 42
1.0
  0
SEQEND
  8
AST
  0
POLYLINE
  8
AST
 66
      1
 70
1
 40
0.0030
 41
0.0030
  0
VERTEX
  8
AST
 10
1.0775
 20
1.1990
 30
 0.0
 42
1.0
  0
VERTEX
  8
AST
 10
1.0805
 20
1.1990
 30
 0.0
 42
1.0
  0
SEQEND
  8
AST
  0
POLYLINE
  8
AST
 66
      1
 70
0
 40
0.0040
 41
0.0040
  0
VERTEX
  8
AST
 10
0.0080
 20
0.4240
 30
 0.0
  0
VERTEX
  8
AST
 10
0.0740
 20
0.4240
 30
 0.0
  0
VERTEX
  8
AST
 10
0.0740
 20
1.7430
 30
 0.0
  0
VERTEX
  8
AST
 10
0.0080
 20
1.7430
 30
 0.0
  0
SEQEND
  8
AST
  0
POLYLINE
  8
AST
 66
      1
 70
1
 40
0.0020
 41
0.0020
  0
VERTEX
  8
AST
 10
0.0070
 20
0.4240
 30
 0.0
 42
1.0
  0
VERTEX
  8
AST
 10
0.0090
 20
0.4240
 30
 0.0
 42
1.0
  0
SEQEND
  8
AST
  0
POLYLINE
  8
AST
 66
      1
 70
1
 40
0.0020
 41
0.0020
  0
VERTEX
  8
AST
 10
0.0730
 20
0.4240
 30
 0.0
 42
1.0
  0
VERTEX
  8
AST
 10
0.0750
 20
0.4240
 30
 0.0
 42
1.0
  0
SEQEND
  8
AST
  0
POLYLINE
  8
AST
 66
      1
 70
1
 40
0.0020
 41
0.0020
  0
VERTEX
  8
AST
 10
0.0730
 20
1.7430
 30
 0.0
 42
1.0
  0
VERTEX
  8
AST
 10
0.0750
 20
1.7430
 30
 0.0
 42
1.0
  0
SEQEND
  8
AST
  0
POLYLINE
  8
AST
 66
      1
 70
1
 40
0.0020
 41
0.0020
  0
VERTEX
  8
AST
 10
0.0070
 20
1.7430
 30
 0.0
 42
1.0
  0
VERTEX
  8
AST
 10
0.0090
 20
1.7430
 30
 0.0
 42
1.0
  0
SEQEND
  8
AST
  0
POLYLINE
  8
AST
 66
      1
 70
0
 40
0.0040
 41
0.0040
  0
VERTEX
  8
AST
 10
0.2460
 20
1.8290
 30
 0.0
 42
0.9999999999999999
  0
VERTEX
  8
AST
 10
0.0650
 20
1.8290
 30
 0.0
  0
SEQEND
  8
AST
  0
POLYLINE
  8
AST
 66
      1
 70
1
 40
0.0020
 41
0.0020
  0
VERTEX
  8
AST
 10
0.2450
 20
1.8290
 30
 0.0
 42
1.0
  0
VERTEX
  8
AST
 10
0.2470
 20
1.8290
 30
 0.0
 42
1.0
  0
SEQEND
  8
AST
  0
POLYLINE
  8
AST
 66
      1
 70
1
 40
0.0020
 41
0.0020
  0
VERTEX
  8
AST
 10
0.0640
 20
1.8290
 30
 0.0
 42
1.0
  0
VERTEX
  8
AST
 10
0.0660
 20
1.8290
 30
 0.0
 42
1.0
  0
SEQEND
  8
AST
  0
POLYLINE
  8
AST
 66
      1
 70
0
 40
0.0040
 41
0.0040
  0
VERTEX
  8
AST
 10
0.0650
 20
1.8290
 30
 0.0
 42
0.9999999999999999
  0
VERTEX
  8
AST
 10
0.2460
 20
1.8290
 30
 0.0
  0
SEQEND
  8
AST
  0
POLYLINE
  8
AST
 66
      1
 70
1
 40
0.0020
 41
0.0020
  0
VERTEX
  8
AST
 10
0.0640
 20
1.8290
 30
 0.0
 42
1.0
  0
VERTEX
  8
AST
 10
0.0660
 20
1.8290
 30
 0.0
 42
1.0
  0
SEQEND
  8
AST
  0
POLYLINE
  8
AST
 66
      1
 70
1
 40
0.0020
 41
0.0020
  0
VERTEX
  8
AST
 10
0.2450
 20
1.8290
 30
 0.0
 42
1.0
  0
VERTEX
  8
AST
 10
0.2470
 20
1.8290
 30
 0.0
 42
1.0
  0
SEQEND
  8
AST
  0
POLYLINE
  8
AST
 66
      1
 70
0
 40
0.0040
 41
0.0040
  0
VERTEX
  8
AST
 10
0.2460
 20
0.3330
 30
 0.0
 42
0.9999999999999999
  0
VERTEX
  8
AST
 10
0.0650
 20
0.3330
 30
 0.0
  0
SEQEND
  8
AST
  0
POLYLINE
  8
AST
 66
      1
 70
1
 40
0.0020
 41
0.0020
  0
VERTEX
  8
AST
 10
0.2450
 20
0.3330
 30
 0.0
 42
1.0
  0
VERTEX
  8
AST
 10
0.2470
 20
0.3330
 30
 0.0
 42
1.0
  0
SEQEND
  8
AST
  0
POLYLINE
  8
AST
 66
      1
 70
1
 40
0.0020
 41
0.0020
  0
VERTEX
  8
AST
 10
0.0640
 20
0.3330
 30
 0.0
 42
1.0
  0
VERTEX
  8
AST
 10
0.0660
 20
0.3330
 30
 0.0
 42
1.0
  0
SEQEND
  8
AST
  0
POLYLINE
  8
AST
 66
      1
 70
0
 40
0.0040
 41
0.0040
  0
VERTEX
  8
AST
 10
0.0650
 20
0.3330
 30
 0.0
 42
0.9999999999999999
  0
VERTEX
  8
AST
 10
0.2460
 20
0.3330
 30
 0.0
  0
SEQEND
  8
AST
  0
POLYLINE
  8
AST
 66
      1
 70
1
 40
0.0020
 41
0.0020
  0
VERTEX
  8
AST
 10
0.0640
 20
0.3330
 30
 0.0
 42
1.0
  0
VERTEX
  8
AST
 10
0.0660
 20
0.3330
 30
 0.0
 42
1.0
  0
SEQEND
  8
AST
  0
POLYLINE
  8
AST
 66
      1
 70
1
 40
0.0020
 41
0.0020
  0
VERTEX
  8
AST
 10
0.2450
 20
0.3330
 30
 0.0
 42
1.0
  0
VERTEX
  8
AST
 10
0.2470
 20
0.3330
 30
 0.0
 42
1.0
  0
SEQEND
  8
AST
  0
POLYLINE
  8
AST
 66
      1
 70
0
 40
0.0040
 41
0.0040
  0
VERTEX
  8
AST
 10
2.5860
 20
1.8290
 30
 0.0
  0
VERTEX
  8
AST
 10
2.5860
 20
1.8380
 30
 0.0
  0
VERTEX
  8
AST
 10
2.5850
 20
1.8450
 30
 0.0
  0
VERTEX
  8
AST
 10
2.5850
 20
1.8510
 30
 0.0
  0
VERTEX
  8
AST
 10
2.5840
 20
1.8570
 30
 0.0
  0
VERTEX
  8
AST
 10
2.5820
 20
1.8650
 30
 0.0
  0
VERTEX
  8
AST
 10
2.5800
 20
1.8720
 30
 0.0
  0
VERTEX
  8
AST
 10
2.5750
 20
1.8870
 30
 0.0
  0
VERTEX
  8
AST
 10
2.5710
 20
1.8950
 30
 0.0
  0
VERTEX
  8
AST
 10
2.5660
 20
1.9040
 30
 0.0
  0
VERTEX
  8
AST
 10
2.5600
 20
1.9130
 30
 0.0
  0
VERTEX
  8
AST
 10
2.5520
 20
1.9240
 30
 0.0
  0
VERTEX
  8
AST
 10
2.5450
 20
1.9320
 30
 0.0
  0
VERTEX
  8
AST
 10
2.5360
 20
1.9410
 30
 0.0
  0
VERTEX
  8
AST
 10
2.5280
 20
1.9470
 30
 0.0
  0
VERTEX
  8
AST
 10
2.5190
 20
1.9530
 30
 0.0
  0
VERTEX
  8
AST
 10
2.5100
 20
1.9590
 30
 0.0
  0
VERTEX
  8
AST
 10
2.5000
 20
1.9630
 30
 0.0
  0
VERTEX
  8
AST
 10
2.4920
 20
1.9670
 30
 0.0
  0
VERTEX
  8
AST
 10
2.4810
 20
1.9710
 30
 0.0
  0
VERTEX
  8
AST
 10
2.4710
 20
1.9730
 30
 0.0
  0
VERTEX
  8
AST
 10
2.4620
 20
1.9750
 30
 0.0
  0
VERTEX
  8
AST
 10
2.4530
 20
1.9760
 30
 0.0
  0
VERTEX
  8
AST
 10
2.4450
 20
1.9770
 30
 0.0
  0
VERTEX
  8
AST
 10
2.4390
 20
1.9770
 30
 0.0
 42
-2.183390891586528
  0
SEQEND
  8
AST
  0
POLYLINE
  8
AST
 66
      1
 70
1
 40
0.0020
 41
0.0020
  0
VERTEX
  8
AST
 10
2.5850
 20
1.8290
 30
 0.0
 42
1.0
  0
VERTEX
  8
AST
 10
2.5870
 20
1.8290
 30
 0.0
 42
1.0
  0
SEQEND
  8
AST
  0
POLYLINE
  8
AST
 66
      1
 70
1
 40
0.0020
 41
0.0020
  0
VERTEX
  8
AST
 10
2.5850
 20
1.8380
 30
 0.0
 42
1.0
  0
VERTEX
  8
AST
 10
2.5870
 20
1.8380
 30
 0.0
 42
1.0
  0
SEQEND
  8
AST
  0
POLYLINE
  8
AST
 66
      1
 70
1
 40
0.0020
 41
0.0020
  0
VERTEX
  8
AST
 10
2.5840
 20
1.8450
 30
 0.0
 42
1.0
  0
VERTEX
  8
AST
 10
2.5860
 20
1.8450
 30
 0.0
 42
1.0
  0
SEQEND
  8
AST
  0
POLYLINE
  8
AST
 66
      1
 70
1
 40
0.0020
 41
0.0020
  0
VERTEX
  8
AST
 10
2.5840
 20
1.8510
 30
 0.0
 42
1.0
  0
VERTEX
  8
AST
 10
2.5860
 20
1.8510
 30
 0.0
 42
1.0
  0
SEQEND
  8
AST
  0
POLYLINE
  8
AST
 66
      1
 70
1
 40
0.0020
 41
0.0020
  0
VERTEX
  8
AST
 10
2.5830
 20
1.8570
 30
 0.0
 42
1.0
  0
VERTEX
  8
AST
 10
2.5850
 20
1.8570
 30
 0.0
 42
1.0
  0
SEQEND
  8
AST
  0
POLYLINE
  8
AST
 66
      1
 70
1
 40
0.0020
 41
0.0020
  0
VERTEX
  8
AST
 10
2.5810
 20
1.8650
 30
 0.0
 42
1.0
  0
VERTEX
  8
AST
 10
2.5830
 20
1.8650
 30
 0.0
 42
1.0
  0
SEQEND
  8
AST
  0
POLYLINE
  8
AST
 66
      1
 70
1
 40
0.0020
 41
0.0020
  0
VERTEX
  8
AST
 10
2.5790
 20
1.8720
 30
 0.0
 42
1.0
  0
VERTEX
  8
AST
 10
2.5810
 20
1.8720
 30
 0.0
 42
1.0
  0
SEQEND
  8
AST
  0
POLYLINE
  8
AST
 66
      1
 70
1
 40
0.0020
 41
0.0020
  0
VERTEX
  8
AST
 10
2.5740
 20
1.8870
 30
 0.0
 42
1.0
  0
VERTEX
  8
AST
 10
2.5760
 20
1.8870
 30
 0.0
 42
1.0
  0
SEQEND
  8
AST
  0
POLYLINE
  8
AST
 66
      1
 70
1
 40
0.0020
 41
0.0020
  0
VERTEX
  8
AST
 10
2.5700
 20
1.8950
 30
 0.0
 42
1.0
  0
VERTEX
  8
AST
 10
2.5720
 20
1.8950
 30
 0.0
 42
1.0
  0
SEQEND
  8
AST
  0
POLYLINE
  8
AST
 66
      1
 70
1
 40
0.0020
 41
0.0020
  0
VERTEX
  8
AST
 10
2.5650
 20
1.9040
 30
 0.0
 42
1.0
  0
VERTEX
  8
AST
 10
2.5670
 20
1.9040
 30
 0.0
 42
1.0
  0
SEQEND
  8
AST
  0
POLYLINE
  8
AST
 66
      1
 70
1
 40
0.0020
 41
0.0020
  0
VERTEX
  8
AST
 10
2.5590
 20
1.9130
 30
 0.0
 42
1.0
  0
VERTEX
  8
AST
 10
2.5610
 20
1.9130
 30
 0.0
 42
1.0
  0
SEQEND
  8
AST
  0
POLYLINE
  8
AST
 66
      1
 70
1
 40
0.0020
 41
0.0020
  0
VERTEX
  8
AST
 10
2.5510
 20
1.9240
 30
 0.0
 42
1.0
  0
VERTEX
  8
AST
 10
2.5530
 20
1.9240
 30
 0.0
 42
1.0
  0
SEQEND
  8
AST
  0
POLYLINE
  8
AST
 66
      1
 70
1
 40
0.0020
 41
0.0020
  0
VERTEX
  8
AST
 10
2.5440
 20
1.9320
 30
 0.0
 42
1.0
  0
VERTEX
  8
AST
 10
2.5460
 20
1.9320
 30
 0.0
 42
1.0
  0
SEQEND
  8
AST
  0
POLYLINE
  8
AST
 66
      1
 70
1
 40
0.0020
 41
0.0020
  0
VERTEX
  8
AST
 10
2.5350
 20
1.9410
 30
 0.0
 42
1.0
  0
VERTEX
  8
AST
 10
2.5370
 20
1.9410
 30
 0.0
 42
1.0
  0
SEQEND
  8
AST
  0
POLYLINE
  8
AST
 66
      1
 70
1
 40
0.0020
 41
0.0020
  0
VERTEX
  8
AST
 10
2.5270
 20
1.9470
 30
 0.0
 42
1.0
  0
VERTEX
  8
AST
 10
2.5290
 20
1.9470
 30
 0.0
 42
1.0
  0
SEQEND
  8
AST
  0
POLYLINE
  8
AST
 66
      1
 70
1
 40
0.0020
 41
0.0020
  0
VERTEX
  8
AST
 10
2.5180
 20
1.9530
 30
 0.0
 42
1.0
  0
VERTEX
  8
AST
 10
2.5200
 20
1.9530
 30
 0.0
 42
1.0
  0
SEQEND
  8
AST
  0
POLYLINE
  8
AST
 66
      1
 70
1
 40
0.0020
 41
0.0020
  0
VERTEX
  8
AST
 10
2.5090
 20
1.9590
 30
 0.0
 42
1.0
  0
VERTEX
  8
AST
 10
2.5110
 20
1.9590
 30
 0.0
 42
1.0
  0
SEQEND
  8
AST
  0
POLYLINE
  8
AST
 66
      1
 70
1
 40
0.0020
 41
0.0020
  0
VERTEX
  8
AST
 10
2.4990
 20
1.9630
 30
 0.0
 42
1.0
  0
VERTEX
  8
AST
 10
2.5010
 20
1.9630
 30
 0.0
 42
1.0
  0
SEQEND
  8
AST
  0
POLYLINE
  8
AST
 66
      1
 70
1
 40
0.0020
 41
0.0020
  0
VERTEX
  8
AST
 10
2.4910
 20
1.9670
 30
 0.0
 42
1.0
  0
VERTEX
  8
AST
 10
2.4930
 20
1.9670
 30
 0.0
 42
1.0
  0
SEQEND
  8
AST
  0
POLYLINE
  8
AST
 66
      1
 70
1
 40
0.0020
 41
0.0020
  0
VERTEX
  8
AST
 10
2.4800
 20
1.9710
 30
 0.0
 42
1.0
  0
VERTEX
  8
AST
 10
2.4820
 20
1.9710
 30
 0.0
 42
1.0
  0
SEQEND
  8
AST
  0
POLYLINE
  8
AST
 66
      1
 70
1
 40
0.0020
 41
0.0020
  0
VERTEX
  8
AST
 10
2.4700
 20
1.9730
 30
 0.0
 42
1.0
  0
VERTEX
  8
AST
 10
2.4720
 20
1.9730
 30
 0.0
 42
1.0
  0
SEQEND
  8
AST
  0
POLYLINE
  8
AST
 66
      1
 70
1
 40
0.0020
 41
0.0020
  0
VERTEX
  8
AST
 10
2.4610
 20
1.9750
 30
 0.0
 42
1.0
  0
VERTEX
  8
AST
 10
2.4630
 20
1.9750
 30
 0.0
 42
1.0
  0
SEQEND
  8
AST
  0
POLYLINE
  8
AST
 66
      1
 70
1
 40
0.0020
 41
0.0020
  0
VERTEX
  8
AST
 10
2.4520
 20
1.9760
 30
 0.0
 42
1.0
  0
VERTEX
  8
AST
 10
2.4540
 20
1.9760
 30
 0.0
 42
1.0
  0
SEQEND
  8
AST
  0
POLYLINE
  8
AST
 66
      1
 70
1
 40
0.0020
 41
0.0020
  0
VERTEX
  8
AST
 10
2.4440
 20
1.9770
 30
 0.0
 42
1.0
  0
VERTEX
  8
AST
 10
2.4460
 20
1.9770
 30
 0.0
 42
1.0
  0
SEQEND
  8
AST
  0
POLYLINE
  8
AST
 66
      1
 70
1
 40
0.0020
 41
0.0020
  0
VERTEX
  8
AST
 10
2.4380
 20
1.9770
 30
 0.0
 42
1.0
  0
VERTEX
  8
AST
 10
2.4400
 20
1.9770
 30
 0.0
 42
1.0
  0
SEQEND
  8
AST
  0
POLYLINE
  8
AST
 66
      1
 70
0
 40
0.0040
 41
0.0040
  0
VERTEX
  8
AST
 10
0.1550
 20
1.9770
 30
 0.0
  0
VERTEX
  8
AST
 10
2.4390
 20
1.9770
 30
 0.0
  0
SEQEND
  8
AST
  0
POLYLINE
  8
AST
 66
      1
 70
1
 40
0.0020
 41
0.0020
  0
VERTEX
  8
AST
 10
0.1540
 20
1.9770
 30
 0.0
 42
1.0
  0
VERTEX
  8
AST
 10
0.1560
 20
1.9770
 30
 0.0
 42
1.0
  0
SEQEND
  8
AST
  0
POLYLINE
  8
AST
 66
      1
 70
1
 40
0.0020
 41
0.0020
  0
VERTEX
  8
AST
 10
2.4380
 20
1.9770
 30
 0.0
 42
1.0
  0
VERTEX
  8
AST
 10
2.4400
 20
1.9770
 30
 0.0
 42
1.0
  0
SEQEND
  8
AST
  0
POLYLINE
  8
AST
 66
      1
 70
0
 40
0.0040
 41
0.0040
  0
VERTEX
  8
AST
 10
0.1550
 20
0.1860
 30
 0.0
  0
VERTEX
  8
AST
 10
0.1320
 20
0.1880
 30
 0.0
  0
VERTEX
  8
AST
 10
0.1080
 20
0.1940
 30
 0.0
  0
VERTEX
  8
AST
 10
0.0840
 20
0.2030
 30
 0.0
  0
VERTEX
  8
AST
 10
0.0670
 20
0.2150
 30
 0.0
  0
VERTEX
  8
AST
 10
0.0530
 20
0.2270
 30
 0.0
  0
VERTEX
  8
AST
 10
0.0390
 20
0.2410
 30
 0.0
  0
VERTEX
  8
AST
 10
0.0290
 20
0.2570
 30
 0.0
  0
VERTEX
  8
AST
 10
0.0210
 20
0.2720
 30
 0.0
  0
VERTEX
  8
AST
 10
0.0150
 20
0.2860
 30
 0.0
  0
VERTEX
  8
AST
 10
0.0100
 20
0.3100
 30
 0.0
  0
VERTEX
  8
AST
 10
0.0080
 20
0.3250
 30
 0.0
  0
VERTEX
  8
AST
 10
0.0080
 20
0.3330
 30
 0.0
  0
SEQEND
  8
AST
  0
POLYLINE
  8
AST
 66
      1
 70
1
 40
0.0020
 41
0.0020
  0
VERTEX
  8
AST
 10
0.1540
 20
0.1860
 30
 0.0
 42
1.0
  0
VERTEX
  8
AST
 10
0.1560
 20
0.1860
 30
 0.0
 42
1.0
  0
SEQEND
  8
AST
  0
POLYLINE
  8
AST
 66
      1
 70
1
 40
0.0020
 41
0.0020
  0
VERTEX
  8
AST
 10
0.1310
 20
0.1880
 30
 0.0
 42
1.0
  0
VERTEX
  8
AST
 10
0.1330
 20
0.1880
 30
 0.0
 42
1.0
  0
SEQEND
  8
AST
  0
POLYLINE
  8
AST
 66
      1
 70
1
 40
0.0020
 41
0.0020
  0
VERTEX
  8
AST
 10
0.1070
 20
0.1940
 30
 0.0
 42
1.0
  0
VERTEX
  8
AST
 10
0.1090
 20
0.1940
 30
 0.0
 42
1.0
  0
SEQEND
  8
AST
  0
POLYLINE
  8
AST
 66
      1
 70
1
 40
0.0020
 41
0.0020
  0
VERTEX
  8
AST
 10
0.0830
 20
0.2030
 30
 0.0
 42
1.0
  0
VERTEX
  8
AST
 10
0.0850
 20
0.2030
 30
 0.0
 42
1.0
  0
SEQEND
  8
AST
  0
POLYLINE
  8
AST
 66
      1
 70
1
 40
0.0020
 41
0.0020
  0
VERTEX
  8
AST
 10
0.0660
 20
0.2150
 30
 0.0
 42
1.0
  0
VERTEX
  8
AST
 10
0.0680
 20
0.2150
 30
 0.0
 42
1.0
  0
SEQEND
  8
AST
  0
POLYLINE
  8
AST
 66
      1
 70
1
 40
0.0020
 41
0.0020
  0
VERTEX
  8
AST
 10
0.0520
 20
0.2270
 30
 0.0
 42
1.0
  0
VERTEX
  8
AST
 10
0.0540
 20
0.2270
 30
 0.0
 42
1.0
  0
SEQEND
  8
AST
  0
POLYLINE
  8
AST
 66
      1
 70
1
 40
0.0020
 41
0.0020
  0
VERTEX
  8
AST
 10
0.0380
 20
0.2410
 30
 0.0
 42
1.0
  0
VERTEX
  8
AST
 10
0.0400
 20
0.2410
 30
 0.0
 42
1.0
  0
SEQEND
  8
AST
  0
POLYLINE
  8
AST
 66
      1
 70
1
 40
0.0020
 41
0.0020
  0
VERTEX
  8
AST
 10
0.0280
 20
0.2570
 30
 0.0
 42
1.0
  0
VERTEX
  8
AST
 10
0.0300
 20
0.2570
 30
 0.0
 42
1.0
  0
SEQEND
  8
AST
  0
POLYLINE
  8
AST
 66
      1
 70
1
 40
0.0020
 41
0.0020
  0
VERTEX
  8
AST
 10
0.0200
 20
0.2720
 30
 0.0
 42
1.0
  0
VERTEX
  8
AST
 10
0.0220
 20
0.2720
 30
 0.0
 42
1.0
  0
SEQEND
  8
AST
  0
POLYLINE
  8
AST
 66
      1
 70
1
 40
0.0020
 41
0.0020
  0
VERTEX
  8
AST
 10
0.0140
 20
0.2860
 30
 0.0
 42
1.0
  0
VERTEX
  8
AST
 10
0.0160
 20
0.2860
 30
 0.0
 42
1.0
  0
SEQEND
  8
AST
  0
POLYLINE
  8
AST
 66
      1
 70
1
 40
0.0020
 41
0.0020
  0
VERTEX
  8
AST
 10
0.0090
 20
0.3100
 30
 0.0
 42
1.0
  0
VERTEX
  8
AST
 10
0.0110
 20
0.3100
 30
 0.0
 42
1.0
  0
SEQEND
  8
AST
  0
POLYLINE
  8
AST
 66
      1
 70
1
 40
0.0020
 41
0.0020
  0
VERTEX
  8
AST
 10
0.0070
 20
0.3250
 30
 0.0
 42
1.0
  0
VERTEX
  8
AST
 10
0.0090
 20
0.3250
 30
 0.0
 42
1.0
  0
SEQEND
  8
AST
  0
POLYLINE
  8
AST
 66
      1
 70
1
 40
0.0020
 41
0.0020
  0
VERTEX
  8
AST
 10
0.0070
 20
0.3330
 30
 0.0
 42
1.0
  0
VERTEX
  8
AST
 10
0.0090
 20
0.3330
 30
 0.0
 42
1.0
  0
SEQEND
  8
AST
  0
POLYLINE
  8
AST
 66
      1
 70
0
 40
0.0040
 41
0.0040
  0
VERTEX
  8
AST
 10
0.1550
 20
0.1860
 30
 0.0
  0
VERTEX
  8
AST
 10
2.4390
 20
0.1860
 30
 0.0
  0
SEQEND
  8
AST
  0
POLYLINE
  8
AST
 66
      1
 70
1
 40
0.0020
 41
0.0020
  0
VERTEX
  8
AST
 10
0.1540
 20
0.1860
 30
 0.0
 42
1.0
  0
VERTEX
  8
AST
 10
0.1560
 20
0.1860
 30
 0.0
 42
1.0
  0
SEQEND
  8
AST
  0
POLYLINE
  8
AST
 66
      1
 70
1
 40
0.0020
 41
0.0020
  0
VERTEX
  8
AST
 10
2.4380
 20
0.1860
 30
 0.0
 42
1.0
  0
VERTEX
  8
AST
 10
2.4400
 20
0.1860
 30
 0.0
 42
1.0
  0
SEQEND
  8
AST
  0
POLYLINE
  8
AST
 66
      1
 70
0
 40
0.0040
 41
0.0040
  0
VERTEX
  8
AST
 10
2.4390
 20
0.1860
 30
 0.0
  0
VERTEX
  8
AST
 10
2.4520
 20
0.1860
 30
 0.0
  0
VERTEX
  8
AST
 10
2.4580
 20
0.1880
 30
 0.0
  0
VERTEX
  8
AST
 10
2.4620
 20
0.1880
 30
 0.0
  0
VERTEX
  8
AST
 10
2.4700
 20
0.1900
 30
 0.0
  0
VERTEX
  8
AST
 10
2.4760
 20
0.1900
 30
 0.0
  0
VERTEX
  8
AST
 10
2.4820
 20
0.1920
 30
 0.0
  0
VERTEX
  8
AST
 10
2.4900
 20
0.1960
 30
 0.0
  0
VERTEX
  8
AST
 10
2.4980
 20
0.1980
 30
 0.0
  0
VERTEX
  8
AST
 10
2.5080
 20
0.2030
 30
 0.0
  0
VERTEX
  8
AST
 10
2.5140
 20
0.2050
 30
 0.0
  0
VERTEX
  8
AST
 10
2.5210
 20
0.2110
 30
 0.0
  0
VERTEX
  8
AST
 10
2.5290
 20
0.2170
 30
 0.0
  0
VERTEX
  8
AST
 10
2.5390
 20
0.2250
 30
 0.0
  0
VERTEX
  8
AST
 10
2.5450
 20
0.2310
 30
 0.0
  0
VERTEX
  8
AST
 10
2.5530
 20
0.2410
 30
 0.0
  0
VERTEX
  8
AST
 10
2.5610
 20
0.2510
 30
 0.0
  0
VERTEX
  8
AST
 10
2.5670
 20
0.2610
 30
 0.0
  0
VERTEX
  8
AST
 10
2.5730
 20
0.2700
 30
 0.0
  0
VERTEX
  8
AST
 10
2.5770
 20
0.2800
 30
 0.0
  0
VERTEX
  8
AST
 10
2.5800
 20
0.2920
 30
 0.0
  0
VERTEX
  8
AST
 10
2.5840
 20
0.3080
 30
 0.0
  0
VERTEX
  8
AST
 10
2.5860
 20
0.3330
 30
 0.0
  0
SEQEND
  8
AST
  0
POLYLINE
  8
AST
 66
      1
 70
1
 40
0.0020
 41
0.0020
  0
VERTEX
  8
AST
 10
2.4380
 20
0.1860
 30
 0.0
 42
1.0
  0
VERTEX
  8
AST
 10
2.4400
 20
0.1860
 30
 0.0
 42
1.0
  0
SEQEND
  8
AST
  0
POLYLINE
  8
AST
 66
      1
 70
1
 40
0.0020
 41
0.0020
  0
VERTEX
  8
AST
 10
2.4510
 20
0.1860
 30
 0.0
 42
1.0
  0
VERTEX
  8
AST
 10
2.4530
 20
0.1860
 30
 0.0
 42
1.0
  0
SEQEND
  8
AST
  0
POLYLINE
  8
AST
 66
      1
 70
1
 40
0.0020
 41
0.0020
  0
VERTEX
  8
AST
 10
2.4570
 20
0.1880
 30
 0.0
 42
1.0
  0
VERTEX
  8
AST
 10
2.4590
 20
0.1880
 30
 0.0
 42
1.0
  0
SEQEND
  8
AST
  0
POLYLINE
  8
AST
 66
      1
 70
1
 40
0.0020
 41
0.0020
  0
VERTEX
  8
AST
 10
2.4610
 20
0.1880
 30
 0.0
 42
1.0
  0
VERTEX
  8
AST
 10
2.4630
 20
0.1880
 30
 0.0
 42
1.0
  0
SEQEND
  8
AST
  0
POLYLINE
  8
AST
 66
      1
 70
1
 40
0.0020
 41
0.0020
  0
VERTEX
  8
AST
 10
2.4690
 20
0.1900
 30
 0.0
 42
1.0
  0
VERTEX
  8
AST
 10
2.4710
 20
0.1900
 30
 0.0
 42
1.0
  0
SEQEND
  8
AST
  0
POLYLINE
  8
AST
 66
      1
 70
1
 40
0.0020
 41
0.0020
  0
VERTEX
  8
AST
 10
2.4750
 20
0.1900
 30
 0.0
 42
1.0
  0
VERTEX
  8
AST
 10
2.4770
 20
0.1900
 30
 0.0
 42
1.0
  0
SEQEND
  8
AST
  0
POLYLINE
  8
AST
 66
      1
 70
1
 40
0.0020
 41
0.0020
  0
VERTEX
  8
AST
 10
2.4810
 20
0.1920
 30
 0.0
 42
1.0
  0
VERTEX
  8
AST
 10
2.4830
 20
0.1920
 30
 0.0
 42
1.0
  0
SEQEND
  8
AST
  0
POLYLINE
  8
AST
 66
      1
 70
1
 40
0.0020
 41
0.0020
  0
VERTEX
  8
AST
 10
2.4890
 20
0.1960
 30
 0.0
 42
1.0
  0
VERTEX
  8
AST
 10
2.4910
 20
0.1960
 30
 0.0
 42
1.0
  0
SEQEND
  8
AST
  0
POLYLINE
  8
AST
 66
      1
 70
1
 40
0.0020
 41
0.0020
  0
VERTEX
  8
AST
 10
2.4970
 20
0.1980
 30
 0.0
 42
1.0
  0
VERTEX
  8
AST
 10
2.4990
 20
0.1980
 30
 0.0
 42
1.0
  0
SEQEND
  8
AST
  0
POLYLINE
  8
AST
 66
      1
 70
1
 40
0.0020
 41
0.0020
  0
VERTEX
  8
AST
 10
2.5070
 20
0.2030
 30
 0.0
 42
1.0
  0
VERTEX
  8
AST
 10
2.5090
 20
0.2030
 30
 0.0
 42
1.0
  0
SEQEND
  8
AST
  0
POLYLINE
  8
AST
 66
      1
 70
1
 40
0.0020
 41
0.0020
  0
VERTEX
  8
AST
 10
2.5130
 20
0.2050
 30
 0.0
 42
1.0
  0
VERTEX
  8
AST
 10
2.5150
 20
0.2050
 30
 0.0
 42
1.0
  0
SEQEND
  8
AST
  0
POLYLINE
  8
AST
 66
      1
 70
1
 40
0.0020
 41
0.0020
  0
VERTEX
  8
AST
 10
2.5200
 20
0.2110
 30
 0.0
 42
1.0
  0
VERTEX
  8
AST
 10
2.5220
 20
0.2110
 30
 0.0
 42
1.0
  0
SEQEND
  8
AST
  0
POLYLINE
  8
AST
 66
      1
 70
1
 40
0.0020
 41
0.0020
  0
VERTEX
  8
AST
 10
2.5280
 20
0.2170
 30
 0.0
 42
1.0
  0
VERTEX
  8
AST
 10
2.5300
 20
0.2170
 30
 0.0
 42
1.0
  0
SEQEND
  8
AST
  0
POLYLINE
  8
AST
 66
      1
 70
1
 40
0.0020
 41
0.0020
  0
VERTEX
  8
AST
 10
2.5380
 20
0.2250
 30
 0.0
 42
1.0
  0
VERTEX
  8
AST
 10
2.5400
 20
0.2250
 30
 0.0
 42
1.0
  0
SEQEND
  8
AST
  0
POLYLINE
  8
AST
 66
      1
 70
1
 40
0.0020
 41
0.0020
  0
VERTEX
  8
AST
 10
2.5440
 20
0.2310
 30
 0.0
 42
1.0
  0
VERTEX
  8
AST
 10
2.5460
 20
0.2310
 30
 0.0
 42
1.0
  0
SEQEND
  8
AST
  0
POLYLINE
  8
AST
 66
      1
 70
1
 40
0.0020
 41
0.0020
  0
VERTEX
  8
AST
 10
2.5520
 20
0.2410
 30
 0.0
 42
1.0
  0
VERTEX
  8
AST
 10
2.5540
 20
0.2410
 30
 0.0
 42
1.0
  0
SEQEND
  8
AST
  0
POLYLINE
  8
AST
 66
      1
 70
1
 40
0.0020
 41
0.0020
  0
VERTEX
  8
AST
 10
2.5600
 20
0.2510
 30
 0.0
 42
1.0
  0
VERTEX
  8
AST
 10
2.5620
 20
0.2510
 30
 0.0
 42
1.0
  0
SEQEND
  8
AST
  0
POLYLINE
  8
AST
 66
      1
 70
1
 40
0.0020
 41
0.0020
  0
VERTEX
  8
AST
 10
2.5660
 20
0.2610
 30
 0.0
 42
1.0
  0
VERTEX
  8
AST
 10
2.5680
 20
0.2610
 30
 0.0
 42
1.0
  0
SEQEND
  8
AST
  0
POLYLINE
  8
AST
 66
      1
 70
1
 40
0.0020
 41
0.0020
  0
VERTEX
  8
AST
 10
2.5720
 20
0.2700
 30
 0.0
 42
1.0
  0
VERTEX
  8
AST
 10
2.5740
 20
0.2700
 30
 0.0
 42
1.0
  0
SEQEND
  8
AST
  0
POLYLINE
  8
AST
 66
      1
 70
1
 40
0.0020
 41
0.0020
  0
VERTEX
  8
AST
 10
2.5760
 20
0.2800
 30
 0.0
 42
1.0
  0
VERTEX
  8
AST
 10
2.5780
 20
0.2800
 30
 0.0
 42
1.0
  0
SEQEND
  8
AST
  0
POLYLINE
  8
AST
 66
      1
 70
1
 40
0.0020
 41
0.0020
  0
VERTEX
  8
AST
 10
2.5790
 20
0.2920
 30
 0.0
 42
1.0
  0
VERTEX
  8
AST
 10
2.5810
 20
0.2920
 30
 0.0
 42
1.0
  0
SEQEND
  8
AST
  0
POLYLINE
  8
AST
 66
      1
 70
1
 40
0.0020
 41
0.0020
  0
VERTEX
  8
AST
 10
2.5830
 20
0.3080
 30
 0.0
 42
1.0
  0
VERTEX
  8
AST
 10
2.5850
 20
0.3080
 30
 0.0
 42
1.0
  0
SEQEND
  8
AST
  0
POLYLINE
  8
AST
 66
      1
 70
1
 40
0.0020
 41
0.0020
  0
VERTEX
  8
AST
 10
2.5850
 20
0.3330
 30
 0.0
 42
1.0
  0
VERTEX
  8
AST
 10
2.5870
 20
0.3330
 30
 0.0
 42
1.0
  0
SEQEND
  8
AST
  0
POLYLINE
  8
AST
 66
      1
 70
0
 40
0.0040
 41
0.0040
  0
VERTEX
  8
AST
 10
2.5290
 20
1.8290
 30
 0.0
 42
0.9999999999999999
  0
VERTEX
  8
AST
 10
2.3480
 20
1.8290
 30
 0.0
  0
SEQEND
  8
AST
  0
POLYLINE
  8
AST
 66
      1
 70
1
 40
0.0020
 41
0.0020
  0
VERTEX
  8
AST
 10
2.5280
 20
1.8290
 30
 0.0
 42
1.0
  0
VERTEX
  8
AST
 10
2.5300
 20
1.8290
 30
 0.0
 42
1.0
  0
SEQEND
  8
AST
  0
POLYLINE
  8
AST
 66
      1
 70
1
 40
0.0020
 41
0.0020
  0
VERTEX
  8
AST
 10
2.3470
 20
1.8290
 30
 0.0
 42
1.0
  0
VERTEX
  8
AST
 10
2.3490
 20
1.8290
 30
 0.0
 42
1.0
  0
SEQEND
  8
AST
  0
POLYLINE
  8
AST
 66
      1
 70
0
 40
0.0040
 41
0.0040
  0
VERTEX
  8
AST
 10
2.3480
 20
1.8290
 30
 0.0
 42
0.9999999999999999
  0
VERTEX
  8
AST
 10
2.5290
 20
1.8290
 30
 0.0
  0
SEQEND
  8
AST
  0
POLYLINE
  8
AST
 66
      1
 70
1
 40
0.0020
 41
0.0020
  0
VERTEX
  8
AST
 10
2.3470
 20
1.8290
 30
 0.0
 42
1.0
  0
VERTEX
  8
AST
 10
2.3490
 20
1.8290
 30
 0.0
 42
1.0
  0
SEQEND
  8
AST
  0
POLYLINE
  8
AST
 66
      1
 70
1
 40
0.0020
 41
0.0020
  0
VERTEX
  8
AST
 10
2.5280
 20
1.8290
 30
 0.0
 42
1.0
  0
VERTEX
  8
AST
 10
2.5300
 20
1.8290
 30
 0.0
 42
1.0
  0
SEQEND
  8
AST
  0
POLYLINE
  8
AST
 66
      1
 70
0
 40
0.0040
 41
0.0040
  0
VERTEX
  8
AST
 10
2.5290
 20
0.3330
 30
 0.0
 42
0.9999999999999999
  0
VERTEX
  8
AST
 10
2.3480
 20
0.3330
 30
 0.0
  0
SEQEND
  8
AST
  0
POLYLINE
  8
AST
 66
      1
 70
1
 40
0.0020
 41
0.0020
  0
VERTEX
  8
AST
 10
2.5280
 20
0.3330
 30
 0.0
 42
1.0
  0
VERTEX
  8
AST
 10
2.5300
 20
0.3330
 30
 0.0
 42
1.0
  0
SEQEND
  8
AST
  0
POLYLINE
  8
AST
 66
      1
 70
1
 40
0.0020
 41
0.0020
  0
VERTEX
  8
AST
 10
2.3470
 20
0.3330
 30
 0.0
 42
1.0
  0
VERTEX
  8
AST
 10
2.3490
 20
0.3330
 30
 0.0
 42
1.0
  0
SEQEND
  8
AST
  0
POLYLINE
  8
AST
 66
      1
 70
0
 40
0.0040
 41
0.0040
  0
VERTEX
  8
AST
 10
2.3480
 20
0.3330
 30
 0.0
 42
0.9999999999999999
  0
VERTEX
  8
AST
 10
2.5290
 20
0.3330
 30
 0.0
  0
SEQEND
  8
AST
  0
POLYLINE
  8
AST
 66
      1
 70
1
 40
0.0020
 41
0.0020
  0
VERTEX
  8
AST
 10
2.3470
 20
0.3330
 30
 0.0
 42
1.0
  0
VERTEX
  8
AST
 10
2.3490
 20
0.3330
 30
 0.0
 42
1.0
  0
SEQEND
  8
AST
  0
POLYLINE
  8
AST
 66
      1
 70
1
 40
0.0020
 41
0.0020
  0
VERTEX
  8
AST
 10
2.5280
 20
0.3330
 30
 0.0
 42
1.0
  0
VERTEX
  8
AST
 10
2.5300
 20
0.3330
 30
 0.0
 42
1.0
  0
SEQEND
  8
AST
  0
POLYLINE
  8
AST
 66
      1
 70
1
 40
0.0390
 41
0.0390
  0
VERTEX
  8
AST
 10
0.4040
 20
1.0040
 30
 0.0
 42
1.0
  0
VERTEX
  8
AST
 10
0.4420
 20
1.0040
 30
 0.0
 42
1.0
  0
SEQEND
  8
AST
  0
POLYLINE
  8
AST
 66
      1
 70
1
 40
0.0390
 41
0.0390
  0
VERTEX
  8
AST
 10
1.4250
 20
1.7010
 30
 0.0
 42
1.0
  0
VERTEX
  8
AST
 10
1.4630
 20
1.7010
 30
 0.0
 42
1.0
  0
SEQEND
  8
AST
  0
POLYLINE
  8
AST
 66
      1
 70
1
 40
0.0390
 41
0.0390
  0
VERTEX
  8
AST
 10
1.8460
 20
1.7400
 30
 0.0
 42
1.0
  0
VERTEX
  8
AST
 10
1.8840
 20
1.7400
 30
 0.0
 42
1.0
  0
SEQEND
  8
AST
  0
POLYLINE
  8
AST
 66
      1
 70
1
 40
0.0390
 41
0.0390
  0
VERTEX
  8
AST
 10
2.4430
 20
0.7910
 30
 0.0
 42
1.0
  0
VERTEX
  8
AST
 10
2.4810
 20
0.7910
 30
 0.0
 42
1.0
  0
SEQEND
  8
AST
  0
POLYLINE
  8
AST
 66
      1
 70
1
 40
0.0390
 41
0.0390
  0
VERTEX
  8
AST
 10
1.3460
 20
1.6020
 30
 0.0
 42
1.0
  0
VERTEX
  8
AST
 10
1.3840
 20
1.6020
 30
 0.0
 42
1.0
  0
SEQEND
  8
AST
  0
POLYLINE
  8
AST
 66
      1
 70
1
 40
0.0390
 41
0.0390
  0
VERTEX
  8
AST
 10
0.4940
 20
0.9330
 30
 0.0
 42
1.0
  0
VERTEX
  8
AST
 10
0.5320
 20
0.9330
 30
 0.0
 42
1.0
  0
SEQEND
  8
AST
  0
POLYLINE
  8
AST
 66
      1
 70
1
 40
0.0390
 41
0.0390
  0
VERTEX
  8
AST
 10
0.3800
 20
0.7600
 30
 0.0
 42
1.0
  0
VERTEX
  8
AST
 10
0.4180
 20
0.7600
 30
 0.0
 42
1.0
  0
SEQEND
  8
AST
  0
POLYLINE
  8
AST
 66
      1
 70
1
 40
0.0390
 41
0.0390
  0
VERTEX
  8
AST
 10
1.7610
 20
1.6570
 30
 0.0
 42
1.0
  0
VERTEX
  8
AST
 10
1.7990
 20
1.6570
 30
 0.0
 42
1.0
  0
SEQEND
  8
AST
  0
POLYLINE
  8
AST
 66
      1
 70
1
 40
0.0390
 41
0.0390
  0
VERTEX
  8
AST
 10
0.2940
 20
0.6770
 30
 0.0
 42
1.0
  0
VERTEX
  8
AST
 10
0.3320
 20
0.6770
 30
 0.0
 42
1.0
  0
SEQEND
  8
AST
  0
POLYLINE
  8
AST
 66
      1
 70
1
 40
0.0390
 41
0.0390
  0
VERTEX
  8
AST
 10
1.6940
 20
1.7240
 30
 0.0
 42
1.0
  0
VERTEX
  8
AST
 10
1.7320
 20
1.7240
 30
 0.0
 42
1.0
  0
SEQEND
  8
AST
  0
POLYLINE
  8
AST
 66
      1
 70
1
 40
0.0390
 41
0.0390
  0
VERTEX
  8
AST
 10
0.9000
 20
0.3590
 30
 0.0
 42
1.0
  0
VERTEX
  8
AST
 10
0.9380
 20
0.3590
 30
 0.0
 42
1.0
  0
SEQEND
  8
AST
  0
POLYLINE
  8
AST
 66
      1
 70
1
 40
0.0390
 41
0.0390
  0
VERTEX
  8
AST
 10
0.6910
 20
0.3590
 30
 0.0
 42
1.0
  0
VERTEX
  8
AST
 10
0.7290
 20
0.3590
 30
 0.0
 42
1.0
  0
SEQEND
  8
AST
  0
TEXT
  8
AST
 10
1.5110
 20
0.9060
 40
0.0500
 41
0.8000
  1
U2
 50
360.0000
  0
TEXT
  8
AST
 10
1.7380
 20
0.1830
 40
0.0750
 41
0.8000
  1
INDUCTOR/SM
 50
180.0000
  0
TEXT
  8
AST
 10
1.7380
 20
0.0710
 40
0.0750
 41
0.8000
  1
L3
 50
180.0000
  0
TEXT
  8
AST
 10
0.1220
 20
0.9900
 40
0.0750
 41
0.8000
  1

 50
0.0000
  0
TEXT
  8
AST
 10
0.8730
 20
0.8280
 40
0.0750
 41
0.8000
  1

 50
0.0000
  0
TEXT
  8
AST
 10
0.3800
 20
0.4940
 40
0.0500
 41
0.8000
  1
C13
 50
90.0000
  0
TEXT
  8
AST
 10
2.3370
 20
0.5020
 40
0.0500
 41
0.8000
  1
R9
 50
360.0000
  0
TEXT
  8
AST
 10
2.4470
 20
1.1180
 40
0.0500
 41
0.8000
  1
C2
 50
90.0000
  0
TEXT
  8
AST
 10
0.6110
 20
1.5050
 40
0.0500
 41
0.8000
  1
C23
 50
0.0000
  0
TEXT
  8
AST
 10
1.9960
 20
1.0480
 40
0.0500
 41
0.8000
  1
C8
 50
90.0000
  0
TEXT
  8
AST
 10
2.5530
 20
1.5250
 40
0.0790
 41
0.8000
  1
Y1
 50
270.0000
  0
TEXT
  8
AST
 10
2.4350
 20
1.5250
 40
0.0790
 41
0.8000
  1
8MHZ
 50
270.0000
  0
TEXT
  8
AST
 10
0.3760
 20
1.4870
 40
0.0500
 41
0.8000
  1
R6
 50
0.0000
  0
TEXT
  8
AST
 10
2.0150
 20
1.4190
 40
0.0500
 41
0.8000
  1
C4
 50
90.0000
  0
TEXT
  8
AST
 10
1.5550
 20
1.7450
 40
0.0500
 41
0.8000
  1
C9
 50
360.0000
  0
TEXT
  8
AST
 10
2.0920
 20
1.1560
 40
0.0500
 41
0.8000
  1
C3
 50
90.0000
  0
TEXT
  8
AST
 10
2.5460
 20
0.9100
 40
0.0500
 41
0.8000
  1
C5
 50
90.0000
  0
TEXT
  8
AST
 10
2.2260
 20
0.8430
 40
0.0600
 41
0.8000
  1
+
 50
0.0000
  0
TEXT
  8
AST
 10
0.9160
 20
0.4920
 40
0.0500
 41
0.8000
  1
C10
 50
90.0000
  0
TEXT
  8
AST
 10
0.6120
 20
1.4410
 40
0.0500
 41
0.8000
  1
C21
 50
0.0000
  0
TEXT
  8
AST
 10
0.6900
 20
1.8870
 40
0.0500
 41
0.8000
  1
JP2
 50
0.0000
  0
TEXT
  8
AST
 10
0.5980
 20
0.8900
 40
0.0500
 41
0.8000
  1
U1
 50
360.0000
  0
TEXT
  8
AST
 10
2.2540
 20
0.8320
 40
0.0500
 41
0.8000
  1
D2
 50
360.0000
  0
TEXT
  8
AST
 10
1.6880
 20
1.1080
 40
0.0500
 41
0.8000
  1
DD1
 50
360.0000
  0
TEXT
  8
AST
 10
1.5200
 20
1.5870
 40
0.0500
 41
0.8000
  1
25
 50
270.0000
  0
TEXT
  8
AST
 10
1.9810
 20
1.2200
 40
0.0500
 41
0.8000
  1
1
 50
90.0000
  0
TEXT
  8
AST
 10
1.0270
 20
1.3310
 40
0.0500
 41
0.8000
  1
C22
 50
360.0000
  0
TEXT
  8
AST
 10
0.2810
 20
1.6070
 40
0.0500
 41
0.8000
  1
D1
 50
360.0000
  0
TEXT
  8
AST
 10
0.7920
 20
1.5770
 40
0.0500
 41
0.8000
  1
R2
 50
90.0000
  0
TEXT
  8
AST
 10
0.8650
 20
1.1320
 40
0.0500
 41
0.8000
  1
C20
 50
360.0000
  0
TEXT
  8
AST
 10
0.8740
 20
0.6860
 40
0.0750
 41
0.8000
  1

 50
0.0000
  0
TEXT
  8
AST
 10
0.9470
 20
1.1830
 40
0.0600
 41
0.8000
  1
+
 50
90.0000
  0
TEXT
  8
AST
 10
0.8740
 20
0.5450
 40
0.0750
 41
0.8000
  1

 50
0.0000
  0
TEXT
  8
AST
 10
0.8740
 20
0.4040
 40
0.0750
 41
0.8000
  1

 50
0.0000
  0
TEXT
  8
AST
 10
1.5980
 20
0.5650
 40
0.0500
 41
0.8000
  1
C17
 50
360.0000
  0
TEXT
  8
AST
 10
0.8970
 20
1.5760
 40
0.0500
 41
0.8000
  1
R3
 50
90.0000
  0
TEXT
  8
AST
 10
2.2530
 20
0.5020
 40
0.0500
 41
0.8000
  1
R7
 50
360.0000
  0
TEXT
  8
AST
 10
1.9020
 20
0.5030
 40
0.0500
 41
0.8000
  1
C18
 50
180.0000
  0
TEXT
  8
AST
 10
0.9180
 20
0.6340
 40
0.0500
 41
0.8000
  1
C12
 50
90.0000
  0
TEXT
  8
AST
 10
0.8710
 20
0.9710
 40
0.0500
 41
0.8000
  1

 50
0.0000
  0
TEXT
  8
AST
 10
1.2420
 20
1.3680
 40
0.0500
 41
0.8000
  1
SWD
 50
90.0000
  0
TEXT
  8
AST
 10
1.2380
 20
1.2020
 40
0.0500
 41
0.8000
  1
JP1
 50
90.0000
  0
TEXT
  8
AST
 10
0.5920
 20
1.0760
 40
0.0500
 41
0.8000
  1
U5
 50
360.0000
  0
TEXT
  8
AST
 10
0.9930
 20
1.5720
 40
0.0500
 41
0.8000
  1
R4
 50
90.0000
  0
TEXT
  8
AST
 10
1.4310
 20
0.5930
 40
0.0500
 41
0.8000
  1
C19
 50
0.0000
  0
TEXT
  8
AST
 10
2.0650
 20
0.5270
 40
0.0500
 41
0.8000
  1
J1
 50
180.0000
  0
TEXT
  8
AST
 10
2.0210
 20
0.8780
 40
0.0500
 41
0.8000
  1
R5
 50
360.0000
  0
TEXT
  8
AST
 10
1.9020
 20
0.5960
 40
0.0500
 41
0.8000
  1
C15
 50
270.0000
  0
TEXT
  8
AST
 10
0.4380
 20
1.6080
 40
0.0500
 41
0.8000
  1
D3
 50
360.0000
  0
TEXT
  8
AST
 10
0.5640
 20
0.3400
 40
0.0500
 41
0.8000
  1
C11
 50
0.0000
  0
TEXT
  8
AST
 10
1.4320
 20
1.1160
 40
0.0500
 41
0.8000
  1
C6
 50
360.0000
  0
TEXT
  8
AST
 10
2.4470
 20
1.4700
 40
0.0500
 41
0.8000
  1
C1
 50
90.0000
  0
TEXT
  8
AST
 10
0.9360
 20
0.7620
 40
0.0500
 41
0.8000
  1
C14
 50
90.0000
  0
TEXT
  8
AST
 10
1.8710
 20
0.9320
 40
0.0500
 41
0.8000
  1
C16
 50
360.0000
  0
TEXT
  8
AST
 10
2.4020
 20
0.7260
 40
0.0500
 41
0.8000
  1
D4
 50
360.0000
  0
TEXT
  8
AST
 10
0.6910
 20
1.5840
 40
0.0500
 41
0.8000
  1
R1
 50
90.0000
  0
TEXT
  8
AST
 10
1.9420
 20
1.7430
 40
0.0500
 41
0.8000
  1
C7
 50
360.0000
  0
TEXT
  8
AST
 10
0.1220
 20
0.7930
 40
0.0500
 41
0.8000
  1

 50
0.0000
  0
TEXT
  8
AST
 10
0.8740
 20
0.2630
 40
0.0500
 41
0.8000
  1

 50
0.0000
  0
TEXT
  8
AST
 10
2.1140
 20
0.3000
 40
0.0500
 41
0.8000
  1

 50
0.0000
  0
TEXT
  8
AST
 10
1.7360
 20
0.3460
 40
0.0750
 41
0.8000
  1
L2
 50
180.0000
  0
TEXT
  8
AST
 10
1.7360
 20
0.4580
 40
0.0750
 41
0.8000
  1
INDUCTOR/SM
 50
180.0000
  0
TEXT
  8
AST
 10
2.0490
 20
0.4590
 40
0.0750
 41
0.8000
  1
INDUCTOR/SM
 50
180.0000
  0
TEXT
  8
AST
 10
2.0490
 20
0.3460
 40
0.0750
 41
0.8000
  1
L1
 50
180.0000
  0
TEXT
  8
AST
 10
0.9270
 20
0.5900
 40
0.0790
 41
0.8000
  1
X1
 50
90.0000
  0
TEXT
  8
AST
 10
1.0450
 20
0.5900
 40
0.0790
 41
0.8000
  1
10MHZ
 50
90.0000
  0
ENDSEC
  0
EOF
